<svg id="art" xmlns="http://www.w3.org/2000/svg" xmlns:xlink="http://www.w3.org/1999/xlink" viewBox="0 0 90.02 14.84"><defs><style>.cls-1{fill:url(#linear-gradient);}.cls-2{fill:url(#linear-gradient-2);}.cls-3{fill:url(#linear-gradient-3);}.cls-4{fill:#231f20;}</style><linearGradient id="linear-gradient" x1="1.15" y1="12.55" x2="9.17" y2="9.53" gradientUnits="userSpaceOnUse"><stop offset="0" stop-color="#329d91"/><stop offset="0.07" stop-color="#48aca2"/><stop offset="0.17" stop-color="#5dbbb2"/><stop offset="0.26" stop-color="#6ac4bc"/><stop offset="0.35" stop-color="#6ec7bf"/></linearGradient><linearGradient id="linear-gradient-2" x1="1.4" y1="11.33" x2="6.14" y2="0.61" gradientUnits="userSpaceOnUse"><stop offset="0" stop-color="#d6e047"/><stop offset="0.4" stop-color="#81b94f"/><stop offset="0.51" stop-color="#7db84f"/><stop offset="0.61" stop-color="#72b44f"/><stop offset="0.71" stop-color="#5eaf4f"/><stop offset="0.81" stop-color="#43a74f"/><stop offset="0.9" stop-color="#209c4e"/><stop offset="0.98" stop-color="#00934e"/></linearGradient><linearGradient id="linear-gradient-3" x1="6.72" y1="0.01" x2="12.8" y2="14.88" gradientUnits="userSpaceOnUse"><stop offset="0" stop-color="#56beea"/><stop offset="0.45" stop-color="#289bd4"/><stop offset="0.8" stop-color="#0b85c6"/><stop offset="1" stop-color="#007dc1"/></linearGradient></defs><title>autodesk-logo</title><path class="cls-1" d="M3.73,11H1.11c-1,0-1.21-.63-1-1.15l0,0a1.14,1.14,0,0,0,.17.94c.46.87,1.88,3.48,1.88,3.48a.87.87,0,0,0,.83.48A5.39,5.39,0,0,0,5,14l4.79-3Z"/><path class="cls-2" d="M4.7,0h0A.62.62,0,0,0,4,.43L.09,9.81c-.21.53,0,1.23,1,1.23H3.73l3-7.19C6,1.93,5.37.53,5.36.52A.71.71,0,0,0,4.7,0Z"/><path class="cls-3" d="M9.49.4A.66.66,0,0,0,8.86,0H4.69a.68.68,0,0,0-.64.35A.68.68,0,0,1,4.69,0h0a.71.71,0,0,1,.66.48S6,1.93,6.77,3.85c1.78,4.23,4.64,11,4.64,11h4.18Z"/><path class="cls-4" d="M27.4,11H25.8L24.93,9H20.87L20,11H18.44l3.78-8.65h1.4ZM22.9,4.18,21.42,7.61h3Z"/><path class="cls-4" d="M41.33,11H39.81V3.83H37.08V2.43h7.09l-.58,1.4H41.33Z"/><path class="cls-4" d="M70.23,3.83h-4.6V6h2.94V7.37H65.63V9.65h4.6V11H64.11V2.43h6.12Z"/><path class="cls-4" d="M81,11H79.57V2.43H81Z"/><path class="cls-4" d="M74.89,3.67c-.87,0-1.62.27-1.62.85s.42.92,2,1.45C77.09,6.55,78,7.15,78,8.6c0,1.64-1.28,2.57-3.12,2.57A5,5,0,0,1,71.53,10l.56-1.34A4.55,4.55,0,0,0,75,9.78c.93,0,1.59-.45,1.59-1.12s-.33-.93-1.89-1.43c-1.8-.58-2.89-1.2-2.88-2.66s1.38-2.29,3.1-2.28A5.47,5.47,0,0,1,77.7,3l-.54,1.23A4.63,4.63,0,0,0,74.89,3.67Z"/><polygon class="cls-4" points="82.87 6.59 86.72 2.43 84.87 2.43 81.02 6.59 85.25 11.03 87.12 11.03 82.87 6.59"/><path class="cls-4" d="M48.83,2.29a4.44,4.44,0,1,0,4.44,4.44A4.44,4.44,0,0,0,48.83,2.29Zm0,7.5a2.94,2.94,0,0,1-2.92-3.06,2.92,2.92,0,1,1,5.84,0A2.94,2.94,0,0,1,48.83,9.79Z"/><path class="cls-4" d="M58.12,2.43H54.86V11h3.26a4.3,4.3,0,1,0,0-8.59Zm0,7.22H56.38V3.83h1.75A2.8,2.8,0,0,1,61,6.72,2.83,2.83,0,0,1,58.12,9.65Z"/><path class="cls-4" d="M35.42,7.22c0,2.56-1.5,3.94-3.68,3.94s-3.68-1.38-3.68-3.94V2.43h1.52v5a2.17,2.17,0,1,0,4.32,0v-5h1.52Z"/><path class="cls-4" d="M90,9.93A1.09,1.09,0,1,0,88.93,11,1.09,1.09,0,0,0,90,9.93Zm-.16,0A.93.93,0,1,1,88.93,9,.91.91,0,0,1,89.86,9.93Z"/><path class="cls-4" d="M89.4,10.49l-.26-.37A.67.67,0,0,0,89,10c.19,0,.29-.13.29-.29A.31.31,0,0,0,89,9.36h-.37v1.13h.16V10c.09,0,.12,0,.18.11l.28.4Zm-.27-.81c0,.16-.14.17-.26.17h-.12V9.5h.17C89.08,9.5,89.13,9.57,89.13,9.68Z"/></svg>