<svg xmlns="http://www.w3.org/2000/svg" viewBox="0 0 1619.27 166.13"><polygon points="1619.27 4.34 1571.33 4.34 1513.91 68.46 1513.91 4.34 1473.66 4.34 1473.86 162.18 1513.91 162.18 1513.91 102.2 1568.37 162.18 1619.27 162.18 1545.88 84.25 1619.27 4.34"/><path d="M1479.12,135.19l-36.7-4.14c-21.51-2.37-26.83-7.7-26.83-15,0-8.09,11.05-15.39,32.55-15.39,20.72,0,31.57,7.7,33.54,19.34h39.46c-2-33.35-30-54.06-70.83-54.06-48.53,0-73,19.33-73,53.46,0,27.82,16.18,40.85,49.72,44.4l37.29,3.94c14.21,1.58,20.72,7.11,20.72,14.21,0,8.09-9.47,15.39-32.36,15.39-26.44,0-37.09-6.71-38.87-20.13h-38.67c1.78,36.31,25.45,54.85,76.16,54.85,46.36,0,72.21-20.32,72.21-50.9C1523.51,154.52,1508.12,138.54,1479.12,135.19Z" transform="translate(-70.36 -65.94)"/><polygon points="1159.96 162.18 1287.02 162.18 1287.02 128.05 1200.21 128.05 1200.21 99.44 1270.05 99.44 1270.05 65.11 1200.21 65.11 1200.21 38.47 1287.02 38.47 1287.02 4.34 1159.96 4.34 1159.96 162.18"/><path d="M1135.62,70.28h-73.79V228.12h73.79c56.63,0,72.21-21.11,72.21-80.11C1207.83,92.57,1192.84,70.28,1135.62,70.28ZM1134,194h-32V104.41h32c25.26,0,32.75,6.91,32.75,43.6C1166.79,181.55,1158.31,194,1134,194Z" transform="translate(-70.36 -65.94)"/><path d="M952.53,65.94c-57.42,0-87.21,35.31-87.21,82.86,0,47.75,29.79,83.26,87.21,83.26,57.61,0,87.4-35.51,87.4-83.26C1039.93,101.25,1010.14,65.94,952.53,65.94Zm0,130.61c-29.79,0-46.17-18.15-46.17-47.75,0-29,16.38-47.35,46.17-47.35,30,0,46.17,18.35,46.17,47.35C998.7,178.4,982.52,196.55,952.53,196.55Z" transform="translate(-70.36 -65.94)"/><polygon points="646.59 38.47 697.49 38.47 697.49 162.18 737.74 162.18 737.74 38.47 788.45 38.47 788.45 4.34 646.59 4.34 646.59 38.47"/><path d="M658.36,167.74c0,20.52-12.63,28.81-34.14,28.81-20.91,0-34.52-8.68-34.52-28.81V70.28H549.45v102c0,45.58,40.64,59.78,74.77,59.78,33.94,0,74.38-14.2,74.38-59.78v-102H658.36Z" transform="translate(-70.36 -65.94)"/><path d="M431.66,70.28,371.09,228.12h41.63l10.57-29.6h67.62l10.4,29.6h43L483,70.28Zm3.61,94.7,22.11-61.87L479.12,165Z" transform="translate(-70.36 -65.94)"/><path d="M71.6,228.13l141.34-87.92h73.32a4.28,4.28,0,0,1,4.28,4.29,3.72,3.72,0,0,1-2,3.6l-69.42,41.62c-4.51,2.7-6.09,8.12-6.09,12.18l-.07,26.23h88.22V75.69a5.41,5.41,0,0,0-5.64-5.42H211.36l-141,87.54v70.32Z" transform="translate(-70.36 -65.94)"/></svg>