<svg xmlns="http://www.w3.org/2000/svg" viewBox="0 0 426.22 98.53"><defs><style>.cls-1{fill:#f1b7b7;}.cls-2{fill:#231f20;}.cls-3{fill:#b7e3f1;}.cls-4{fill:#fdff7f;}.cls-5{fill:#f1d4b7;}.cls-6{fill:#e0bdff;}.cls-7{fill:#dedede;}.cls-8{fill:#f0f0f0;}.cls-9{fill:#6e7300;}</style></defs><title>diagram_model</title><g id="Edge_weights" data-name="Edge weights"><rect class="cls-1" x="232.54" y="76.38" width="61.36" height="21.9"/><path class="cls-2" d="M293.65,76.63V98H232.79V76.63h60.86m.5-.5H232.29v22.4h61.86V76.13Z"/><path d="M253.78,82.52v1.1a2.67,2.67,0,0,1-.72,2,2.81,2.81,0,0,1-2.05.71h-1.57V80h1.79a2.31,2.31,0,0,1,2.55,2.52Zm-.67,0a2,2,0,0,0-.49-1.43,1.84,1.84,0,0,0-1.42-.52h-1.08v5.2H251a2.12,2.12,0,0,0,1.57-.54,2.16,2.16,0,0,0,.53-1.57Z"/><path d="M256.06,86.3h-.67V82.08h-.74v-.52h1.41Zm-.79-6.1a.41.41,0,0,1,.42-.42.45.45,0,0,1,.31.12.41.41,0,0,1,.12.3.41.41,0,0,1-.43.43.41.41,0,0,1-.3-.12A.45.45,0,0,1,255.27,80.2Z"/><path d="M258.65,80.86v.7H260v.52h-1.3V86.3H258V82.08h-.65v-.52H258v-.65a1.38,1.38,0,0,1,.37-1,1.47,1.47,0,0,1,1.07-.36,2.65,2.65,0,0,1,.77.11l-.09.51a2.28,2.28,0,0,0-.61-.08.91.91,0,0,0-.64.19A.83.83,0,0,0,258.65,80.86Z"/><path d="M261.88,80.86v.7h1.3v.52h-1.3V86.3h-.66V82.08h-.66v-.52h.66v-.65a1.35,1.35,0,0,1,.37-1,1.45,1.45,0,0,1,1.06-.36,2.6,2.6,0,0,1,.77.11l-.09.51a2.28,2.28,0,0,0-.61-.08.91.91,0,0,0-.64.19A.83.83,0,0,0,261.88,80.86Z"/><path d="M267.88,81.56V86.3h-.57l-.06-.66a2,2,0,0,1-1.56.77,1.52,1.52,0,0,1-1.07-.39,1.36,1.36,0,0,1-.43-1V81.56h.67V85a.91.91,0,0,0,.25.69,1,1,0,0,0,.71.24,1.44,1.44,0,0,0,.77-.23,1.84,1.84,0,0,0,.62-.62V81.56Z"/><path d="M269.12,85.8l.34-.43a2.51,2.51,0,0,0,.65.38,2.13,2.13,0,0,0,.78.13,1.55,1.55,0,0,0,.85-.19.64.64,0,0,0,.3-.57v-.07a.65.65,0,0,0-.19-.5,2.14,2.14,0,0,0-.73-.35l-.63-.23a2.46,2.46,0,0,1-.88-.48,1,1,0,0,1-.28-.7v-.15a.92.92,0,0,1,.22-.61,1.45,1.45,0,0,1,.58-.43,2.34,2.34,0,0,1,.85-.15,2.82,2.82,0,0,1,.92.15,2.27,2.27,0,0,1,.76.43l-.33.39a2.85,2.85,0,0,0-.65-.33A2.17,2.17,0,0,0,271,82a1.32,1.32,0,0,0-.72.17.54.54,0,0,0-.27.47v.07a.56.56,0,0,0,.2.44,2.2,2.2,0,0,0,.71.35l.63.23a2.46,2.46,0,0,1,.88.48,1,1,0,0,1,.29.78v.15a1.09,1.09,0,0,1-.5.94,2.19,2.19,0,0,1-1.27.34A2.82,2.82,0,0,1,269.12,85.8Z"/><path d="M274.38,84.13v0a1.86,1.86,0,0,0,.41,1.28,1.45,1.45,0,0,0,1.13.45,2.06,2.06,0,0,0,.68-.11,4.22,4.22,0,0,0,.62-.33l.26.43a2.76,2.76,0,0,1-.72.39,2.57,2.57,0,0,1-.87.15,2.26,2.26,0,0,1-1.15-.29,2,2,0,0,1-.75-.81,2.57,2.57,0,0,1-.26-1.16v-.47a2.64,2.64,0,0,1,.25-1.13,2.09,2.09,0,0,1,.7-.8,1.91,1.91,0,0,1,1.07-.3,1.76,1.76,0,0,1,1.42.6,2.43,2.43,0,0,1,.52,1.66,2.34,2.34,0,0,1,0,.42Zm0-.48h2.7v-.07a1.83,1.83,0,0,0-.34-1.17,1.35,1.35,0,0,0-2,0A2,2,0,0,0,274.38,83.65Z"/><path d="M246.53,90.56l-.11.63a1.34,1.34,0,0,0-.33,0,1.37,1.37,0,0,0-1.34,1.16v3h-.67V90.56h.51l.11.85a1.46,1.46,0,0,1,.55-.7,1.36,1.36,0,0,1,.76-.23A1.88,1.88,0,0,1,246.53,90.56Z"/><path d="M247.78,93.13v0a1.86,1.86,0,0,0,.41,1.28,1.45,1.45,0,0,0,1.13.45,2.06,2.06,0,0,0,.68-.11,3.77,3.77,0,0,0,.62-.33l.26.43a2.47,2.47,0,0,1-.72.39,2.57,2.57,0,0,1-.87.15,2.26,2.26,0,0,1-1.15-.29,2,2,0,0,1-.75-.81,2.57,2.57,0,0,1-.25-1.16v-.47a2.63,2.63,0,0,1,.24-1.13,2,2,0,0,1,.71-.8,1.86,1.86,0,0,1,1.06-.3,1.76,1.76,0,0,1,1.42.6,2.43,2.43,0,0,1,.52,1.66,2.34,2.34,0,0,1,0,.42Zm0-.48h2.7v-.07a1.83,1.83,0,0,0-.34-1.17,1.35,1.35,0,0,0-2,0A2,2,0,0,0,247.78,92.65Z"/><path d="M257,95.3a1.4,1.4,0,0,1-.53.11.8.8,0,0,1-.87-.88V89.16c-.62-.07-1-.1-1.21-.1a1.36,1.36,0,0,0-.88.24,1,1,0,0,0-.29.81v.45h1.3v.52h-1.3v4.23h-.66V91.08h-.66v-.52h.66v-.41c0-1.08.58-1.62,1.75-1.62a12.21,12.21,0,0,1,1.33.11h.63v5.79a.47.47,0,0,0,.09.33.34.34,0,0,0,.28.1,1.27,1.27,0,0,0,.28,0Z"/><path d="M258.58,93.13v0a1.86,1.86,0,0,0,.41,1.28,1.45,1.45,0,0,0,1.13.45,2.06,2.06,0,0,0,.68-.11,3.77,3.77,0,0,0,.62-.33l.26.43a2.47,2.47,0,0,1-.72.39,2.57,2.57,0,0,1-.87.15,2.26,2.26,0,0,1-1.15-.29,2,2,0,0,1-.75-.81,2.57,2.57,0,0,1-.25-1.16v-.47a2.63,2.63,0,0,1,.24-1.13,2,2,0,0,1,.71-.8,1.86,1.86,0,0,1,1.06-.3,1.76,1.76,0,0,1,1.42.6,2.43,2.43,0,0,1,.52,1.66,2.34,2.34,0,0,1,0,.42Zm0-.48h2.7v-.07a1.83,1.83,0,0,0-.34-1.17,1.35,1.35,0,0,0-2,0A2,2,0,0,0,258.58,92.65Z"/><path d="M262.86,93.12v-.39a2.44,2.44,0,0,1,.53-1.65,1.82,1.82,0,0,1,1.49-.63,2.09,2.09,0,0,1,.81.15,2.23,2.23,0,0,1,.68.45l-.34.37a1.93,1.93,0,0,0-.52-.32,1.66,1.66,0,0,0-.61-.11,1.21,1.21,0,0,0-1,.46,2,2,0,0,0-.36,1.26v.42a2,2,0,0,0,.36,1.28,1.16,1.16,0,0,0,1,.46,1.57,1.57,0,0,0,.6-.11,2.43,2.43,0,0,0,.54-.3l.3.43a2.72,2.72,0,0,1-.67.38,2.29,2.29,0,0,1-.78.14,1.83,1.83,0,0,1-1.48-.63A2.5,2.5,0,0,1,262.86,93.12Z"/><path d="M269.82,95.3a2.81,2.81,0,0,1-.73.11,1.31,1.31,0,0,1-.91-.28,1,1,0,0,1-.32-.83V91.08h-.75v-.52h.77l.05-1.13h.6v1.13h1.14v.52h-1.14v3.2a.61.61,0,0,0,.17.45.73.73,0,0,0,.5.15,2.09,2.09,0,0,0,.53-.07Z"/><path d="M271.86,95.3h-.67V91.08h-.75v-.52h1.42Zm-.79-6.1a.42.42,0,0,1,.72-.3.38.38,0,0,1,.13.3.42.42,0,0,1-.13.31.44.44,0,0,1-.6,0A.45.45,0,0,1,271.07,89.2Z"/><path d="M277.47,92.68v.47a2.72,2.72,0,0,1-.24,1.17,1.88,1.88,0,0,1-.73.8,2.21,2.21,0,0,1-1.15.29,2,2,0,0,1-1.56-.62,2.41,2.41,0,0,1-.55-1.64v-.47a2.52,2.52,0,0,1,.25-1.15,1.87,1.87,0,0,1,.71-.79,2.43,2.43,0,0,1,2.3,0,1.92,1.92,0,0,1,.73.79A2.66,2.66,0,0,1,277.47,92.68Zm-3.56,0v.47a2,2,0,0,0,.37,1.28,1.27,1.27,0,0,0,1.07.46,1.33,1.33,0,0,0,1.08-.46,2,2,0,0,0,.38-1.28v-.47a1.86,1.86,0,0,0-.38-1.23,1.35,1.35,0,0,0-1.08-.45,1.29,1.29,0,0,0-1.07.45A1.84,1.84,0,0,0,273.91,92.67Z"/><path d="M282.54,92V95.3h-.66V92.09a1.14,1.14,0,0,0-.27-.83,1,1,0,0,0-.73-.27,1.55,1.55,0,0,0-1.36.84V95.3h-.67V90.56h.57l.05.63a1.87,1.87,0,0,1,1.55-.74,1.48,1.48,0,0,1,1.1.42A1.55,1.55,0,0,1,282.54,92Z"/><rect class="cls-3" x="65.01" y="0.25" width="360.96" height="21.86"/><path class="cls-2" d="M425.72.5V21.86H65.26V.5H425.72m.5-.5H64.76V22.36H426.22V0Z"/><rect class="cls-3" x="165.93" y="25.61" width="260.04" height="21.87"/><path class="cls-2" d="M425.72,25.86V47.23H166.18V25.86H425.72m.5-.5H165.68V47.73H426.22V25.36Z"/><rect class="cls-3" x="165.93" y="50.98" width="63.11" height="47.3"/><path class="cls-2" d="M228.79,51.23V98H166.18V51.23h62.61m.5-.5H165.68v47.8h63.61V50.73Z"/><rect class="cls-4" x="65.11" y="25.61" width="46.96" height="72.67"/><path class="cls-2" d="M111.82,25.86V98H65.36V25.86h46.46m.5-.5H64.86V98.53h47.46V25.36Z"/><rect class="cls-5" x="364.61" y="76.38" width="61.36" height="21.9"/><path class="cls-2" d="M425.72,76.63V98H364.86V76.63h60.86m.5-.5H364.36v22.4h61.86V76.13Z"/><rect class="cls-1" x="297.4" y="76.38" width="63.7" height="21.9"/><path class="cls-2" d="M360.86,76.63V98H297.65V76.63h63.21m.5-.5H297.15v22.4h64.21V76.13Z"/><rect class="cls-6" x="232.54" y="50.98" width="193.43" height="21.9"/><path class="cls-2" d="M425.72,51.23v21.4H232.79V51.23H425.72m.5-.5H232.29v22.4H426.22V50.73Z"/><rect class="cls-7" x="115.57" y="25.61" width="46.96" height="72.67"/><path class="cls-2" d="M162.28,25.86V98H115.82V25.86h46.46m.5-.5H115.32V98.53h47.46V25.36Z"/><rect class="cls-8" x="0.25" y="0.25" width="61.28" height="98.03"/><path class="cls-2" d="M61.28.5V98H.5V.5H61.28m.5-.5H0V98.53H61.78V0Z"/><path d="M7.68,45.77H5.8v5.75H5.13V45.77H3.26v-.55H7.68Z"/><path d="M11,46.77l-.12.63a1.42,1.42,0,0,0-.33,0c-.66,0-1.1.38-1.34,1.15v3H8.55V46.77h.5l.11.86a1.44,1.44,0,0,1,.55-.71,1.38,1.38,0,0,1,.76-.23A2,2,0,0,1,11,46.77Z"/><path d="M15.13,48.26v3.26h-.55L14.53,51a2,2,0,0,1-1.55.66,1.8,1.8,0,0,1-.77-.16,1.38,1.38,0,0,1-.55-.46,1.21,1.21,0,0,1-.22-.7V50A1.18,1.18,0,0,1,12,49a2.35,2.35,0,0,1,1.4-.37h1.1v-.4a1.06,1.06,0,0,0-.26-.78,1.11,1.11,0,0,0-.8-.26,2.74,2.74,0,0,0-.73.1,4.25,4.25,0,0,0-.7.28l-.22-.45a3.29,3.29,0,0,1,1.69-.47,1.71,1.71,0,0,1,1.26.43A1.59,1.59,0,0,1,15.13,48.26Zm-.67,2.17V49.11H13.41a1.62,1.62,0,0,0-1,.24.82.82,0,0,0-.34.71v.2a.76.76,0,0,0,.27.61,1,1,0,0,0,.7.23,1.71,1.71,0,0,0,.78-.17A1.58,1.58,0,0,0,14.46,50.43Z"/><path d="M20.49,48.25v3.27h-.67V48.3a1.13,1.13,0,0,0-.26-.83,1,1,0,0,0-.73-.27,1.55,1.55,0,0,0-1.36.84v3.48H16.8V46.77h.57l.05.63A1.87,1.87,0,0,1,19,46.66a1.48,1.48,0,0,1,1.1.42A1.55,1.55,0,0,1,20.49,48.25Z"/><path d="M21.64,51l.34-.43a2.45,2.45,0,0,0,.66.38,2.13,2.13,0,0,0,.78.13,1.58,1.58,0,0,0,.85-.19.63.63,0,0,0,.3-.56v-.08a.65.65,0,0,0-.2-.5,2.38,2.38,0,0,0-.72-.35L23,49.18a2.24,2.24,0,0,1-.88-.47.93.93,0,0,1-.28-.7v-.16a1,1,0,0,1,.21-.61,1.38,1.38,0,0,1,.59-.42,2.26,2.26,0,0,1,.85-.16,2.71,2.71,0,0,1,.91.15,2.32,2.32,0,0,1,.77.43l-.33.4a2.6,2.6,0,0,0-.66-.34,2.39,2.39,0,0,0-.69-.1,1.37,1.37,0,0,0-.72.17.54.54,0,0,0-.27.47v.07a.58.58,0,0,0,.2.45,2.42,2.42,0,0,0,.71.35l.63.22a2.46,2.46,0,0,1,.88.48,1,1,0,0,1,.29.78v.16a1.06,1.06,0,0,1-.5.93,2.15,2.15,0,0,1-1.26.34A2.83,2.83,0,0,1,21.64,51Z"/><path d="M30.51,48.92v.43a2.71,2.71,0,0,1-.25,1.16,2.07,2.07,0,0,1-.69.82,1.84,1.84,0,0,1-1,.29,1.88,1.88,0,0,1-1.26-.47v2.16h-.66V46.74h.56l.06.58a1.75,1.75,0,0,1,1.45-.66,1.59,1.59,0,0,1,.94.29,1.85,1.85,0,0,1,.63.79A3,3,0,0,1,30.51,48.92Zm-.67,0a2.06,2.06,0,0,0-.33-1.25,1.07,1.07,0,0,0-.92-.45,1.46,1.46,0,0,0-.73.18,1.57,1.57,0,0,0-.56.53V50.6a1.59,1.59,0,0,0,1.17.49,1.2,1.2,0,0,0,1-.46,2,2,0,0,0,.37-1.26Z"/><path d="M35.16,48.26v3.26h-.55l0-.56a2,2,0,0,1-1.56.66,1.73,1.73,0,0,1-.76-.16,1.41,1.41,0,0,1-.56-.46,1.2,1.2,0,0,1-.21-.7V50A1.16,1.16,0,0,1,32,49a2.33,2.33,0,0,1,1.4-.37h1.09v-.4a1,1,0,0,0-.26-.78,1.1,1.1,0,0,0-.8-.26,2.72,2.72,0,0,0-.72.1,4.33,4.33,0,0,0-.71.28l-.22-.45a3.33,3.33,0,0,1,1.7-.47,1.75,1.75,0,0,1,1.26.43A1.58,1.58,0,0,1,35.16,48.26Zm-.67,2.17V49.11H33.44a1.66,1.66,0,0,0-1,.24.84.84,0,0,0-.33.71v.2a.75.75,0,0,0,.26.61,1.06,1.06,0,0,0,.71.23,1.64,1.64,0,0,0,.77-.17A1.51,1.51,0,0,0,34.49,50.43Z"/><path d="M39.28,46.77l-.12.63a1.27,1.27,0,0,0-.32,0,1.36,1.36,0,0,0-1.34,1.15v3h-.67V46.77h.51l.11.86a1.48,1.48,0,0,1,.54-.71,1.42,1.42,0,0,1,.77-.23A1.88,1.88,0,0,1,39.28,46.77Z"/><path d="M40.53,49.35h0a1.84,1.84,0,0,0,.41,1.28,1.45,1.45,0,0,0,1.13.45,2.06,2.06,0,0,0,.68-.11,4.22,4.22,0,0,0,.62-.33l.26.43a2.61,2.61,0,0,1-.72.39,2.57,2.57,0,0,1-.87.15,2.26,2.26,0,0,1-1.15-.29,1.84,1.84,0,0,1-.75-.81,2.54,2.54,0,0,1-.26-1.16V48.9a2.57,2.57,0,0,1,.25-1.13,2,2,0,0,1,.7-.81,1.91,1.91,0,0,1,1.07-.3,1.76,1.76,0,0,1,1.42.6,2.5,2.5,0,0,1,.52,1.66,2.46,2.46,0,0,1,0,.43Zm0-.49h2.7V48.8a1.84,1.84,0,0,0-.34-1.18,1.23,1.23,0,0,0-1-.43,1.2,1.2,0,0,0-1,.45A2,2,0,0,0,40.53,48.86Z"/><path d="M48.88,48.25v3.27h-.67V48.3a1.18,1.18,0,0,0-.26-.83,1,1,0,0,0-.74-.27,1.56,1.56,0,0,0-1.36.84v3.48h-.66V46.77h.56l.06.63a1.84,1.84,0,0,1,1.55-.74,1.49,1.49,0,0,1,1.1.42A1.55,1.55,0,0,1,48.88,48.25Z"/><path d="M50.17,49.34v-.4a2.49,2.49,0,0,1,.53-1.65,1.84,1.84,0,0,1,1.5-.63,2.09,2.09,0,0,1,.81.15,2.19,2.19,0,0,1,.67.45l-.34.38a1.59,1.59,0,0,0-.51-.33,1.71,1.71,0,0,0-.62-.11,1.23,1.23,0,0,0-1,.46,2,2,0,0,0-.36,1.26v.43a2,2,0,0,0,.35,1.27,1.18,1.18,0,0,0,1,.46,1.64,1.64,0,0,0,.6-.1,3.3,3.3,0,0,0,.53-.31l.31.43a2.59,2.59,0,0,1-.67.38,2.29,2.29,0,0,1-.78.14A1.85,1.85,0,0,1,50.7,51,2.49,2.49,0,0,1,50.17,49.34Z"/><path d="M54.69,53.32l.1-.46a1.74,1.74,0,0,0,.45.06.75.75,0,0,0,.52-.18,1.43,1.43,0,0,0,.35-.64l.19-.58H56l-1.64-4.75h.7L56.46,51l1.31-4.25h.66L56.7,52.14a2.13,2.13,0,0,1-.59,1,1.4,1.4,0,0,1-.88.27l-.3,0A1,1,0,0,1,54.69,53.32Z"/><path d="M186.35,13.8l.36-.42a4.75,4.75,0,0,0,.52.35,1.9,1.9,0,0,0,.54.21,2.89,2.89,0,0,0,.77.08,2.1,2.1,0,0,0,.88-.16,1.19,1.19,0,0,0,.52-.43.89.89,0,0,0,.18-.52v-.15a.9.9,0,0,0-.26-.68,2.61,2.61,0,0,0-.91-.46l-.9-.3a2.6,2.6,0,0,1-1.12-.63,1.27,1.27,0,0,1-.34-.89V9.6a1.24,1.24,0,0,1,.24-.72,1.67,1.67,0,0,1,.71-.58,3.07,3.07,0,0,1,3.23.6l-.37.4a2.48,2.48,0,0,0-.78-.51,2.36,2.36,0,0,0-.92-.16,2,2,0,0,0-.81.15,1.13,1.13,0,0,0-.47.37.75.75,0,0,0-.16.45v.19a.75.75,0,0,0,.28.56,2.52,2.52,0,0,0,.89.44l.82.26a3.17,3.17,0,0,1,1.15.62,1.32,1.32,0,0,1,.39,1v.23a1.45,1.45,0,0,1-.27.84,1.8,1.8,0,0,1-.78.61,3.35,3.35,0,0,1-3.39-.57Z"/><path d="M196.11,11.9v.43a2.6,2.6,0,0,1-.25,1.16,2,2,0,0,1-.69.81,1.76,1.76,0,0,1-1,.3,1.8,1.8,0,0,1-1.26-.48v2.17h-.67V9.72h.57l.05.58a1.77,1.77,0,0,1,1.45-.66,1.69,1.69,0,0,1,.95.28,2,2,0,0,1,.63.8A3.1,3.1,0,0,1,196.11,11.9Zm-.67,0a2,2,0,0,0-.32-1.25,1.09,1.09,0,0,0-.93-.45,1.49,1.49,0,0,0-.73.18,1.51,1.51,0,0,0-.55.52v2.69a1.6,1.6,0,0,0,1.17.5,1.22,1.22,0,0,0,1-.47,2,2,0,0,0,.36-1.25Z"/><path d="M197.79,12.32v0a1.86,1.86,0,0,0,.41,1.28,1.45,1.45,0,0,0,1.13.45A2.06,2.06,0,0,0,200,14a4.22,4.22,0,0,0,.62-.33l.26.43a2.9,2.9,0,0,1-.72.39,2.57,2.57,0,0,1-.87.15,2.26,2.26,0,0,1-1.15-.29,2,2,0,0,1-.75-.81,2.57,2.57,0,0,1-.25-1.16v-.47a2.63,2.63,0,0,1,.24-1.13,2,2,0,0,1,.71-.8,1.86,1.86,0,0,1,1.06-.3,1.76,1.76,0,0,1,1.42.6,2.43,2.43,0,0,1,.52,1.66,2.42,2.42,0,0,1,0,.42Zm0-.48h2.7v-.07a1.81,1.81,0,0,0-.34-1.17,1.19,1.19,0,0,0-1-.43,1.2,1.2,0,0,0-1,.45A1.93,1.93,0,0,0,197.79,11.84Z"/><path d="M202.07,12.31v-.39a2.44,2.44,0,0,1,.53-1.65,1.81,1.81,0,0,1,1.49-.63,2.09,2.09,0,0,1,.81.15,2.4,2.4,0,0,1,.68.44l-.34.38a1.93,1.93,0,0,0-.52-.32,1.66,1.66,0,0,0-.61-.11,1.21,1.21,0,0,0-1,.46,2,2,0,0,0-.36,1.26v.42a2,2,0,0,0,.36,1.28,1.16,1.16,0,0,0,1,.46,1.57,1.57,0,0,0,.6-.11,2.43,2.43,0,0,0,.54-.3l.3.43a2.72,2.72,0,0,1-.67.38,2.29,2.29,0,0,1-.78.14A1.83,1.83,0,0,1,202.6,14,2.5,2.5,0,0,1,202.07,12.31Z"/><path d="M210.37,9.75v4.74h-.56l-.06-.66a2,2,0,0,1-1.56.77,1.52,1.52,0,0,1-1.07-.39,1.36,1.36,0,0,1-.43-1V9.75h.67v3.39a.91.91,0,0,0,.25.69,1,1,0,0,0,.7.24,1.45,1.45,0,0,0,.78-.23,1.84,1.84,0,0,0,.62-.62V9.75Z"/><path d="M212.71,13.62a.48.48,0,0,0,.09.33.37.37,0,0,0,.29.1.86.86,0,0,0,.28,0l.09.48a1.41,1.41,0,0,1-.54.11.8.8,0,0,1-.87-.88V7.83h.66Z"/><path d="M218,11.23v3.26h-.55l0-.56a2,2,0,0,1-1.56.67,1.73,1.73,0,0,1-.76-.16,1.35,1.35,0,0,1-.56-.47,1.17,1.17,0,0,1-.21-.69V13a1.14,1.14,0,0,1,.52-1,2.33,2.33,0,0,1,1.4-.38h1.09v-.39a1,1,0,0,0-.26-.78,1.1,1.1,0,0,0-.8-.26,2.37,2.37,0,0,0-.72.1,3.59,3.59,0,0,0-.71.28l-.21-.45a3.26,3.26,0,0,1,1.69-.47,1.71,1.71,0,0,1,1.26.42A1.61,1.61,0,0,1,218,11.23Zm-.67,2.18V12.09h-1.05a1.66,1.66,0,0,0-1,.24.82.82,0,0,0-.33.7v.2a.76.76,0,0,0,.26.62,1.06,1.06,0,0,0,.71.23,1.77,1.77,0,0,0,.77-.17A1.52,1.52,0,0,0,217.3,13.41Z"/><path d="M222.09,9.75l-.11.63a1,1,0,0,0-.33,0,1.37,1.37,0,0,0-1.34,1.15v3h-.67V9.75h.51l.11.85a1.46,1.46,0,0,1,.55-.7,1.29,1.29,0,0,1,.76-.23A1.57,1.57,0,0,1,222.09,9.75Z"/><path d="M227.88,9.75l-.12.63a.89.89,0,0,0-.32,0,1.37,1.37,0,0,0-1.34,1.15v3h-.67V9.75h.51l.1.85a1.58,1.58,0,0,1,.55-.7,1.34,1.34,0,0,1,.77-.23A1.57,1.57,0,0,1,227.88,9.75Z"/><path d="M229.13,12.32v0a1.86,1.86,0,0,0,.41,1.28,1.43,1.43,0,0,0,1.13.45,2.06,2.06,0,0,0,.68-.11,4.22,4.22,0,0,0,.62-.33l.26.43a3.09,3.09,0,0,1-.72.39,2.58,2.58,0,0,1-.88.15,2.22,2.22,0,0,1-1.14-.29,2,2,0,0,1-.75-.81,2.57,2.57,0,0,1-.26-1.16v-.47a2.64,2.64,0,0,1,.25-1.13,2,2,0,0,1,.7-.8,1.91,1.91,0,0,1,1.07-.3,1.76,1.76,0,0,1,1.42.6,2.48,2.48,0,0,1,.51,1.66,2.56,2.56,0,0,1,0,.42Zm0-.48h2.7v-.07a1.76,1.76,0,0,0-.35-1.17,1.17,1.17,0,0,0-1-.43,1.2,1.2,0,0,0-1,.45A1.93,1.93,0,0,0,229.13,11.84Z"/><path d="M238.39,14.49a1.4,1.4,0,0,1-.53.11.8.8,0,0,1-.87-.88V8.34c-.63-.06-1-.09-1.22-.09a1.39,1.39,0,0,0-.87.23,1,1,0,0,0-.29.82v.45h1.3v.52h-1.3V14.5H234V10.27h-.66V9.75H234V9.34c0-1.08.58-1.62,1.75-1.62a11.88,11.88,0,0,1,1.32.11h.63v5.79a.48.48,0,0,0,.09.33.36.36,0,0,0,.28.1.92.92,0,0,0,.29,0Z"/><path d="M239.93,12.32v0a1.86,1.86,0,0,0,.41,1.28,1.43,1.43,0,0,0,1.13.45,2.06,2.06,0,0,0,.68-.11,4.22,4.22,0,0,0,.62-.33l.26.43a3.09,3.09,0,0,1-.72.39,2.58,2.58,0,0,1-.88.15,2.22,2.22,0,0,1-1.14-.29,2,2,0,0,1-.75-.81,2.57,2.57,0,0,1-.26-1.16v-.47a2.5,2.5,0,0,1,.25-1.13,1.94,1.94,0,0,1,.7-.8,1.89,1.89,0,0,1,1.07-.3,1.77,1.77,0,0,1,1.42.6,2.48,2.48,0,0,1,.51,1.66,2.56,2.56,0,0,1,0,.42Zm0-.48h2.7v-.07a1.76,1.76,0,0,0-.35-1.17,1.18,1.18,0,0,0-1-.43,1.2,1.2,0,0,0-1,.45A1.93,1.93,0,0,0,239.93,11.84Z"/><path d="M244.21,12.31v-.39a2.49,2.49,0,0,1,.52-1.65,1.84,1.84,0,0,1,1.5-.63,2.09,2.09,0,0,1,.81.15,2.4,2.4,0,0,1,.68.44l-.35.38a1.74,1.74,0,0,0-.51-.32,1.66,1.66,0,0,0-.61-.11,1.21,1.21,0,0,0-1,.46,2,2,0,0,0-.36,1.26v.42a2.09,2.09,0,0,0,.35,1.28,1.19,1.19,0,0,0,1,.46,1.64,1.64,0,0,0,.6-.11,2.17,2.17,0,0,0,.53-.3l.31.43a2.91,2.91,0,0,1-.67.38,2.29,2.29,0,0,1-.78.14,1.83,1.83,0,0,1-1.48-.63A2.45,2.45,0,0,1,244.21,12.31Z"/><path d="M251.16,14.49a2.69,2.69,0,0,1-.73.11,1.32,1.32,0,0,1-.91-.28,1.05,1.05,0,0,1-.31-.83V10.27h-.76V9.75h.78l.05-1.13h.6V9.75H251v.52h-1.14v3.2a.57.57,0,0,0,.17.45.73.73,0,0,0,.5.15,2.67,2.67,0,0,0,.53-.07Z"/><path d="M253.2,14.49h-.66V10.27h-.75V9.75h1.41Zm-.79-6.1a.41.41,0,0,1,.12-.3.45.45,0,0,1,.31-.12.41.41,0,0,1,.3.12.38.38,0,0,1,.13.3.42.42,0,0,1-.13.31.41.41,0,0,1-.3.12.41.41,0,0,1-.43-.43Z"/><path d="M258.82,11.87v.47a2.58,2.58,0,0,1-.25,1.17,1.8,1.8,0,0,1-.72.8,2.21,2.21,0,0,1-1.15.29,2,2,0,0,1-1.56-.62,2.38,2.38,0,0,1-.55-1.64v-.47a2.66,2.66,0,0,1,.24-1.15,1.84,1.84,0,0,1,.72-.79,2.18,2.18,0,0,1,1.15-.29,2.21,2.21,0,0,1,1.15.29,1.78,1.78,0,0,1,.72.79A2.52,2.52,0,0,1,258.82,11.87Zm-3.56,0v.47a2,2,0,0,0,.37,1.28,1.27,1.27,0,0,0,1.07.46,1.3,1.3,0,0,0,1.07-.46,1.92,1.92,0,0,0,.39-1.28v-.47a1.81,1.81,0,0,0-.39-1.23,1.32,1.32,0,0,0-1.07-.45,1.29,1.29,0,0,0-1.07.45A1.84,1.84,0,0,0,255.26,11.86Z"/><path d="M263.89,11.22v3.27h-.67V11.28a1.13,1.13,0,0,0-.26-.83,1,1,0,0,0-.74-.27,1.57,1.57,0,0,0-1.36.84v3.47h-.66V9.75h.57l.05.63a1.85,1.85,0,0,1,1.55-.74,1.53,1.53,0,0,1,1.1.41A1.58,1.58,0,0,1,263.89,11.22Z"/><path d="M269.77,16l-.39.36a6.91,6.91,0,0,1-1-1,3.51,3.51,0,0,1-.53-1.06,4.8,4.8,0,0,1-.16-1.33v-1.8a4.8,4.8,0,0,1,.16-1.33,3.46,3.46,0,0,1,.53-1.05,7.42,7.42,0,0,1,1-1.06l.39.36a7,7,0,0,0-.87,1,2.85,2.85,0,0,0-.43.92,4.71,4.71,0,0,0-.13,1.14V13a4.59,4.59,0,0,0,.13,1.14,3,3,0,0,0,.43.93A7.56,7.56,0,0,0,269.77,16Z"/><path d="M271,12.31v-.39a2.44,2.44,0,0,1,.53-1.65A1.84,1.84,0,0,1,273,9.64a2.09,2.09,0,0,1,.81.15,2.4,2.4,0,0,1,.68.44l-.34.38a1.78,1.78,0,0,0-.52-.32,1.66,1.66,0,0,0-.61-.11,1.19,1.19,0,0,0-1,.46,2,2,0,0,0-.37,1.26v.42A2,2,0,0,0,272,13.6a1.17,1.17,0,0,0,1,.46,1.57,1.57,0,0,0,.6-.11,2.43,2.43,0,0,0,.54-.3l.3.43a2.72,2.72,0,0,1-.67.38,2.28,2.28,0,0,1-.77.14,1.84,1.84,0,0,1-1.49-.63A2.5,2.5,0,0,1,271,12.31Z"/><path d="M279.51,11.87v.47a2.72,2.72,0,0,1-.24,1.17,1.88,1.88,0,0,1-.73.8,2.21,2.21,0,0,1-1.15.29,2,2,0,0,1-1.56-.62,2.38,2.38,0,0,1-.55-1.64v-.47a2.66,2.66,0,0,1,.24-1.15,1.9,1.9,0,0,1,.72-.79,2.43,2.43,0,0,1,2.3,0,1.86,1.86,0,0,1,.73.79A2.66,2.66,0,0,1,279.51,11.87Zm-3.56,0v.47a2,2,0,0,0,.37,1.28,1.27,1.27,0,0,0,1.07.46,1.3,1.3,0,0,0,1.07-.46,1.92,1.92,0,0,0,.39-1.28v-.47a1.81,1.81,0,0,0-.39-1.23,1.32,1.32,0,0,0-1.07-.45,1.29,1.29,0,0,0-1.07.45A1.84,1.84,0,0,0,276,11.86Z"/><path d="M284.13,11.23v3.26h-.55l-.05-.56a2,2,0,0,1-1.55.67,1.73,1.73,0,0,1-.76-.16,1.35,1.35,0,0,1-.56-.47,1.17,1.17,0,0,1-.21-.69V13a1.14,1.14,0,0,1,.52-1,2.31,2.31,0,0,1,1.39-.38h1.1v-.39a1,1,0,0,0-.26-.78,1.1,1.1,0,0,0-.8-.26,2.37,2.37,0,0,0-.72.1,3.59,3.59,0,0,0-.71.28l-.22-.45a3.33,3.33,0,0,1,1.7-.47,1.74,1.74,0,0,1,1.26.42A1.61,1.61,0,0,1,284.13,11.23Zm-.67,2.18V12.09h-1a1.66,1.66,0,0,0-1,.24.83.83,0,0,0-.34.7v.2a.77.77,0,0,0,.27.62,1.06,1.06,0,0,0,.71.23,1.77,1.77,0,0,0,.77-.17A1.68,1.68,0,0,0,283.46,13.41Z"/><path d="M288,14.49a2.75,2.75,0,0,1-.73.11,1.31,1.31,0,0,1-.91-.28,1.05,1.05,0,0,1-.31-.83V10.27h-.76V9.75h.77l.06-1.13h.59V9.75h1.15v.52h-1.15v3.2a.61.61,0,0,0,.17.45.78.78,0,0,0,.51.15,2.67,2.67,0,0,0,.53-.07Z"/><path d="M290,14.49h-.66V10.27h-.75V9.75H290Zm-.79-6.1a.41.41,0,0,1,.42-.42.45.45,0,0,1,.31.12.42.42,0,0,1,.13.3.46.46,0,0,1-.13.31.45.45,0,0,1-.31.12.41.41,0,0,1-.3-.12A.45.45,0,0,1,289.25,8.39Z"/><path d="M295.5,11.22v3.27h-.67V11.28a1.18,1.18,0,0,0-.26-.83,1,1,0,0,0-.74-.27,1.56,1.56,0,0,0-1.36.84v3.47h-.66V9.75h.56l.06.63A1.84,1.84,0,0,1,294,9.64a1.53,1.53,0,0,1,1.1.41A1.58,1.58,0,0,1,295.5,11.22Z"/><path d="M300.68,9.72v4.89a1.67,1.67,0,0,1-.52,1.31,2,2,0,0,1-1.39.48,3.06,3.06,0,0,1-1.64-.43l.24-.43a3.67,3.67,0,0,0,.64.25,3.11,3.11,0,0,0,.72.08,1.33,1.33,0,0,0,1-.33,1.24,1.24,0,0,0,.34-1v-.77a1.8,1.8,0,0,1-1.42.68,1.7,1.7,0,0,1-1.29-.54,2.37,2.37,0,0,1-.51-1.66v-.43a2.72,2.72,0,0,1,.26-1.23,1.78,1.78,0,0,1,.68-.75,1.9,1.9,0,0,1,.93-.24,1.76,1.76,0,0,1,1.38.62l.05-.54ZM300,13.21V10.85a1.45,1.45,0,0,0-.52-.5,1.42,1.42,0,0,0-.7-.17,1.2,1.2,0,0,0-.94.39,1.86,1.86,0,0,0-.37,1.28v.43a2,2,0,0,0,.33,1.28,1.09,1.09,0,0,0,.89.4,1.44,1.44,0,0,0,.74-.2A1.75,1.75,0,0,0,300,13.21Z"/><path d="M304.38,11.16V13a4.78,4.78,0,0,1-.17,1.33,3.51,3.51,0,0,1-.53,1.06,6.8,6.8,0,0,1-1,1l-.4-.36a7,7,0,0,0,.88-1,3.25,3.25,0,0,0,.43-.93,4.63,4.63,0,0,0,.12-1.14v-1.8a4.75,4.75,0,0,0-.12-1.14,3.08,3.08,0,0,0-.43-.92,6.55,6.55,0,0,0-.88-1l.4-.36a7.3,7.3,0,0,1,1,1.06,3.46,3.46,0,0,1,.53,1.05A4.78,4.78,0,0,1,304.38,11.16Z"/><path d="M71.66,53.62v2.23H74.2v.56H71.66v2.41h2.73v.55H71v-6.3h3.41v.55Z"/><path d="M82,56.07v3.3H81.3V56.13a1.12,1.12,0,0,0-.25-.81.81.81,0,0,0-.64-.27,1.38,1.38,0,0,0-1.19.85v3.47h-.67V56.08a1.11,1.11,0,0,0-.24-.77.83.83,0,0,0-.63-.26,1.39,1.39,0,0,0-1.2.85v3.47h-.66V54.63h.56l.06.62a1.59,1.59,0,0,1,1.37-.73,1.44,1.44,0,0,1,.77.21,1.26,1.26,0,0,1,.5.61,1.71,1.71,0,0,1,1.48-.82,1.44,1.44,0,0,1,.71.18,1.28,1.28,0,0,1,.5.53A1.74,1.74,0,0,1,82,56.07Z"/><path d="M84.45,59.37h-.67V55.15H83v-.52h1.42Zm-.8-6.1a.38.38,0,0,1,.13-.3.43.43,0,0,1,.6,0,.38.38,0,0,1,.13.3.42.42,0,0,1-.13.31.44.44,0,0,1-.6,0A.42.42,0,0,1,83.65,53.27Z"/><path d="M85.69,58.87l.34-.43a2.51,2.51,0,0,0,.65.38,2.13,2.13,0,0,0,.78.13,1.65,1.65,0,0,0,.85-.19.64.64,0,0,0,.3-.57v-.07a.65.65,0,0,0-.19-.5,2.16,2.16,0,0,0-.72-.35L87.07,57a2.43,2.43,0,0,1-.89-.48,1,1,0,0,1-.28-.7v-.15a1,1,0,0,1,.22-.61,1.42,1.42,0,0,1,.59-.43,2.24,2.24,0,0,1,.84-.15,2.77,2.77,0,0,1,.92.15,2.27,2.27,0,0,1,.76.43l-.33.39a2.85,2.85,0,0,0-.65-.33,2.17,2.17,0,0,0-.69-.1,1.32,1.32,0,0,0-.72.17.54.54,0,0,0-.27.47v.07a.56.56,0,0,0,.2.44,2.2,2.2,0,0,0,.71.35l.63.23a2.46,2.46,0,0,1,.88.48,1,1,0,0,1,.29.78v.15a1.09,1.09,0,0,1-.5.94,2.17,2.17,0,0,1-1.26.34A2.83,2.83,0,0,1,85.69,58.87Z"/><path d="M90.16,58.87l.34-.43a2.75,2.75,0,0,0,.66.38,2.13,2.13,0,0,0,.78.13,1.63,1.63,0,0,0,.84-.19.63.63,0,0,0,.31-.57v-.07a.65.65,0,0,0-.2-.5,2.16,2.16,0,0,0-.72-.35L91.54,57a2.37,2.37,0,0,1-.88-.48.91.91,0,0,1-.28-.7v-.15a1,1,0,0,1,.21-.61,1.48,1.48,0,0,1,.59-.43,2.24,2.24,0,0,1,.84-.15,2.77,2.77,0,0,1,.92.15,2.32,2.32,0,0,1,.77.43l-.34.39a2.66,2.66,0,0,0-.65-.33,2.09,2.09,0,0,0-.69-.1,1.37,1.37,0,0,0-.72.17.54.54,0,0,0-.27.47v.07a.56.56,0,0,0,.2.44,2.2,2.2,0,0,0,.71.35l.63.23a2.46,2.46,0,0,1,.88.48,1,1,0,0,1,.29.78v.15a1.07,1.07,0,0,1-.5.94,2.15,2.15,0,0,1-1.26.34A2.83,2.83,0,0,1,90.16,58.87Z"/><path d="M95.88,59.37h-.67V55.15h-.75v-.52h1.42Zm-.8-6.1a.38.38,0,0,1,.13-.3.43.43,0,0,1,.6,0,.38.38,0,0,1,.13.3.42.42,0,0,1-.13.31.43.43,0,0,1-.6,0A.42.42,0,0,1,95.08,53.27Z"/><path d="M101.49,56.75v.47a2.58,2.58,0,0,1-.25,1.17,1.8,1.8,0,0,1-.72.8,2.21,2.21,0,0,1-1.15.29,2,2,0,0,1-1.56-.62,2.36,2.36,0,0,1-.55-1.64v-.47a2.52,2.52,0,0,1,.25-1.15,1.87,1.87,0,0,1,.71-.79,2.43,2.43,0,0,1,2.3,0,1.83,1.83,0,0,1,.72.79A2.52,2.52,0,0,1,101.49,56.75Zm-3.56,0v.47a2,2,0,0,0,.37,1.28,1.27,1.27,0,0,0,1.07.46,1.3,1.3,0,0,0,1.07-.46,1.92,1.92,0,0,0,.39-1.28v-.47a1.81,1.81,0,0,0-.39-1.23,1.32,1.32,0,0,0-1.07-.45,1.29,1.29,0,0,0-1.07.45A1.84,1.84,0,0,0,97.93,56.74Z"/><path d="M106.56,56.1v3.27h-.67V56.16a1.13,1.13,0,0,0-.26-.83,1,1,0,0,0-.74-.27,1.57,1.57,0,0,0-1.36.84v3.47h-.66V54.63h.57l0,.63a1.85,1.85,0,0,1,1.55-.74,1.53,1.53,0,0,1,1.1.41A1.58,1.58,0,0,1,106.56,56.1Z"/><path class="cls-9" d="M70,70.43l3.61-7.19.47.21-3.63,7.2Z"/><path class="cls-9" d="M77.58,65.45,77,69.37h-.51l.09-.91a2,2,0,0,1-.67.77,1.53,1.53,0,0,1-.84.24,1.39,1.39,0,0,1-.67-.17,1.3,1.3,0,0,1-.47-.49,1.6,1.6,0,0,1-.17-.75,7.6,7.6,0,0,1,.09-.91,2.76,2.76,0,0,1,.7-1.55,1.88,1.88,0,0,1,1.4-.54,3.07,3.07,0,0,1,1,.13A2.8,2.8,0,0,1,77.58,65.45Zm-.62.27a1.88,1.88,0,0,0-.93-.2,1.33,1.33,0,0,0-1,.41,2.46,2.46,0,0,0-.5,1.24,5.49,5.49,0,0,0-.1.85,1,1,0,0,0,.24.72.78.78,0,0,0,.6.26,1.16,1.16,0,0,0,.86-.4,3,3,0,0,0,.63-1.12Z"/><path class="cls-9" d="M82.52,63.45l-.84,5.92H81.2l0-.82a1.7,1.7,0,0,1-1.47.92,1.18,1.18,0,0,1-1-.43,1.66,1.66,0,0,1-.36-1.12,7.35,7.35,0,0,1,.09-.87,2.57,2.57,0,0,1,.39-1.1,2,2,0,0,1,.68-.67,1.63,1.63,0,0,1,.82-.22,1.52,1.52,0,0,1,.69.15,1.5,1.5,0,0,1,.5.39l.3-2.15Zm-1.19,4.19.22-1.53a1,1,0,0,0-.41-.42,1.28,1.28,0,0,0-.63-.15,1.21,1.21,0,0,0-.89.39,2.08,2.08,0,0,0-.49,1.15,6.4,6.4,0,0,0-.08.84,1.26,1.26,0,0,0,.23.79.75.75,0,0,0,.61.29,1.19,1.19,0,0,0,.82-.36A2.63,2.63,0,0,0,81.33,67.64Z"/><path class="cls-9" d="M87.26,63.45l-.84,5.92h-.48l0-.82a1.68,1.68,0,0,1-1.46.92,1.18,1.18,0,0,1-1-.43,1.66,1.66,0,0,1-.36-1.12,7.35,7.35,0,0,1,.09-.87,2.7,2.7,0,0,1,.38-1.1,2.09,2.09,0,0,1,.69-.67,1.59,1.59,0,0,1,.81-.22,1.54,1.54,0,0,1,.7.15,1.61,1.61,0,0,1,.5.39l.3-2.15Zm-1.19,4.19.21-1.53a1,1,0,0,0-.41-.42,1.28,1.28,0,0,0-.63-.15,1.19,1.19,0,0,0-.88.39,2,2,0,0,0-.49,1.15,6.4,6.4,0,0,0-.08.84,1.2,1.2,0,0,0,.23.79.74.74,0,0,0,.61.29,1.15,1.15,0,0,0,.81-.36A2.53,2.53,0,0,0,86.07,67.64Z"/><path class="cls-9" d="M88.72,69.37h-.6l.53-3.75H88l.06-.46h1.26ZM88.79,64a.44.44,0,0,1,.11-.29.41.41,0,0,1,.3-.12.32.32,0,0,1,.25.1.3.3,0,0,1,.1.25.4.4,0,0,1-.12.29.41.41,0,0,1-.3.12.33.33,0,0,1-.25-.1A.35.35,0,0,1,88.79,64Z"/><path class="cls-9" d="M91.23,68.39a1.54,1.54,0,0,0,0,.19q0,.42.51.42a2.24,2.24,0,0,0,.51-.07v.44a1.81,1.81,0,0,1-.65.1c-.65,0-1-.26-1-.77a1.41,1.41,0,0,1,0-.28l.39-2.8h-.67l.06-.46h.68l.19-1h.54l-.15,1h1l-.06.46h-1Z"/><path class="cls-9" d="M94.05,69.37h-.59L94,65.62h-.67l.07-.46h1.25ZM94.12,64a.4.4,0,0,1,.12-.29.38.38,0,0,1,.29-.12.34.34,0,0,1,.26.1.33.33,0,0,1,.09.25.4.4,0,0,1-.12.29.38.38,0,0,1-.29.12.32.32,0,0,1-.25-.1A.36.36,0,0,1,94.12,64Z"/><path class="cls-9" d="M97.4,69.37h-.84l-.83-4.21h.59l.7,3.76,1.78-3.76h.61Z"/><path class="cls-9" d="M103.44,66.12a2.23,2.23,0,0,1,0,.36c-.05.43-.37.71-.93.86a8.39,8.39,0,0,1-2.13.23c0,.15,0,.23,0,.25A1,1,0,0,0,101.47,69a1.8,1.8,0,0,0,.62-.11,3.07,3.07,0,0,0,.57-.29l.21.39a2.3,2.3,0,0,1-.68.35,2.44,2.44,0,0,1-.8.13,1.61,1.61,0,0,1-1.24-.45,1.69,1.69,0,0,1-.42-1.2,7.2,7.2,0,0,1,.08-.76,2.55,2.55,0,0,1,.67-1.45,2,2,0,0,1,1.52-.55,1.87,1.87,0,0,1,.78.15,1.21,1.21,0,0,1,.49.39A.83.83,0,0,1,103.44,66.12Zm-.58,0a.49.49,0,0,0-.24-.44,1.17,1.17,0,0,0-.67-.16,1.39,1.39,0,0,0-1.07.41,2,2,0,0,0-.48,1.1.49.49,0,0,1,0,.11,7.77,7.77,0,0,0,1.73-.18c.43-.11.67-.31.71-.58A2.23,2.23,0,0,0,102.86,66.14Z"/><path class="cls-9" d="M103.25,70.43l3.62-7.19.46.21-3.62,7.2Z"/><path d="M121.32,53.5l.36-.42c.2.15.37.27.52.36a2.88,2.88,0,0,0,.55.21,3.37,3.37,0,0,0,.77.08,2.09,2.09,0,0,0,.88-.17,1.24,1.24,0,0,0,.52-.42.9.9,0,0,0,.17-.53v-.14a.86.86,0,0,0-.26-.68,2.3,2.3,0,0,0-.91-.46L123,51a2.62,2.62,0,0,1-1.11-.64,1.23,1.23,0,0,1-.34-.88v-.2a1.36,1.36,0,0,1,.23-.73,1.76,1.76,0,0,1,.72-.57,2.68,2.68,0,0,1,1.15-.22,2.79,2.79,0,0,1,2.07.82l-.36.39a2.54,2.54,0,0,0-.79-.5,2.31,2.31,0,0,0-.91-.16,2,2,0,0,0-.81.15,1.16,1.16,0,0,0-.48.37.76.76,0,0,0-.15.45v.19a.71.71,0,0,0,.28.56,2.52,2.52,0,0,0,.89.44l.82.26a3,3,0,0,1,1.14.61,1.33,1.33,0,0,1,.4,1v.22a1.46,1.46,0,0,1-.27.85,1.8,1.8,0,0,1-.78.61,3.34,3.34,0,0,1-3.4-.58Z"/><path d="M131.09,51.61V52a2.69,2.69,0,0,1-.25,1.15,2.07,2.07,0,0,1-.69.82,1.76,1.76,0,0,1-1,.3,1.84,1.84,0,0,1-1.26-.48V56h-.66V49.43h.56l.06.57a1.78,1.78,0,0,1,1.45-.65,1.58,1.58,0,0,1,.94.28,1.82,1.82,0,0,1,.63.8A2.89,2.89,0,0,1,131.09,51.61Zm-.67,0a2.1,2.1,0,0,0-.33-1.26,1.06,1.06,0,0,0-.92-.44,1.49,1.49,0,0,0-.73.18,1.54,1.54,0,0,0-.56.52v2.69a1.59,1.59,0,0,0,1.17.49,1.2,1.2,0,0,0,1-.46,1.94,1.94,0,0,0,.37-1.25Z"/><path d="M132.77,52v0a1.78,1.78,0,0,0,.41,1.27,1.42,1.42,0,0,0,1.13.45,1.75,1.75,0,0,0,.67-.11,2.74,2.74,0,0,0,.63-.33l.26.44a3.07,3.07,0,0,1-.72.38,2.59,2.59,0,0,1-.88.16,2.11,2.11,0,0,1-1.14-.3,1.87,1.87,0,0,1-.75-.8,2.57,2.57,0,0,1-.26-1.16v-.47a2.47,2.47,0,0,1,.25-1.13,1.86,1.86,0,0,1,1.77-1.1,1.8,1.8,0,0,1,1.42.59,2.51,2.51,0,0,1,.51,1.67c0,.17,0,.31,0,.42Zm0-.49h2.7v-.06a1.84,1.84,0,0,0-.35-1.18,1.2,1.2,0,0,0-1-.42,1.23,1.23,0,0,0-1,.44A2,2,0,0,0,132.77,51.54Z"/><path d="M137,52v-.4a2.49,2.49,0,0,1,.53-1.64,1.84,1.84,0,0,1,1.5-.63,2.29,2.29,0,0,1,.81.14,2.23,2.23,0,0,1,.68.45l-.35.38a1.78,1.78,0,0,0-.51-.33,1.66,1.66,0,0,0-.61-.1,1.21,1.21,0,0,0-1,.46,2,2,0,0,0-.36,1.26V52a2.11,2.11,0,0,0,.35,1.28,1.22,1.22,0,0,0,1,.46,1.64,1.64,0,0,0,.6-.11,2.43,2.43,0,0,0,.53-.31l.31.43a2.33,2.33,0,0,1-.67.38,2.08,2.08,0,0,1-.78.15,1.82,1.82,0,0,1-1.48-.63A2.47,2.47,0,0,1,137,52Z"/><path d="M145.35,49.45V54.2h-.57l-.05-.67a1.94,1.94,0,0,1-1.57.78,1.54,1.54,0,0,1-1.07-.4,1.34,1.34,0,0,1-.42-1V49.45h.67v3.4a.89.89,0,0,0,.25.68,1,1,0,0,0,.7.24,1.44,1.44,0,0,0,.78-.22,2,2,0,0,0,.62-.62V49.45Z"/><path d="M147.69,53.32a.51.51,0,0,0,.09.34.4.4,0,0,0,.29.1,1.26,1.26,0,0,0,.28,0l.09.48a1.49,1.49,0,0,1-.54.11.9.9,0,0,1-.64-.23.87.87,0,0,1-.23-.66V47.54h.66Z"/><path d="M153,50.94V54.2h-.55l-.05-.56a2,2,0,0,1-1.55.67,1.73,1.73,0,0,1-.76-.17,1.33,1.33,0,0,1-.56-.46,1.18,1.18,0,0,1-.21-.7v-.3a1.17,1.17,0,0,1,.51-1,2.37,2.37,0,0,1,1.4-.37h1.1v-.4a1.06,1.06,0,0,0-.26-.78,1.1,1.1,0,0,0-.8-.25,2.81,2.81,0,0,0-.73.09,4.63,4.63,0,0,0-.7.28l-.22-.45a3.28,3.28,0,0,1,1.69-.46,1.71,1.71,0,0,1,1.26.42A1.55,1.55,0,0,1,153,50.94Zm-.67,2.18V51.79h-1.05a1.64,1.64,0,0,0-1,.25.81.81,0,0,0-.34.7v.2a.75.75,0,0,0,.27.61,1,1,0,0,0,.7.23,1.81,1.81,0,0,0,.78-.16A1.68,1.68,0,0,0,152.28,53.12Z"/><path d="M157.07,49.45l-.12.63a1.33,1.33,0,0,0-.32,0,1.36,1.36,0,0,0-1.34,1.15v3h-.67V49.45h.51l.1.86a1.62,1.62,0,0,1,.55-.71,1.42,1.42,0,0,1,.77-.23A1.88,1.88,0,0,1,157.07,49.45Z"/><path d="M122.36,59.45l-.12.63a1.27,1.27,0,0,0-.32,0,1.36,1.36,0,0,0-1.34,1.15v3h-.67V59.45h.51l.11.86a1.53,1.53,0,0,1,.54-.71,1.42,1.42,0,0,1,.77-.23A1.88,1.88,0,0,1,122.36,59.45Z"/><path d="M123.61,62v0a1.83,1.83,0,0,0,.41,1.27,1.45,1.45,0,0,0,1.13.45,1.83,1.83,0,0,0,.68-.11,2.91,2.91,0,0,0,.62-.33l.26.44a2.88,2.88,0,0,1-.72.38,2.58,2.58,0,0,1-.87.16A2.17,2.17,0,0,1,124,64a1.87,1.87,0,0,1-.75-.8,2.57,2.57,0,0,1-.26-1.16v-.47a2.6,2.6,0,0,1,.25-1.13,2,2,0,0,1,.7-.81,2,2,0,0,1,1.07-.29,1.78,1.78,0,0,1,1.42.59,2.51,2.51,0,0,1,.52,1.67,2.42,2.42,0,0,1,0,.42Zm0-.49h2.7v-.06A1.84,1.84,0,0,0,126,60.3a1.37,1.37,0,0,0-2,0A2,2,0,0,0,123.61,61.54Z"/><path d="M132.87,64.2a1.4,1.4,0,0,1-.53.11.9.9,0,0,1-.64-.23.91.91,0,0,1-.23-.66V58.05c-.62-.07-1-.1-1.22-.1a1.33,1.33,0,0,0-.87.24,1,1,0,0,0-.29.81v.45h1.3V60h-1.3v4.23h-.66V60h-.66v-.53h.66v-.4c0-1.08.58-1.62,1.75-1.62a12.21,12.21,0,0,1,1.33.11h.63v5.78a.51.51,0,0,0,.09.34.37.37,0,0,0,.27.1,1.27,1.27,0,0,0,.29,0Z"/><path d="M134.41,62v0a1.83,1.83,0,0,0,.41,1.27,1.45,1.45,0,0,0,1.13.45,1.83,1.83,0,0,0,.68-.11,2.91,2.91,0,0,0,.62-.33l.26.44a2.88,2.88,0,0,1-.72.38,2.58,2.58,0,0,1-.87.16,2.17,2.17,0,0,1-1.15-.3,1.87,1.87,0,0,1-.75-.8,2.57,2.57,0,0,1-.26-1.16v-.47a2.6,2.6,0,0,1,.25-1.13,2,2,0,0,1,.7-.81,2,2,0,0,1,1.07-.29,1.78,1.78,0,0,1,1.42.59,2.51,2.51,0,0,1,.52,1.67,2.42,2.42,0,0,1,0,.42Zm0-.49h2.7v-.06a1.84,1.84,0,0,0-.34-1.18,1.37,1.37,0,0,0-2,0A2,2,0,0,0,134.41,61.54Z"/><path d="M138.69,62v-.4a2.48,2.48,0,0,1,.52-1.64,1.86,1.86,0,0,1,1.5-.63,2.29,2.29,0,0,1,.81.14,2.23,2.23,0,0,1,.68.45l-.34.38a2,2,0,0,0-.52-.33,1.66,1.66,0,0,0-.61-.1,1.21,1.21,0,0,0-1,.46,2,2,0,0,0-.36,1.26V62a2.11,2.11,0,0,0,.35,1.28,1.22,1.22,0,0,0,1,.46,1.64,1.64,0,0,0,.6-.11,2.49,2.49,0,0,0,.54-.31l.3.43a2.33,2.33,0,0,1-.67.38,2.08,2.08,0,0,1-.78.15,1.83,1.83,0,0,1-1.48-.63A2.47,2.47,0,0,1,138.69,62Z"/><path d="M145.64,64.2a2.68,2.68,0,0,1-.72.11A1.36,1.36,0,0,1,144,64a1.07,1.07,0,0,1-.32-.83V60h-.75v-.53h.77l0-1.12h.6v1.12h1.14V60h-1.14v3.19a.55.55,0,0,0,.17.45.73.73,0,0,0,.5.15,2.09,2.09,0,0,0,.53-.07Z"/><path d="M147.69,64.2H147V60h-.75v-.53h1.42Zm-.79-6.1a.43.43,0,0,1,.12-.31.43.43,0,0,1,.6,0,.4.4,0,0,1,.13.31.42.42,0,0,1-.73.3A.41.41,0,0,1,146.9,58.1Z"/><path d="M153.3,61.58v.47a2.78,2.78,0,0,1-.24,1.17,1.88,1.88,0,0,1-.73.8,2.21,2.21,0,0,1-1.15.29,2,2,0,0,1-1.56-.63,2.4,2.4,0,0,1-.55-1.63v-.47a2.5,2.5,0,0,1,.25-1.15,1.9,1.9,0,0,1,.71-.8,2.5,2.5,0,0,1,2.3,0,1.94,1.94,0,0,1,.73.8A2.63,2.63,0,0,1,153.3,61.58Zm-3.56,0V62a2,2,0,0,0,.37,1.28,1.29,1.29,0,0,0,1.07.45,1.32,1.32,0,0,0,1.07-.45,1.94,1.94,0,0,0,.39-1.28v-.47a1.81,1.81,0,0,0-.39-1.23,1.32,1.32,0,0,0-1.07-.45,1.29,1.29,0,0,0-1.07.44A1.87,1.87,0,0,0,149.74,61.57Z"/><path d="M158.37,60.93V64.2h-.67V61a1.11,1.11,0,0,0-.26-.82,1,1,0,0,0-.73-.27,1.54,1.54,0,0,0-1.36.83V64.2h-.67V59.45h.57l.05.63a1.84,1.84,0,0,1,1.55-.73,1.47,1.47,0,0,1,1.1.41A1.58,1.58,0,0,1,158.37,60.93Z"/><path d="M126.55,75.75l-.4.36a6.78,6.78,0,0,1-1-1.06,3.2,3.2,0,0,1-.53-1.06,4.32,4.32,0,0,1-.17-1.32v-1.8a4.39,4.39,0,0,1,.17-1.33,3.2,3.2,0,0,1,.53-1.06,6.35,6.35,0,0,1,1-1l.4.36a6.54,6.54,0,0,0-.88,1,3.33,3.33,0,0,0-.43.92,4.78,4.78,0,0,0-.12,1.15v1.8a4.75,4.75,0,0,0,.12,1.14,3.08,3.08,0,0,0,.43.92A6.55,6.55,0,0,0,126.55,75.75Z"/><path d="M134.29,70.89V74.2h-.67V71a1.2,1.2,0,0,0-.24-.82.85.85,0,0,0-.64-.26,1.39,1.39,0,0,0-1.2.84V74.2h-.66V70.9a1.08,1.08,0,0,0-.24-.76.8.8,0,0,0-.64-.26,1.37,1.37,0,0,0-1.19.84V74.2h-.67V69.45h.57l0,.63a1.62,1.62,0,0,1,1.38-.73,1.43,1.43,0,0,1,.76.21,1.25,1.25,0,0,1,.51.6,1.7,1.7,0,0,1,1.47-.81,1.41,1.41,0,0,1,.71.18,1.31,1.31,0,0,1,.51.53A1.78,1.78,0,0,1,134.29,70.89Z"/><path d="M136.23,72v0a1.83,1.83,0,0,0,.41,1.27,1.43,1.43,0,0,0,1.13.45,1.75,1.75,0,0,0,.67-.11,2.74,2.74,0,0,0,.63-.33l.26.44a3.07,3.07,0,0,1-.72.38,2.59,2.59,0,0,1-.88.16,2.13,2.13,0,0,1-1.14-.3,1.87,1.87,0,0,1-.75-.8,2.57,2.57,0,0,1-.26-1.16v-.47a2.47,2.47,0,0,1,.25-1.13,1.86,1.86,0,0,1,1.77-1.1,1.8,1.8,0,0,1,1.42.59,2.51,2.51,0,0,1,.51,1.67c0,.17,0,.31,0,.42Zm0-.49h2.7v-.06a1.79,1.79,0,0,0-.35-1.18,1.2,1.2,0,0,0-1-.42,1.23,1.23,0,0,0-1,.44A2,2,0,0,0,136.23,71.54Z"/><path d="M143.08,74.2a2.75,2.75,0,0,1-.73.11,1.36,1.36,0,0,1-.91-.28,1.06,1.06,0,0,1-.31-.83V70h-.76v-.53h.77l.06-1.12h.59v1.12h1.15V70h-1.15v3.19a.58.58,0,0,0,.17.45.78.78,0,0,0,.51.15,2.09,2.09,0,0,0,.53-.07Z"/><path d="M147.55,70.94V74.2H147l0-.56a2,2,0,0,1-1.56.67,1.73,1.73,0,0,1-.76-.17,1.33,1.33,0,0,1-.56-.46,1.18,1.18,0,0,1-.21-.7v-.3a1.16,1.16,0,0,1,.52-1,2.33,2.33,0,0,1,1.4-.37h1.1v-.4a1.06,1.06,0,0,0-.26-.78,1.14,1.14,0,0,0-.81-.25,2.73,2.73,0,0,0-.72.09,4.71,4.71,0,0,0-.71.28l-.21-.45a3.25,3.25,0,0,1,1.69-.46,1.71,1.71,0,0,1,1.26.42A1.58,1.58,0,0,1,147.55,70.94Zm-.66,2.18V71.79h-1.06a1.66,1.66,0,0,0-1,.25.81.81,0,0,0-.33.7v.2a.77.77,0,0,0,.26.61,1,1,0,0,0,.71.23,1.77,1.77,0,0,0,.77-.16A1.63,1.63,0,0,0,146.89,73.12Z"/><path d="M149.8,73.32a.51.51,0,0,0,.09.34.4.4,0,0,0,.29.1,1.26,1.26,0,0,0,.28,0l.09.48a1.49,1.49,0,0,1-.54.11.9.9,0,0,1-.64-.23.87.87,0,0,1-.23-.66V67.54h.66Z"/><path d="M153.74,70.87v1.8a4.68,4.68,0,0,1-.16,1.32,3.4,3.4,0,0,1-.53,1.06,7.42,7.42,0,0,1-1,1.06l-.39-.36a7,7,0,0,0,.87-1,2.66,2.66,0,0,0,.43-.92,4.26,4.26,0,0,0,.13-1.14v-1.8a4.29,4.29,0,0,0-.13-1.15,2.84,2.84,0,0,0-.43-.92,7,7,0,0,0-.87-1l.39-.36a6.91,6.91,0,0,1,1,1,3.4,3.4,0,0,1,.53,1.06A4.75,4.75,0,0,1,153.74,70.87Z"/><path d="M257,39.05l.36-.42a4.31,4.31,0,0,0,.52.35,1.9,1.9,0,0,0,.54.21,2.91,2.91,0,0,0,.77.09,2.09,2.09,0,0,0,.88-.17,1.27,1.27,0,0,0,.53-.42,1,1,0,0,0,.17-.53V38a.9.9,0,0,0-.26-.69,2.8,2.8,0,0,0-.91-.46l-.9-.29a2.71,2.71,0,0,1-1.12-.64,1.25,1.25,0,0,1-.34-.89v-.19a1.25,1.25,0,0,1,.24-.73,1.64,1.64,0,0,1,.71-.57,2.73,2.73,0,0,1,1.16-.22,2.84,2.84,0,0,1,2.07.81l-.36.4a3.1,3.1,0,0,0-.79-.51,2.56,2.56,0,0,0-.92-.16,1.87,1.87,0,0,0-.8.15,1.18,1.18,0,0,0-.48.37.81.81,0,0,0-.15.46v.19a.71.71,0,0,0,.27.55,2.34,2.34,0,0,0,.9.44l.81.27a3,3,0,0,1,1.15.61,1.33,1.33,0,0,1,.39,1v.23a1.43,1.43,0,0,1-.27.84,1.81,1.81,0,0,1-.78.62,2.92,2.92,0,0,1-1.2.22A3,3,0,0,1,257,39.05Z"/><path d="M266.77,37.15v.43a2.6,2.6,0,0,1-.25,1.16,1.83,1.83,0,0,1-.69.81,1.76,1.76,0,0,1-1,.3,1.8,1.8,0,0,1-1.26-.48v2.17h-.67V35h.57l0,.58a1.77,1.77,0,0,1,1.45-.66,1.62,1.62,0,0,1,.95.29,1.85,1.85,0,0,1,.63.79A2.92,2.92,0,0,1,266.77,37.15Zm-.66,0a2.06,2.06,0,0,0-.33-1.25,1.08,1.08,0,0,0-.92-.45,1.5,1.5,0,0,0-.74.18,1.6,1.6,0,0,0-.55.52v2.7a1.59,1.59,0,0,0,1.17.49,1.21,1.21,0,0,0,1-.46,2,2,0,0,0,.37-1.26Z"/><path d="M268.45,37.57v0a1.86,1.86,0,0,0,.41,1.28,1.45,1.45,0,0,0,1.13.45,2,2,0,0,0,.68-.11,3.77,3.77,0,0,0,.62-.33l.26.43a2.47,2.47,0,0,1-.72.39,2.57,2.57,0,0,1-.87.15,2.26,2.26,0,0,1-1.15-.29,1.89,1.89,0,0,1-.75-.81,2.57,2.57,0,0,1-.25-1.16v-.47a2.56,2.56,0,0,1,.24-1.12,2,2,0,0,1,.71-.81,1.86,1.86,0,0,1,1.06-.3,1.76,1.76,0,0,1,1.42.6,2.43,2.43,0,0,1,.52,1.66,2.26,2.26,0,0,1,0,.42Zm0-.48h2.7V37a1.84,1.84,0,0,0-.34-1.18,1.35,1.35,0,0,0-2,0A2,2,0,0,0,268.45,37.09Z"/><path d="M272.73,37.57v-.4a2.44,2.44,0,0,1,.53-1.65,1.84,1.84,0,0,1,1.49-.63,2.09,2.09,0,0,1,.81.15,2.23,2.23,0,0,1,.68.45l-.34.37a1.78,1.78,0,0,0-.52-.32,1.66,1.66,0,0,0-.61-.11,1.22,1.22,0,0,0-1,.46,2,2,0,0,0-.36,1.26v.42a2,2,0,0,0,.35,1.28,1.17,1.17,0,0,0,1,.46,1.4,1.4,0,0,0,.6-.11,2.43,2.43,0,0,0,.54-.3l.3.43a2.43,2.43,0,0,1-.67.38,2.23,2.23,0,0,1-.77.14,1.84,1.84,0,0,1-1.49-.63A2.49,2.49,0,0,1,272.73,37.57Z"/><path d="M281,35v4.74h-.57l-.05-.66a2,2,0,0,1-1.57.77,1.52,1.52,0,0,1-1.07-.39,1.36,1.36,0,0,1-.42-1V35H278v3.39a.94.94,0,0,0,.25.69,1,1,0,0,0,.71.24,1.43,1.43,0,0,0,.77-.22,1.87,1.87,0,0,0,.62-.63V35Z"/><path d="M283.38,38.87a.47.47,0,0,0,.09.33.34.34,0,0,0,.28.1,1.27,1.27,0,0,0,.28,0l.09.47a1.24,1.24,0,0,1-.54.11.85.85,0,0,1-.64-.23.89.89,0,0,1-.23-.65V33.08h.67Z"/><path d="M288.63,36.49v3.25h-.55l0-.55a2,2,0,0,1-1.56.66,1.73,1.73,0,0,1-.76-.16,1.41,1.41,0,0,1-.56-.46,1.2,1.2,0,0,1-.21-.7v-.3a1.16,1.16,0,0,1,.52-1,2.33,2.33,0,0,1,1.4-.38H288v-.39a1.06,1.06,0,0,0-.26-.78,1.14,1.14,0,0,0-.81-.26,2.37,2.37,0,0,0-.72.1,3.84,3.84,0,0,0-.71.28l-.21-.45a3.26,3.26,0,0,1,1.69-.47,1.67,1.67,0,0,1,1.26.43A1.58,1.58,0,0,1,288.63,36.49ZM288,38.66V37.34h-1.06a1.66,1.66,0,0,0-1,.24.84.84,0,0,0-.33.71v.19a.79.79,0,0,0,.26.62,1.08,1.08,0,0,0,.71.23,1.77,1.77,0,0,0,.77-.17A1.54,1.54,0,0,0,288,38.66Z"/><path d="M292.75,35l-.11.63a1.34,1.34,0,0,0-.33,0c-.66,0-1.1.39-1.34,1.16v3h-.66V35h.5l.11.86a1.44,1.44,0,0,1,.55-.71,1.38,1.38,0,0,1,.76-.23A1.82,1.82,0,0,1,292.75,35Z"/><path d="M298.54,35l-.12.63a1.19,1.19,0,0,0-.32,0,1.37,1.37,0,0,0-1.34,1.16v3h-.67V35h.51l.11.86a1.48,1.48,0,0,1,.54-.71,1.42,1.42,0,0,1,.77-.23A1.88,1.88,0,0,1,298.54,35Z"/><path d="M299.79,37.57v0a1.86,1.86,0,0,0,.41,1.28,1.45,1.45,0,0,0,1.13.45,2.06,2.06,0,0,0,.68-.11,4.22,4.22,0,0,0,.62-.33l.26.43a2.76,2.76,0,0,1-.72.39,2.57,2.57,0,0,1-.87.15,2.26,2.26,0,0,1-1.15-.29,1.89,1.89,0,0,1-.75-.81,2.57,2.57,0,0,1-.26-1.16v-.47a2.56,2.56,0,0,1,.25-1.12,2,2,0,0,1,.7-.81,1.91,1.91,0,0,1,1.07-.3,1.76,1.76,0,0,1,1.42.6,2.48,2.48,0,0,1,.52,1.66,2.26,2.26,0,0,1,0,.42Zm0-.48h2.7V37a1.84,1.84,0,0,0-.34-1.18,1.23,1.23,0,0,0-1-.43,1.2,1.2,0,0,0-1,.45A2,2,0,0,0,299.79,37.09Z"/><path d="M309.05,39.74a1.23,1.23,0,0,1-.53.11.85.85,0,0,1-.64-.23.89.89,0,0,1-.23-.65V33.6c-.63-.07-1-.1-1.22-.1a1.33,1.33,0,0,0-.87.24,1,1,0,0,0-.29.81V35h1.3v.52h-1.3v4.23h-.66V35.52H304V35h.66v-.4c0-1.08.58-1.62,1.75-1.62a11.69,11.69,0,0,1,1.33.1h.63v5.79a.47.47,0,0,0,.09.33.33.33,0,0,0,.27.1,1.29,1.29,0,0,0,.29,0Z"/><path d="M310.59,37.57v0a1.86,1.86,0,0,0,.41,1.28,1.45,1.45,0,0,0,1.13.45,2.06,2.06,0,0,0,.68-.11,4.22,4.22,0,0,0,.62-.33l.26.43a2.76,2.76,0,0,1-.72.39,2.57,2.57,0,0,1-.87.15,2.23,2.23,0,0,1-1.15-.29,1.89,1.89,0,0,1-.75-.81,2.57,2.57,0,0,1-.26-1.16v-.47a2.56,2.56,0,0,1,.25-1.12,2,2,0,0,1,.7-.81,1.91,1.91,0,0,1,1.07-.3,1.76,1.76,0,0,1,1.42.6,2.48,2.48,0,0,1,.52,1.66,2.26,2.26,0,0,1,0,.42Zm0-.48h2.7V37a1.84,1.84,0,0,0-.34-1.18,1.23,1.23,0,0,0-1-.43,1.2,1.2,0,0,0-1,.45A2,2,0,0,0,310.59,37.09Z"/><path d="M314.87,37.57v-.4a2.49,2.49,0,0,1,.52-1.65,1.84,1.84,0,0,1,1.5-.63,2.09,2.09,0,0,1,.81.15,2.23,2.23,0,0,1,.68.45l-.35.37a1.74,1.74,0,0,0-.51-.32,1.66,1.66,0,0,0-.61-.11,1.24,1.24,0,0,0-1,.46,2,2,0,0,0-.36,1.26v.42a2.07,2.07,0,0,0,.35,1.28,1.19,1.19,0,0,0,1,.46,1.46,1.46,0,0,0,.6-.11,2.43,2.43,0,0,0,.54-.3l.3.43a2.59,2.59,0,0,1-.67.38,2.29,2.29,0,0,1-.78.14,1.83,1.83,0,0,1-1.48-.63A2.44,2.44,0,0,1,314.87,37.57Z"/><path d="M321.82,39.74a2.34,2.34,0,0,1-.72.11,1.31,1.31,0,0,1-.91-.28,1,1,0,0,1-.32-.83V35.52h-.76V35h.78l.05-1.12h.6V35h1.14v.52h-1.14v3.2a.55.55,0,0,0,.17.45.73.73,0,0,0,.5.15,2.09,2.09,0,0,0,.53-.07Z"/><path d="M323.87,39.74h-.67V35.52h-.75V35h1.42Zm-.8-6.1a.38.38,0,0,1,.13-.3.43.43,0,0,1,.6,0,.38.38,0,0,1,.13.3.42.42,0,0,1-.13.31.43.43,0,0,1-.6,0A.42.42,0,0,1,323.07,33.64Z"/><path d="M329.48,37.12v.47a2.72,2.72,0,0,1-.24,1.17,1.88,1.88,0,0,1-.73.8,2.11,2.11,0,0,1-1.15.29,2,2,0,0,1-1.56-.62,2.41,2.41,0,0,1-.55-1.64v-.47A2.52,2.52,0,0,1,325.5,36a1.87,1.87,0,0,1,.71-.79,2.43,2.43,0,0,1,2.3,0,1.92,1.92,0,0,1,.73.79A2.66,2.66,0,0,1,329.48,37.12Zm-3.56,0v.46a2,2,0,0,0,.37,1.28,1.27,1.27,0,0,0,1.07.46,1.3,1.3,0,0,0,1.07-.46,1.9,1.9,0,0,0,.39-1.28v-.46a1.82,1.82,0,0,0-.39-1.24,1.32,1.32,0,0,0-1.07-.45,1.29,1.29,0,0,0-1.07.45A1.87,1.87,0,0,0,325.92,37.12Z"/><path d="M334.55,36.48v3.26h-.67V36.53a1.13,1.13,0,0,0-.26-.83,1,1,0,0,0-.73-.27,1.55,1.55,0,0,0-1.36.84v3.47h-.67V35h.57l.05.63a1.85,1.85,0,0,1,1.55-.74,1.49,1.49,0,0,1,1.1.42A1.55,1.55,0,0,1,334.55,36.48Z"/><path d="M179.76,71.69l.36-.43c.2.15.37.27.52.36a1.9,1.9,0,0,0,.54.21,3.44,3.44,0,0,0,.77.08,2.1,2.1,0,0,0,.88-.16,1.37,1.37,0,0,0,.53-.43,1,1,0,0,0,.17-.52v-.15a.9.9,0,0,0-.26-.68,2.61,2.61,0,0,0-.91-.46l-.9-.3a2.6,2.6,0,0,1-1.12-.63,1.27,1.27,0,0,1-.34-.89v-.2a1.3,1.3,0,0,1,.24-.73,1.79,1.79,0,0,1,.71-.57,2.89,2.89,0,0,1,1.16-.22,2.84,2.84,0,0,1,2.07.82l-.36.4a2.64,2.64,0,0,0-.79-.51,2.36,2.36,0,0,0-.92-.16,1.87,1.87,0,0,0-.8.15,1.1,1.1,0,0,0-.48.37.81.81,0,0,0-.15.45v.19a.73.73,0,0,0,.27.56,2.5,2.5,0,0,0,.9.44l.81.26a3.17,3.17,0,0,1,1.15.61,1.36,1.36,0,0,1,.39,1v.22a1.46,1.46,0,0,1-.27.85,1.8,1.8,0,0,1-.78.61,2.92,2.92,0,0,1-1.2.23A3,3,0,0,1,179.76,71.69Z"/><path d="M189.52,69.79v.43a2.6,2.6,0,0,1-.25,1.16,2,2,0,0,1-.69.81,1.76,1.76,0,0,1-1,.3,1.8,1.8,0,0,1-1.26-.48v2.17h-.67V67.61h.57l.05.58a1.77,1.77,0,0,1,1.45-.66,1.61,1.61,0,0,1,.95.28,1.88,1.88,0,0,1,.63.8A2.89,2.89,0,0,1,189.52,69.79Zm-.66,0a2.1,2.1,0,0,0-.33-1.26,1.1,1.1,0,0,0-.92-.44,1.48,1.48,0,0,0-1.29.7v2.69a1.6,1.6,0,0,0,1.17.5,1.22,1.22,0,0,0,1-.47,2,2,0,0,0,.37-1.25Z"/><path d="M191.2,70.21v0a1.86,1.86,0,0,0,.41,1.28,1.45,1.45,0,0,0,1.13.45,1.79,1.79,0,0,0,.68-.12,3.06,3.06,0,0,0,.62-.32l.26.43a2.72,2.72,0,0,1-.72.38,2.35,2.35,0,0,1-.87.16,2.26,2.26,0,0,1-1.15-.29,2,2,0,0,1-.75-.81,2.57,2.57,0,0,1-.25-1.16v-.47a2.63,2.63,0,0,1,.24-1.13,1.9,1.9,0,0,1,.71-.8,1.86,1.86,0,0,1,1.06-.3,1.76,1.76,0,0,1,1.42.6,2.92,2.92,0,0,1,.49,2.08Zm0-.48h2.7v-.07a1.79,1.79,0,0,0-.34-1.17,1.19,1.19,0,0,0-1-.43,1.22,1.22,0,0,0-1,.45A1.93,1.93,0,0,0,191.2,69.73Z"/><path d="M195.48,70.2v-.39a2.44,2.44,0,0,1,.53-1.65,1.84,1.84,0,0,1,1.49-.63,2.09,2.09,0,0,1,.81.15,2.2,2.2,0,0,1,.68.44l-.34.38a1.78,1.78,0,0,0-.52-.32,1.48,1.48,0,0,0-.61-.11,1.19,1.19,0,0,0-1,.46,2,2,0,0,0-.36,1.26v.42a2,2,0,0,0,.35,1.28,1.2,1.2,0,0,0,1,.46,1.57,1.57,0,0,0,.6-.11,2.14,2.14,0,0,0,.54-.31l.3.44a2.41,2.41,0,0,1-.67.37,2,2,0,0,1-.77.15,1.84,1.84,0,0,1-1.49-.63A2.5,2.5,0,0,1,195.48,70.2Z"/><path d="M203.79,67.64v4.74h-.57l-.05-.67a2,2,0,0,1-1.57.78,1.52,1.52,0,0,1-1.07-.39,1.36,1.36,0,0,1-.42-1V67.64h.66V71a.93.93,0,0,0,.25.68,1,1,0,0,0,.71.25,1.44,1.44,0,0,0,.77-.23,1.93,1.93,0,0,0,.62-.62V67.64Z"/><path d="M206.13,71.51a.5.5,0,0,0,.09.33.34.34,0,0,0,.28.1.86.86,0,0,0,.28,0l.09.48a1.41,1.41,0,0,1-.54.11.8.8,0,0,1-.87-.88V65.72h.67Z"/><path d="M211.38,69.12v3.26h-.55l0-.56a2,2,0,0,1-1.56.67,1.88,1.88,0,0,1-.76-.16,1.43,1.43,0,0,1-.56-.47,1.18,1.18,0,0,1-.21-.7v-.29a1.16,1.16,0,0,1,.52-1,2.33,2.33,0,0,1,1.4-.37h1.1v-.4a1.05,1.05,0,0,0-.26-.77,1.1,1.1,0,0,0-.81-.26,2.73,2.73,0,0,0-.72.09,4.84,4.84,0,0,0-.71.29L208,68a3.17,3.17,0,0,1,1.69-.47A1.71,1.71,0,0,1,211,68,1.58,1.58,0,0,1,211.38,69.12Zm-.66,2.18V70h-1.06a1.66,1.66,0,0,0-1,.24.82.82,0,0,0-.33.7v.2a.81.81,0,0,0,.26.62,1.08,1.08,0,0,0,.71.23,1.77,1.77,0,0,0,.77-.17A1.63,1.63,0,0,0,210.72,71.3Z"/><path d="M215.5,67.64l-.11.63a1,1,0,0,0-.33,0c-.66,0-1.1.38-1.34,1.15v3h-.66V67.64h.5l.11.85a1.41,1.41,0,0,1,.55-.7,1.31,1.31,0,0,1,.76-.23A1.53,1.53,0,0,1,215.5,67.64Z"/><path d="M171.73,82.38a2.75,2.75,0,0,1-.73.11,1.36,1.36,0,0,1-.91-.28,1.05,1.05,0,0,1-.31-.83V78.16H169v-.52h.77l.06-1.13h.59v1.13h1.14v.52h-1.14v3.19a.58.58,0,0,0,.17.45.73.73,0,0,0,.51.16,2.13,2.13,0,0,0,.53-.08Z"/><path d="M175.41,77.64l-.12.63a.92.92,0,0,0-.32,0,1.36,1.36,0,0,0-1.34,1.15v3H173V77.64h.51l.1.85a1.53,1.53,0,0,1,.55-.7,1.34,1.34,0,0,1,.77-.23A1.61,1.61,0,0,1,175.41,77.64Z"/><path d="M179.54,79.12v3.26H179l0-.56a2,2,0,0,1-1.56.67,1.88,1.88,0,0,1-.76-.16,1.43,1.43,0,0,1-.56-.47,1.18,1.18,0,0,1-.21-.7v-.29a1.16,1.16,0,0,1,.52-1,2.33,2.33,0,0,1,1.4-.37h1.09v-.4a1,1,0,0,0-.26-.77,1.06,1.06,0,0,0-.8-.26,2.73,2.73,0,0,0-.72.09,4.43,4.43,0,0,0-.71.29l-.21-.45a3.17,3.17,0,0,1,1.69-.47,1.71,1.71,0,0,1,1.26.42A1.58,1.58,0,0,1,179.54,79.12Zm-.67,2.18V80h-1.05a1.66,1.66,0,0,0-1,.24.82.82,0,0,0-.33.7v.2a.77.77,0,0,0,.26.62,1.06,1.06,0,0,0,.71.23,1.77,1.77,0,0,0,.77-.17A1.52,1.52,0,0,0,178.87,81.3Z"/><path d="M184.9,79.11v3.27h-.66V79.17a1.16,1.16,0,0,0-.26-.83,1,1,0,0,0-.74-.27,1.56,1.56,0,0,0-1.36.84v3.47h-.67V77.64h.57l.06.63a1.81,1.81,0,0,1,1.54-.74,1.53,1.53,0,0,1,1.11.41A1.58,1.58,0,0,1,184.9,79.11Z"/><path d="M186.06,81.88l.34-.44a2.29,2.29,0,0,0,.65.39,2.36,2.36,0,0,0,.78.13,1.55,1.55,0,0,0,.85-.2.62.62,0,0,0,.3-.56v-.07a.63.63,0,0,0-.19-.5,2.11,2.11,0,0,0-.73-.36l-.63-.22a2.46,2.46,0,0,1-.88-.48,1,1,0,0,1-.28-.7v-.15a1,1,0,0,1,.21-.62,1.44,1.44,0,0,1,.59-.42,2.34,2.34,0,0,1,.85-.15,2.82,2.82,0,0,1,.92.15,2.44,2.44,0,0,1,.76.42l-.33.4a2.34,2.34,0,0,0-.65-.33,2.17,2.17,0,0,0-.69-.1,1.38,1.38,0,0,0-.73.17.54.54,0,0,0-.26.47v.07a.53.53,0,0,0,.2.44,2.42,2.42,0,0,0,.71.35l.63.23a2.39,2.39,0,0,1,.88.48,1,1,0,0,1,.29.78v.15a1.09,1.09,0,0,1-.5.94,2.26,2.26,0,0,1-1.27.34A2.87,2.87,0,0,1,186.06,81.88Z"/><path d="M197.2,79.08v3.3h-.67V79.14a1.15,1.15,0,0,0-.24-.81.82.82,0,0,0-.64-.27,1.41,1.41,0,0,0-1.2.85v3.47h-.66V79.09a1.11,1.11,0,0,0-.24-.77.84.84,0,0,0-.64-.26,1.37,1.37,0,0,0-1.19.85v3.47h-.67V77.64h.57l0,.62a1.62,1.62,0,0,1,1.38-.73,1.4,1.4,0,0,1,.76.21,1.23,1.23,0,0,1,.51.61,1.69,1.69,0,0,1,1.47-.82,1.41,1.41,0,0,1,.71.18,1.37,1.37,0,0,1,.51.53A1.68,1.68,0,0,1,197.2,79.08Z"/><path d="M199.68,82.38H199V78.16h-.75v-.52h1.41Zm-.79-6.1A.41.41,0,0,1,199,76a.42.42,0,0,1,.3-.13.44.44,0,0,1,.31.13.41.41,0,0,1,0,.6.4.4,0,0,1-.31.13.38.38,0,0,1-.3-.13A.41.41,0,0,1,198.89,76.28Z"/><path d="M200.92,81.88l.35-.44a2.29,2.29,0,0,0,.65.39,2.36,2.36,0,0,0,.78.13,1.57,1.57,0,0,0,.85-.2.62.62,0,0,0,.3-.56v-.07a.67.67,0,0,0-.19-.5,2.11,2.11,0,0,0-.73-.36l-.63-.22a2.46,2.46,0,0,1-.88-.48.91.91,0,0,1-.28-.7v-.15a1,1,0,0,1,.21-.62,1.38,1.38,0,0,1,.59-.42,2.3,2.3,0,0,1,.85-.15,2.82,2.82,0,0,1,.92.15,2.56,2.56,0,0,1,.76.42l-.33.4a2.26,2.26,0,0,0-.66-.33,2.07,2.07,0,0,0-.68-.1,1.38,1.38,0,0,0-.73.17.54.54,0,0,0-.26.47v.07a.55.55,0,0,0,.19.44,2.51,2.51,0,0,0,.72.35l.63.23a2.39,2.39,0,0,1,.88.48,1,1,0,0,1,.29.78v.15a1.09,1.09,0,0,1-.5.94,2.29,2.29,0,0,1-1.27.34A2.88,2.88,0,0,1,200.92,81.88Z"/><path d="M205.4,81.88l.34-.44a2.29,2.29,0,0,0,.65.39,2.36,2.36,0,0,0,.78.13,1.55,1.55,0,0,0,.85-.2.62.62,0,0,0,.3-.56v-.07a.63.63,0,0,0-.19-.5,2.11,2.11,0,0,0-.73-.36l-.63-.22a2.46,2.46,0,0,1-.88-.48,1,1,0,0,1-.28-.7v-.15a1,1,0,0,1,.21-.62,1.44,1.44,0,0,1,.59-.42,2.34,2.34,0,0,1,.85-.15,2.82,2.82,0,0,1,.92.15,2.44,2.44,0,0,1,.76.42l-.33.4a2.34,2.34,0,0,0-.65-.33,2.17,2.17,0,0,0-.69-.1,1.38,1.38,0,0,0-.73.17.54.54,0,0,0-.26.47v.07a.56.56,0,0,0,.2.44,2.42,2.42,0,0,0,.71.35l.63.23a2.39,2.39,0,0,1,.88.48,1,1,0,0,1,.29.78v.15a1.09,1.09,0,0,1-.5.94,2.26,2.26,0,0,1-1.27.34A2.87,2.87,0,0,1,205.4,81.88Z"/><path d="M211.11,82.38h-.66V78.16h-.75v-.52h1.41Zm-.79-6.1a.41.41,0,0,1,.12-.3.42.42,0,0,1,.3-.13.44.44,0,0,1,.31.13.41.41,0,0,1,0,.6.4.4,0,0,1-.31.13.38.38,0,0,1-.3-.13A.41.41,0,0,1,210.32,76.28Z"/><path d="M216.73,79.76v.47a2.58,2.58,0,0,1-.25,1.17,1.86,1.86,0,0,1-.72.8,2.24,2.24,0,0,1-1.16.29,2,2,0,0,1-1.55-.62,2.38,2.38,0,0,1-.55-1.64v-.47a2.63,2.63,0,0,1,.24-1.15,1.78,1.78,0,0,1,.72-.79,2.06,2.06,0,0,1,1.14-.29,2.15,2.15,0,0,1,1.16.29,1.84,1.84,0,0,1,.72.79A2.5,2.5,0,0,1,216.73,79.76Zm-3.57,0v.47a2,2,0,0,0,.37,1.28,1.33,1.33,0,0,0,1.07.46,1.35,1.35,0,0,0,1.08-.46,2,2,0,0,0,.38-1.28v-.47a1.86,1.86,0,0,0-.38-1.23,1.52,1.52,0,0,0-2.15,0A1.93,1.93,0,0,0,213.16,79.75Z"/><path d="M221.8,79.11v3.27h-.67V79.17a1.16,1.16,0,0,0-.26-.83,1,1,0,0,0-.74-.27,1.56,1.56,0,0,0-1.36.84v3.47h-.66V77.64h.56l.06.63a1.81,1.81,0,0,1,1.54-.74,1.53,1.53,0,0,1,1.11.41A1.58,1.58,0,0,1,221.8,79.11Z"/><path d="M224.86,77.55l.88,1.11-.45.34-.8-1.17L223.71,79l-.45-.33.87-1.12-1.35-.38.17-.51,1.32.47-.05-1.41h.56l-.05,1.41,1.32-.48.18.52Z"/><path d="M259.09,64.43l.36-.42a4.31,4.31,0,0,0,.52.35,2.25,2.25,0,0,0,.54.22,3.44,3.44,0,0,0,.77.08,2.09,2.09,0,0,0,.88-.17,1.27,1.27,0,0,0,.53-.42,1,1,0,0,0,.17-.53V63.4a.92.92,0,0,0-.26-.69,2.8,2.8,0,0,0-.91-.46l-.9-.29a2.71,2.71,0,0,1-1.12-.64,1.25,1.25,0,0,1-.34-.88v-.2a1.27,1.27,0,0,1,.24-.73,1.71,1.71,0,0,1,.71-.57,2.73,2.73,0,0,1,1.16-.22,2.8,2.8,0,0,1,2.07.82l-.36.39a3.1,3.1,0,0,0-.79-.51,2.55,2.55,0,0,0-.91-.15,2.07,2.07,0,0,0-.81.14,1.18,1.18,0,0,0-.48.37.81.81,0,0,0-.15.46v.19a.75.75,0,0,0,.27.56,2.67,2.67,0,0,0,.9.44l.81.26a3,3,0,0,1,1.15.61,1.36,1.36,0,0,1,.39,1v.22a1.46,1.46,0,0,1-.27.85,1.9,1.9,0,0,1-.77.61,3,3,0,0,1-1.21.22A2.92,2.92,0,0,1,259.09,64.43Z"/><path d="M268.85,62.53V63a2.69,2.69,0,0,1-.24,1.15,2,2,0,0,1-.7.82,1.8,1.8,0,0,1-1,.29,1.84,1.84,0,0,1-1.26-.47v2.17H265V60.36h.57l.05.57a1.77,1.77,0,0,1,1.45-.66,1.62,1.62,0,0,1,.95.29,1.85,1.85,0,0,1,.63.79A3,3,0,0,1,268.85,62.53Zm-.66,0a2.1,2.1,0,0,0-.33-1.26,1.08,1.08,0,0,0-.92-.45,1.53,1.53,0,0,0-.74.18,1.54,1.54,0,0,0-.55.53v2.69a1.59,1.59,0,0,0,1.17.49,1.21,1.21,0,0,0,1-.46,2,2,0,0,0,.37-1.26Z"/><path d="M270.54,63h0a1.84,1.84,0,0,0,.4,1.28,1.45,1.45,0,0,0,1.13.45,2,2,0,0,0,.68-.11,2.69,2.69,0,0,0,.62-.33l.26.43a2.47,2.47,0,0,1-.72.39,2.53,2.53,0,0,1-.87.15,2.16,2.16,0,0,1-1.15-.29,1.93,1.93,0,0,1-.75-.8,2.61,2.61,0,0,1-.25-1.17v-.46a2.47,2.47,0,0,1,.25-1.13,1.9,1.9,0,0,1,.7-.81,1.88,1.88,0,0,1,1.06-.3,1.79,1.79,0,0,1,1.43.6,2.5,2.5,0,0,1,.51,1.66,2.46,2.46,0,0,1,0,.43Zm0-.49h2.7v-.06a1.84,1.84,0,0,0-.35-1.18,1.37,1.37,0,0,0-2,0A1.89,1.89,0,0,0,270.54,62.47Z"/><path d="M274.81,63v-.4a2.49,2.49,0,0,1,.53-1.65,1.84,1.84,0,0,1,1.5-.63,2.09,2.09,0,0,1,.81.15,2.19,2.19,0,0,1,.67.45l-.34.38a1.59,1.59,0,0,0-.51-.33,1.71,1.71,0,0,0-.62-.11,1.23,1.23,0,0,0-1,.46,2,2,0,0,0-.36,1.26V63a2,2,0,0,0,.35,1.27,1.18,1.18,0,0,0,1,.46,1.55,1.55,0,0,0,.59-.1,3,3,0,0,0,.54-.31l.31.43a2.76,2.76,0,0,1-.67.38,2.07,2.07,0,0,1-.78.14,1.85,1.85,0,0,1-1.49-.63A2.49,2.49,0,0,1,274.81,63Z"/><path d="M283.12,60.38v4.75h-.57l-.05-.67a1.94,1.94,0,0,1-1.57.77,1.52,1.52,0,0,1-1.07-.39,1.36,1.36,0,0,1-.42-1V60.38h.66v3.4a.93.93,0,0,0,.25.68,1,1,0,0,0,.71.24,1.43,1.43,0,0,0,.77-.22,1.93,1.93,0,0,0,.62-.62V60.38Z"/><path d="M285.46,64.25a.51.51,0,0,0,.09.34.39.39,0,0,0,.29.09,1.24,1.24,0,0,0,.27,0l.09.48a1.4,1.4,0,0,1-.54.1A.85.85,0,0,1,285,65a.89.89,0,0,1-.23-.65V58.47h.67Z"/><path d="M290.71,61.87v3.26h-.55l0-.56a2,2,0,0,1-1.56.66,1.76,1.76,0,0,1-.76-.16,1.41,1.41,0,0,1-.56-.46,1.2,1.2,0,0,1-.21-.7v-.3a1.16,1.16,0,0,1,.52-1,2.35,2.35,0,0,1,1.4-.37h1.1v-.4a1.06,1.06,0,0,0-.26-.78,1.12,1.12,0,0,0-.81-.26,2.72,2.72,0,0,0-.72.1,4.71,4.71,0,0,0-.71.28l-.21-.45a3.29,3.29,0,0,1,1.69-.47,1.71,1.71,0,0,1,1.26.43A1.58,1.58,0,0,1,290.71,61.87Zm-.66,2.18V62.72H289A1.54,1.54,0,0,0,288,63a.79.79,0,0,0-.34.7v.2a.79.79,0,0,0,.26.61,1.08,1.08,0,0,0,.71.23,1.64,1.64,0,0,0,.77-.17A1.6,1.6,0,0,0,290.05,64.05Z"/><path d="M294.84,60.38l-.12.63a1.42,1.42,0,0,0-.33,0c-.66,0-1.1.38-1.34,1.15v3h-.66V60.38h.5l.11.86a1.44,1.44,0,0,1,.55-.71,1.38,1.38,0,0,1,.76-.23A2,2,0,0,1,294.84,60.38Z"/><path d="M300.62,60.38l-.11.63a1.42,1.42,0,0,0-.33,0,1.36,1.36,0,0,0-1.34,1.15v3h-.67V60.38h.51l.11.86a1.44,1.44,0,0,1,.55-.71,1.36,1.36,0,0,1,.76-.23A1.88,1.88,0,0,1,300.62,60.38Z"/><path d="M301.87,63h0a1.84,1.84,0,0,0,.41,1.28,1.45,1.45,0,0,0,1.13.45,2.06,2.06,0,0,0,.68-.11,2.69,2.69,0,0,0,.62-.33l.26.43a2.47,2.47,0,0,1-.72.39,2.57,2.57,0,0,1-.87.15,2.16,2.16,0,0,1-1.15-.29,1.87,1.87,0,0,1-.75-.8,2.61,2.61,0,0,1-.25-1.17v-.46a2.6,2.6,0,0,1,.24-1.13,2,2,0,0,1,.71-.81,1.86,1.86,0,0,1,1.06-.3,1.76,1.76,0,0,1,1.42.6,2.94,2.94,0,0,1,.49,2.09Zm0-.49h2.7v-.06a1.84,1.84,0,0,0-.34-1.18,1.37,1.37,0,0,0-2,0A2,2,0,0,0,301.87,62.47Z"/><path d="M308.72,65.13a2.67,2.67,0,0,1-.73.1,1.32,1.32,0,0,1-.91-.28,1,1,0,0,1-.31-.82V60.9H306v-.52h.78l0-1.12h.6v1.12h1.14v.52h-1.14v3.2a.55.55,0,0,0,.17.45.73.73,0,0,0,.5.15,2.09,2.09,0,0,0,.53-.07Z"/><path d="M312.4,60.38l-.11.63a1.42,1.42,0,0,0-.33,0c-.66,0-1.1.38-1.34,1.15v3H310V60.38h.51l.11.86a1.44,1.44,0,0,1,.55-.71,1.38,1.38,0,0,1,.76-.23A1.82,1.82,0,0,1,312.4,60.38Z"/><path d="M317.24,62.51V63a2.72,2.72,0,0,1-.25,1.17,1.91,1.91,0,0,1-.73.81,2.18,2.18,0,0,1-1.15.28,1.93,1.93,0,0,1-1.55-.62A2.36,2.36,0,0,1,313,63v-.46a2.67,2.67,0,0,1,.24-1.16,1.87,1.87,0,0,1,.71-.79,2.21,2.21,0,0,1,1.15-.29,2.18,2.18,0,0,1,1.15.29,1.92,1.92,0,0,1,.73.79A2.67,2.67,0,0,1,317.24,62.51Zm-3.57,0V63a2,2,0,0,0,.37,1.27,1.28,1.28,0,0,0,1.07.46,1.33,1.33,0,0,0,1.08-.46,1.94,1.94,0,0,0,.38-1.27V62.5a1.89,1.89,0,0,0-.38-1.24,1.35,1.35,0,0,0-1.08-.45,1.31,1.31,0,0,0-1.07.45A1.93,1.93,0,0,0,313.67,62.5Z"/><path d="M320.94,62.32h-2.59v-.55h2.59Z"/><path d="M324.89,60.38l-.12.63a1.42,1.42,0,0,0-.33,0c-.66,0-1.1.38-1.34,1.15v3h-.66V60.38h.5l.11.86a1.44,1.44,0,0,1,.55-.71,1.38,1.38,0,0,1,.76-.23A2,2,0,0,1,324.89,60.38Z"/><path d="M326.14,63h0a1.84,1.84,0,0,0,.4,1.28,1.45,1.45,0,0,0,1.14.45,2,2,0,0,0,.67-.11,2.5,2.5,0,0,0,.62-.33l.26.43a2.62,2.62,0,0,1-1.59.54,2.16,2.16,0,0,1-1.15-.29,1.91,1.91,0,0,1-.74-.8,2.49,2.49,0,0,1-.26-1.17v-.46a2.47,2.47,0,0,1,.25-1.13,2,2,0,0,1,.7-.81,1.89,1.89,0,0,1,1.07-.3,1.77,1.77,0,0,1,1.42.6,2.5,2.5,0,0,1,.51,1.66,2.46,2.46,0,0,1,0,.43Zm0-.49h2.7v-.06a1.84,1.84,0,0,0-.35-1.18,1.35,1.35,0,0,0-2,0A1.89,1.89,0,0,0,326.14,62.47Z"/><path d="M335.4,65.13a1.42,1.42,0,0,1-.53.1.84.84,0,0,1-.64-.23.85.85,0,0,1-.24-.65V59c-.62-.07-1-.1-1.21-.1a1.33,1.33,0,0,0-.87.24,1,1,0,0,0-.29.81v.45h1.29v.52h-1.29v4.23H331V60.9h-.65v-.52H331V60c0-1.08.59-1.62,1.76-1.62a10.1,10.1,0,0,1,1.32.11h.63v5.78a.51.51,0,0,0,.09.34.38.38,0,0,0,.28.09,1.36,1.36,0,0,0,.29,0Z"/><path d="M336.94,63h0a1.84,1.84,0,0,0,.4,1.28,1.45,1.45,0,0,0,1.14.45,2,2,0,0,0,.67-.11,2.5,2.5,0,0,0,.62-.33l.26.43a2.62,2.62,0,0,1-1.59.54,2.16,2.16,0,0,1-1.15-.29,1.91,1.91,0,0,1-.74-.8,2.49,2.49,0,0,1-.26-1.17v-.46a2.47,2.47,0,0,1,.25-1.13,2,2,0,0,1,.7-.81,1.89,1.89,0,0,1,1.07-.3,1.77,1.77,0,0,1,1.42.6,2.5,2.5,0,0,1,.51,1.66,2.46,2.46,0,0,1,0,.43Zm0-.49h2.7v-.06a1.84,1.84,0,0,0-.35-1.18,1.35,1.35,0,0,0-2,0A1.89,1.89,0,0,0,336.94,62.47Z"/><path d="M341.21,63v-.4a2.49,2.49,0,0,1,.53-1.65,1.84,1.84,0,0,1,1.5-.63,2.09,2.09,0,0,1,.81.15,2.19,2.19,0,0,1,.67.45l-.34.38a1.59,1.59,0,0,0-.51-.33,1.71,1.71,0,0,0-.62-.11,1.23,1.23,0,0,0-1,.46,2,2,0,0,0-.36,1.26V63a2,2,0,0,0,.35,1.27,1.18,1.18,0,0,0,1,.46,1.64,1.64,0,0,0,.6-.1,3.3,3.3,0,0,0,.53-.31l.31.43a2.59,2.59,0,0,1-.67.38,2.07,2.07,0,0,1-.78.14,1.85,1.85,0,0,1-1.49-.63A2.49,2.49,0,0,1,341.21,63Z"/><path d="M348.17,65.13a2.73,2.73,0,0,1-.73.1,1.31,1.31,0,0,1-.91-.28,1,1,0,0,1-.31-.82V60.9h-.76v-.52h.77l.06-1.12h.59v1.12H348v.52h-1.14v3.2a.58.58,0,0,0,.17.45.76.76,0,0,0,.51.15,2.09,2.09,0,0,0,.53-.07Z"/><path d="M350.21,65.13h-.66V60.9h-.75v-.52h1.41ZM349.42,59a.41.41,0,0,1,.42-.42.43.43,0,0,1,.31.12.41.41,0,0,1,.12.3.43.43,0,0,1-.12.31.44.44,0,0,1-.31.13.42.42,0,0,1-.3-.13A.43.43,0,0,1,349.42,59Z"/><path d="M355.83,62.51V63a2.72,2.72,0,0,1-.25,1.17,2,2,0,0,1-.72.81,2.24,2.24,0,0,1-1.16.28,1.93,1.93,0,0,1-1.55-.62A2.36,2.36,0,0,1,351.6,63v-.46a2.67,2.67,0,0,1,.24-1.16,1.83,1.83,0,0,1,.72-.79,2.14,2.14,0,0,1,1.14-.29,2.24,2.24,0,0,1,1.16.29,2,2,0,0,1,.72.79A2.67,2.67,0,0,1,355.83,62.51Zm-3.57,0V63a2,2,0,0,0,.37,1.27,1.3,1.3,0,0,0,1.07.46,1.32,1.32,0,0,0,1.08-.46,1.94,1.94,0,0,0,.38-1.27V62.5a1.89,1.89,0,0,0-.38-1.24,1.34,1.34,0,0,0-1.08-.45,1.32,1.32,0,0,0-1.07.45A1.93,1.93,0,0,0,352.26,62.5Z"/><path d="M360.9,61.86v3.27h-.67V61.91a1.18,1.18,0,0,0-.26-.83,1,1,0,0,0-.74-.27,1.56,1.56,0,0,0-1.36.84v3.48h-.67V60.38h.57l.06.63a1.83,1.83,0,0,1,1.54-.74,1.5,1.5,0,0,1,1.11.42A1.55,1.55,0,0,1,360.9,61.86Z"/><path d="M366.78,66.67l-.4.36a6.8,6.8,0,0,1-1-1,3.4,3.4,0,0,1-.53-1.06,4.65,4.65,0,0,1-.17-1.32V61.8a4.72,4.72,0,0,1,.17-1.33,3.4,3.4,0,0,1,.53-1.06,6.8,6.8,0,0,1,1-1l.4.36a7.14,7.14,0,0,0-.88,1,2.92,2.92,0,0,0-.42.92,4.29,4.29,0,0,0-.13,1.15v1.8a4.26,4.26,0,0,0,.13,1.14,2.92,2.92,0,0,0,.42.92A6.62,6.62,0,0,0,366.78,66.67Z"/><path d="M367.85,64.62l.34-.43a2.31,2.31,0,0,0,.66.38,2.11,2.11,0,0,0,.77.13,1.61,1.61,0,0,0,.86-.19.63.63,0,0,0,.3-.56v-.08a.65.65,0,0,0-.2-.5,2.38,2.38,0,0,0-.72-.35l-.63-.23a2.24,2.24,0,0,1-.88-.47.93.93,0,0,1-.28-.7v-.16a1,1,0,0,1,.21-.61,1.38,1.38,0,0,1,.59-.42,2.24,2.24,0,0,1,.84-.16,2.77,2.77,0,0,1,.92.15,2.32,2.32,0,0,1,.77.43l-.33.4a2.6,2.6,0,0,0-.66-.34,2.44,2.44,0,0,0-.69-.1A1.28,1.28,0,0,0,369,61a.52.52,0,0,0-.27.46v.08a.57.57,0,0,0,.2.44,2.42,2.42,0,0,0,.71.35l.63.22a2.46,2.46,0,0,1,.88.48,1,1,0,0,1,.29.78V64a1.06,1.06,0,0,1-.5.93,2.15,2.15,0,0,1-1.26.34A2.83,2.83,0,0,1,367.85,64.62Z"/><path d="M376.54,61.86v3.27h-.67V61.91a1.18,1.18,0,0,0-.26-.83,1,1,0,0,0-.74-.27,1.56,1.56,0,0,0-1.36.85v3.47h-.66V58.47h.66V61a1.78,1.78,0,0,1,1.51-.72,1.49,1.49,0,0,1,1.1.42A1.55,1.55,0,0,1,376.54,61.86Z"/><path d="M378.48,63h0a1.79,1.79,0,0,0,.41,1.28,1.42,1.42,0,0,0,1.13.45,2,2,0,0,0,.67-.11,2.74,2.74,0,0,0,.63-.33l.26.43a2.76,2.76,0,0,1-.72.39,2.58,2.58,0,0,1-.88.15,2.1,2.1,0,0,1-1.14-.29,1.87,1.87,0,0,1-.75-.8,2.61,2.61,0,0,1-.26-1.17v-.46a2.47,2.47,0,0,1,.25-1.13,2,2,0,0,1,.7-.81,1.89,1.89,0,0,1,1.07-.3,1.77,1.77,0,0,1,1.42.6,2.5,2.5,0,0,1,.51,1.66c0,.18,0,.32,0,.43Zm0-.49h2.7v-.06a1.84,1.84,0,0,0-.35-1.18,1.35,1.35,0,0,0-2,0A2,2,0,0,0,378.48,62.47Z"/><path d="M383.4,63h0a1.84,1.84,0,0,0,.41,1.28,1.45,1.45,0,0,0,1.13.45,2.06,2.06,0,0,0,.68-.11,2.69,2.69,0,0,0,.62-.33l.26.43a2.47,2.47,0,0,1-.72.39,2.57,2.57,0,0,1-.87.15,2.16,2.16,0,0,1-1.15-.29,1.87,1.87,0,0,1-.75-.8,2.61,2.61,0,0,1-.25-1.17v-.46a2.6,2.6,0,0,1,.24-1.13,2,2,0,0,1,.7-.81,1.91,1.91,0,0,1,1.07-.3,1.76,1.76,0,0,1,1.42.6,2.94,2.94,0,0,1,.49,2.09Zm0-.49h2.7v-.06a1.84,1.84,0,0,0-.34-1.18,1.37,1.37,0,0,0-2,0A2,2,0,0,0,383.4,62.47Z"/><path d="M391.75,61.86v3.27h-.67V61.91a1.18,1.18,0,0,0-.26-.83,1,1,0,0,0-.74-.27,1.56,1.56,0,0,0-1.36.84v3.48h-.66V60.38h.56l.06.63a1.85,1.85,0,0,1,1.55-.74,1.49,1.49,0,0,1,1.1.42A1.55,1.55,0,0,1,391.75,61.86Z"/><path d="M395.35,61.8v1.8a4.65,4.65,0,0,1-.17,1.32,3.4,3.4,0,0,1-.53,1.06,6.8,6.8,0,0,1-1,1l-.4-.36a6.62,6.62,0,0,0,.88-1,2.92,2.92,0,0,0,.42-.92,4.26,4.26,0,0,0,.13-1.14V61.8a4.29,4.29,0,0,0-.13-1.15,2.92,2.92,0,0,0-.42-.92,7.14,7.14,0,0,0-.88-1l.4-.36a6.8,6.8,0,0,1,1,1,3.4,3.4,0,0,1,.53,1.06A4.72,4.72,0,0,1,395.35,61.8Z"/><path d="M398.32,60.29l.88,1.12-.45.33L398,60.57l-.79,1.17-.45-.32.88-1.13-1.36-.38.17-.51,1.32.48-.05-1.41h.56l-.05,1.41,1.32-.49.18.52Z"/><path d="M319.82,82v1.1a2.67,2.67,0,0,1-.72,2,2.81,2.81,0,0,1-2.06.72h-1.56v-6.3h1.79a2.46,2.46,0,0,1,1.89.68A2.51,2.51,0,0,1,319.82,82Zm-.68,0a2,2,0,0,0-.49-1.44,1.85,1.85,0,0,0-1.42-.51h-1.08v5.2H317a2.12,2.12,0,0,0,1.57-.54,2.19,2.19,0,0,0,.53-1.58Z"/><path d="M322.09,85.75h-.66V81.53h-.75V81h1.41Zm-.79-6.1a.45.45,0,0,1,.12-.31.41.41,0,0,1,.3-.12.41.41,0,0,1,.43.43.41.41,0,0,1-.12.3.42.42,0,0,1-.31.13.38.38,0,0,1-.3-.13A.41.41,0,0,1,321.3,79.65Z"/><path d="M324.68,80.3V81H326v.53h-1.3v4.22H324V81.53h-.66V81H324v-.64a1.35,1.35,0,0,1,.37-1,1.45,1.45,0,0,1,1.06-.36,2.6,2.6,0,0,1,.77.11l-.09.5a2.69,2.69,0,0,0-.61-.08.86.86,0,0,0-.63.2A.77.77,0,0,0,324.68,80.3Z"/><path d="M327.91,80.3V81h1.3v.53h-1.3v4.22h-.66V81.53h-.66V81h.66v-.64a1.35,1.35,0,0,1,.37-1,1.45,1.45,0,0,1,1.06-.36,2.55,2.55,0,0,1,.77.11l-.09.5a2.69,2.69,0,0,0-.61-.08.86.86,0,0,0-.63.2A.77.77,0,0,0,327.91,80.3Z"/><path d="M333.91,81v4.75h-.57l0-.67a1.94,1.94,0,0,1-1.57.78,1.48,1.48,0,0,1-1.07-.4,1.34,1.34,0,0,1-.42-1V81h.66v3.4a.9.9,0,0,0,.26.68,1,1,0,0,0,.7.24,1.49,1.49,0,0,0,.78-.22,2,2,0,0,0,.61-.62V81Z"/><path d="M335.15,85.24l.34-.43a2.18,2.18,0,0,0,1.43.51,1.55,1.55,0,0,0,.85-.19.62.62,0,0,0,.31-.56V84.5a.63.63,0,0,0-.2-.5,2.14,2.14,0,0,0-.72-.36l-.63-.22a2.37,2.37,0,0,1-.88-.48.91.91,0,0,1-.28-.7v-.16a1,1,0,0,1,.21-.61,1.38,1.38,0,0,1,.59-.42,2.24,2.24,0,0,1,.84-.15,3.06,3.06,0,0,1,.92.14,2.63,2.63,0,0,1,.77.43l-.34.4a2.1,2.1,0,0,0-.65-.33,2.17,2.17,0,0,0-.69-.1,1.28,1.28,0,0,0-.72.17.53.53,0,0,0-.27.47v.07a.57.57,0,0,0,.2.44,2.42,2.42,0,0,0,.71.35l.63.22a2.31,2.31,0,0,1,.88.49,1,1,0,0,1,.29.77v.16a1.07,1.07,0,0,1-.5.93,2.16,2.16,0,0,1-1.26.35A2.83,2.83,0,0,1,335.15,85.24Z"/><path d="M340.42,83.58v0a1.83,1.83,0,0,0,.4,1.27,1.45,1.45,0,0,0,1.13.45,1.8,1.8,0,0,0,.68-.11,2.69,2.69,0,0,0,.62-.33l.26.44a2.72,2.72,0,0,1-.72.38,2.53,2.53,0,0,1-.87.16,2.17,2.17,0,0,1-1.15-.3,1.87,1.87,0,0,1-.75-.8,2.57,2.57,0,0,1-.25-1.16v-.47A2.47,2.47,0,0,1,340,82a1.9,1.9,0,0,1,.7-.81,2,2,0,0,1,1.06-.29,1.79,1.79,0,0,1,1.43.6,2.46,2.46,0,0,1,.51,1.66,2.42,2.42,0,0,1,0,.42Zm0-.49h2.7V83a1.84,1.84,0,0,0-.35-1.18,1.21,1.21,0,0,0-1-.42,1.24,1.24,0,0,0-1,.44A1.91,1.91,0,0,0,340.42,83.09Z"/><path d="M303.5,94.75a2.75,2.75,0,0,1-.73.11,1.36,1.36,0,0,1-.91-.28,1.07,1.07,0,0,1-.32-.83V90.53h-.75V90h.77l.06-1.12h.59V90h1.14v.53h-1.14v3.19a.58.58,0,0,0,.17.45.76.76,0,0,0,.51.15,2.09,2.09,0,0,0,.53-.07Z"/><path d="M307.18,90l-.12.63a1.33,1.33,0,0,0-.32,0,1.36,1.36,0,0,0-1.34,1.15v3h-.67V90h.5l.11.86a1.55,1.55,0,0,1,.55-.71,1.42,1.42,0,0,1,.77-.23A1.93,1.93,0,0,1,307.18,90Z"/><path d="M311.31,91.49v3.26h-.55l0-.56a2,2,0,0,1-1.56.67,1.73,1.73,0,0,1-.76-.17,1.33,1.33,0,0,1-.56-.46,1.18,1.18,0,0,1-.21-.7v-.29a1.16,1.16,0,0,1,.52-1,2.33,2.33,0,0,1,1.4-.37h1.09v-.4a1,1,0,0,0-.26-.78,1.1,1.1,0,0,0-.8-.25,2.73,2.73,0,0,0-.72.09,4.33,4.33,0,0,0-.71.28l-.21-.45a3.25,3.25,0,0,1,1.69-.46,1.71,1.71,0,0,1,1.26.42A1.58,1.58,0,0,1,311.31,91.49Zm-.67,2.18V92.34h-1.05a1.66,1.66,0,0,0-1,.25.81.81,0,0,0-.34.7v.2a.75.75,0,0,0,.27.61,1,1,0,0,0,.71.23,1.77,1.77,0,0,0,.77-.16A1.6,1.6,0,0,0,310.64,93.67Z"/><path d="M316.67,91.48v3.27H316V91.53a1.15,1.15,0,0,0-.26-.82,1,1,0,0,0-.74-.27,1.57,1.57,0,0,0-1.36.83v3.48H313V90h.57l.06.63a1.83,1.83,0,0,1,1.54-.73,1.49,1.49,0,0,1,1.11.41A1.62,1.62,0,0,1,316.67,91.48Z"/><path d="M317.83,94.24l.34-.43a2.05,2.05,0,0,0,.65.38,2.13,2.13,0,0,0,.78.13,1.58,1.58,0,0,0,.85-.19.63.63,0,0,0,.3-.56V93.5a.62.62,0,0,0-.19-.5,2.11,2.11,0,0,0-.73-.36l-.63-.22a2.46,2.46,0,0,1-.88-.48.91.91,0,0,1-.28-.7v-.16a1,1,0,0,1,.21-.61,1.38,1.38,0,0,1,.59-.42,2.3,2.3,0,0,1,.85-.15,3.1,3.1,0,0,1,.92.14,2.46,2.46,0,0,1,.76.43l-.33.4a2.34,2.34,0,0,0-.65-.33,2.17,2.17,0,0,0-.69-.1,1.29,1.29,0,0,0-.73.17.54.54,0,0,0-.26.47v.07a.54.54,0,0,0,.2.44,2.3,2.3,0,0,0,.71.35l.63.22a2.4,2.4,0,0,1,.88.49,1,1,0,0,1,.29.77v.16a1.07,1.07,0,0,1-.5.93,2.21,2.21,0,0,1-1.27.35A2.81,2.81,0,0,1,317.83,94.24Z"/><path d="M329,91.44v3.31h-.67V91.51a1.2,1.2,0,0,0-.24-.82.85.85,0,0,0-.64-.26,1.4,1.4,0,0,0-1.2.84v3.48h-.66v-3.3a1.08,1.08,0,0,0-.24-.76.8.8,0,0,0-.64-.26,1.37,1.37,0,0,0-1.19.84v3.48h-.67V90h.57l.05.63a1.62,1.62,0,0,1,1.38-.73,1.4,1.4,0,0,1,.76.21,1.23,1.23,0,0,1,.51.61,1.69,1.69,0,0,1,1.47-.82,1.41,1.41,0,0,1,.71.18,1.31,1.31,0,0,1,.51.53A1.78,1.78,0,0,1,329,91.44Z"/><path d="M331.45,94.75h-.66V90.53H330V90h1.41Zm-.79-6.1a.45.45,0,0,1,.12-.31.41.41,0,0,1,.3-.12.41.41,0,0,1,.43.43.41.41,0,0,1-.12.3.42.42,0,0,1-.31.13.38.38,0,0,1-.3-.13A.41.41,0,0,1,330.66,88.65Z"/><path d="M332.69,94.24l.35-.43a2.05,2.05,0,0,0,.65.38,2.13,2.13,0,0,0,.78.13,1.58,1.58,0,0,0,.85-.19.63.63,0,0,0,.3-.56V93.5a.65.65,0,0,0-.19-.5,2.21,2.21,0,0,0-.73-.36l-.63-.22a2.37,2.37,0,0,1-.88-.48.91.91,0,0,1-.28-.7v-.16a1,1,0,0,1,.21-.61,1.38,1.38,0,0,1,.59-.42,2.26,2.26,0,0,1,.85-.15,3,3,0,0,1,.91.14,2.51,2.51,0,0,1,.77.43l-.33.4a2.26,2.26,0,0,0-.66-.33,2.07,2.07,0,0,0-.68-.1,1.29,1.29,0,0,0-.73.17.52.52,0,0,0-.26.47v.07a.56.56,0,0,0,.19.44,2.42,2.42,0,0,0,.71.35l.63.22a2.45,2.45,0,0,1,.89.49,1,1,0,0,1,.28.77v.16a1,1,0,0,1-.5.93,2.16,2.16,0,0,1-1.26.35A2.83,2.83,0,0,1,332.69,94.24Z"/><path d="M337.17,94.24l.34-.43a2.05,2.05,0,0,0,.65.38,2.13,2.13,0,0,0,.78.13,1.55,1.55,0,0,0,.85-.19.63.63,0,0,0,.3-.56V93.5a.62.62,0,0,0-.19-.5,2.11,2.11,0,0,0-.73-.36l-.63-.22a2.46,2.46,0,0,1-.88-.48,1,1,0,0,1-.28-.7v-.16a1,1,0,0,1,.21-.61,1.38,1.38,0,0,1,.59-.42,2.34,2.34,0,0,1,.85-.15A3.1,3.1,0,0,1,340,90a2.58,2.58,0,0,1,.76.43l-.33.4a2.34,2.34,0,0,0-.65-.33,2.17,2.17,0,0,0-.69-.1,1.29,1.29,0,0,0-.73.17.54.54,0,0,0-.26.47v.07a.54.54,0,0,0,.2.44,2.3,2.3,0,0,0,.71.35l.63.22a2.4,2.4,0,0,1,.88.49,1,1,0,0,1,.29.77v.16a1.07,1.07,0,0,1-.5.93,2.21,2.21,0,0,1-1.27.35A2.81,2.81,0,0,1,337.17,94.24Z"/><path d="M342.88,94.75h-.66V90.53h-.75V90h1.41Zm-.79-6.1a.45.45,0,0,1,.12-.31.41.41,0,0,1,.3-.12.41.41,0,0,1,.43.43.41.41,0,0,1-.12.3.42.42,0,0,1-.31.13.38.38,0,0,1-.3-.13A.41.41,0,0,1,342.09,88.65Z"/><path d="M348.5,92.13v.47a2.79,2.79,0,0,1-.25,1.17,1.88,1.88,0,0,1-.73.8,2.18,2.18,0,0,1-1.15.29,1.93,1.93,0,0,1-1.55-.63,2.35,2.35,0,0,1-.55-1.63v-.47a2.63,2.63,0,0,1,.24-1.15,1.86,1.86,0,0,1,.72-.8,2.14,2.14,0,0,1,1.14-.28,2.18,2.18,0,0,1,1.15.28,1.94,1.94,0,0,1,.73.8A2.63,2.63,0,0,1,348.5,92.13Zm-3.57,0v.47a2.05,2.05,0,0,0,.37,1.28,1.31,1.31,0,0,0,1.07.45,1.34,1.34,0,0,0,1.08-.45,2,2,0,0,0,.38-1.28v-.47a1.86,1.86,0,0,0-.38-1.23,1.34,1.34,0,0,0-1.08-.45,1.3,1.3,0,0,0-1.07.44A1.93,1.93,0,0,0,344.93,92.12Z"/><path d="M353.56,91.48v3.27h-.66V91.53a1.15,1.15,0,0,0-.26-.82,1,1,0,0,0-.74-.27,1.57,1.57,0,0,0-1.36.83v3.48h-.67V90h.57l.05.63A1.86,1.86,0,0,1,352,89.9a1.49,1.49,0,0,1,1.11.41A1.62,1.62,0,0,1,353.56,91.48Z"/><path d="M356.63,89.91l.88,1.12-.45.33-.8-1.17-.78,1.17L355,91l.87-1.13-1.36-.37.18-.52,1.32.48L356,88.09h.57l-.05,1.41,1.32-.49.18.53Z"/><path d="M372.37,85.06l.36-.43c.2.15.37.27.52.36a2.64,2.64,0,0,0,.55.21,3.37,3.37,0,0,0,.77.08,2,2,0,0,0,.87-.17,1.21,1.21,0,0,0,.53-.42,1,1,0,0,0,.17-.53V84a.9.9,0,0,0-.26-.68,2.37,2.37,0,0,0-.91-.46l-.9-.3A2.7,2.7,0,0,1,373,82a1.32,1.32,0,0,1-.34-.89v-.2a1.3,1.3,0,0,1,.24-.73,1.76,1.76,0,0,1,.72-.57,2.65,2.65,0,0,1,1.15-.22,2.8,2.8,0,0,1,2.07.82l-.36.4a2.64,2.64,0,0,0-.79-.51,2.31,2.31,0,0,0-.91-.16,1.89,1.89,0,0,0-.81.15,1.1,1.1,0,0,0-.48.37.76.76,0,0,0-.15.45v.19a.73.73,0,0,0,.27.56,2.5,2.5,0,0,0,.9.44l.82.26a3.12,3.12,0,0,1,1.14.61,1.36,1.36,0,0,1,.4,1v.22a1.46,1.46,0,0,1-.27.85,1.8,1.8,0,0,1-.78.61,3,3,0,0,1-1.2.23A3,3,0,0,1,372.37,85.06Z"/><path d="M381.86,81v4.75h-.57l-.06-.67a1.92,1.92,0,0,1-1.56.78,1.48,1.48,0,0,1-1.07-.4,1.35,1.35,0,0,1-.43-1V81h.67v3.4a.89.89,0,0,0,.25.68,1,1,0,0,0,.7.25,1.45,1.45,0,0,0,.78-.23,1.93,1.93,0,0,0,.62-.62V81Z"/><path d="M387.49,83.13v.47a2.51,2.51,0,0,1-.25,1.14,2,2,0,0,1-.7.82,1.7,1.7,0,0,1-1,.3,1.8,1.8,0,0,1-1.33-.58l-.06.47h-.54V79.09h.67v2.43a1.76,1.76,0,0,1,1.41-.62,1.58,1.58,0,0,1,.94.28,1.76,1.76,0,0,1,.63.78A2.81,2.81,0,0,1,387.49,83.13Zm-.67,0a2,2,0,0,0-.32-1.25,1,1,0,0,0-.9-.43,1.52,1.52,0,0,0-1.31.7v2.62a1.47,1.47,0,0,0,1.18.57,1.19,1.19,0,0,0,1-.47,1.91,1.91,0,0,0,.37-1.24Z"/><path d="M388.38,85.24l.34-.43a2.17,2.17,0,0,0,.65.38,2.21,2.21,0,0,0,.78.14,1.55,1.55,0,0,0,.85-.2.64.64,0,0,0,.31-.56V84.5a.63.63,0,0,0-.2-.5,2.14,2.14,0,0,0-.72-.36l-.63-.22a2.37,2.37,0,0,1-.88-.48.91.91,0,0,1-.28-.7v-.16a1,1,0,0,1,.21-.61,1.38,1.38,0,0,1,.59-.42,2.24,2.24,0,0,1,.84-.15,2.77,2.77,0,0,1,.92.15,2.4,2.4,0,0,1,.77.42l-.34.4a2.1,2.1,0,0,0-.65-.33,2.17,2.17,0,0,0-.69-.1,1.26,1.26,0,0,0-.72.17.53.53,0,0,0-.27.47v.07a.56.56,0,0,0,.2.44,2.42,2.42,0,0,0,.71.35l.63.22a2.31,2.31,0,0,1,.88.49,1,1,0,0,1,.29.77v.16a1,1,0,0,1-.5.93,2.16,2.16,0,0,1-1.26.35A2.83,2.83,0,0,1,388.38,85.24Z"/><path d="M397,81v4.75h-.57l0-.67a2,2,0,0,1-1.57.78,1.48,1.48,0,0,1-1.07-.4,1.34,1.34,0,0,1-.42-1V81H394v3.4a.93.93,0,0,0,.25.68,1,1,0,0,0,.71.25,1.44,1.44,0,0,0,.77-.23,1.93,1.93,0,0,0,.62-.62V81Z"/><path d="M401.18,81l-.12.64a.92.92,0,0,0-.32,0,1.36,1.36,0,0,0-1.34,1.15v3h-.67V81h.5l.11.86a1.55,1.55,0,0,1,.55-.71,1.42,1.42,0,0,1,.77-.23A1.93,1.93,0,0,1,401.18,81Z"/><path d="M403.05,80.3V81h1.3v.53h-1.3v4.22h-.67V81.53h-.65V81h.65v-.64a1.38,1.38,0,0,1,.37-1,1.47,1.47,0,0,1,1.07-.36,2.65,2.65,0,0,1,.77.11l-.09.5a2.77,2.77,0,0,0-.61-.08.91.91,0,0,0-.64.2A.81.81,0,0,0,403.05,80.3Z"/><path d="M408.65,82.49v3.26h-.55l-.05-.56a2,2,0,0,1-1.55.67,1.73,1.73,0,0,1-.76-.17,1.33,1.33,0,0,1-.56-.46,1.18,1.18,0,0,1-.21-.7v-.29a1.18,1.18,0,0,1,.51-1,2.37,2.37,0,0,1,1.4-.37H408v-.4a1,1,0,0,0-.26-.78,1.1,1.1,0,0,0-.8-.25,2.68,2.68,0,0,0-.72.09,4.33,4.33,0,0,0-.71.28l-.22-.44a3.21,3.21,0,0,1,1.7-.47,1.74,1.74,0,0,1,1.26.42A1.58,1.58,0,0,1,408.65,82.49ZM408,84.67V83.35h-1.05a1.66,1.66,0,0,0-1,.24.81.81,0,0,0-.34.7v.2a.75.75,0,0,0,.27.61,1,1,0,0,0,.71.23,1.77,1.77,0,0,0,.77-.16A1.68,1.68,0,0,0,408,84.67Z"/><path d="M409.94,83.57v-.4a2.49,2.49,0,0,1,.53-1.64,1.84,1.84,0,0,1,1.5-.63,2.09,2.09,0,0,1,.81.15,2,2,0,0,1,.67.44l-.34.38a2,2,0,0,0-.51-.33,1.66,1.66,0,0,0-.61-.1,1.21,1.21,0,0,0-1,.46,2,2,0,0,0-.36,1.26v.42a2.11,2.11,0,0,0,.35,1.28,1.21,1.21,0,0,0,1,.46,1.64,1.64,0,0,0,.6-.11,2.69,2.69,0,0,0,.53-.31l.31.43a2.33,2.33,0,0,1-.67.38,2.08,2.08,0,0,1-.78.15,1.82,1.82,0,0,1-1.48-.63A2.47,2.47,0,0,1,409.94,83.57Z"/><path d="M414.89,83.58v0a1.81,1.81,0,0,0,.4,1.27,1.42,1.42,0,0,0,1.13.46,1.79,1.79,0,0,0,.68-.12,2.69,2.69,0,0,0,.62-.33l.26.44a2.72,2.72,0,0,1-.72.38,2.35,2.35,0,0,1-.87.16,2.17,2.17,0,0,1-1.15-.3,1.87,1.87,0,0,1-.75-.8,2.57,2.57,0,0,1-.25-1.16v-.47a2.6,2.6,0,0,1,.24-1.13,2,2,0,0,1,.71-.81,2,2,0,0,1,1.06-.29,1.79,1.79,0,0,1,1.43.6,2.46,2.46,0,0,1,.51,1.66,2.42,2.42,0,0,1,0,.42Zm0-.49h2.7V83a1.79,1.79,0,0,0-.35-1.17,1.19,1.19,0,0,0-1-.43,1.24,1.24,0,0,0-1,.44A1.91,1.91,0,0,0,414.89,83.09Z"/><path d="M372.72,94.24l.34-.43a2.05,2.05,0,0,0,.65.38,2.13,2.13,0,0,0,.78.14,1.55,1.55,0,0,0,.85-.2.63.63,0,0,0,.3-.56V93.5a.62.62,0,0,0-.19-.5,2.11,2.11,0,0,0-.73-.36l-.63-.22a2.46,2.46,0,0,1-.88-.48.91.91,0,0,1-.28-.7v-.16a1,1,0,0,1,.21-.61,1.38,1.38,0,0,1,.59-.42,2.3,2.3,0,0,1,.85-.15,2.82,2.82,0,0,1,.92.15,2.25,2.25,0,0,1,.76.42l-.33.4a2.34,2.34,0,0,0-.65-.33,2.17,2.17,0,0,0-.69-.1,1.29,1.29,0,0,0-.73.17.54.54,0,0,0-.26.47v.07a.53.53,0,0,0,.2.44,2.42,2.42,0,0,0,.71.35l.63.22a2.4,2.4,0,0,1,.88.49,1,1,0,0,1,.29.77v.16a1.07,1.07,0,0,1-.5.93,2.19,2.19,0,0,1-1.27.35A2.83,2.83,0,0,1,372.72,94.24Z"/><path d="M377.33,92.57v-.4a2.49,2.49,0,0,1,.53-1.64,1.84,1.84,0,0,1,1.5-.63,2.09,2.09,0,0,1,.81.15,2,2,0,0,1,.67.44l-.34.38a2,2,0,0,0-.51-.33,1.7,1.7,0,0,0-.61-.1,1.21,1.21,0,0,0-1,.46,2,2,0,0,0-.36,1.26v.42a2.11,2.11,0,0,0,.35,1.28,1.21,1.21,0,0,0,1,.46,1.64,1.64,0,0,0,.6-.11,2.69,2.69,0,0,0,.53-.31l.31.43a2.33,2.33,0,0,1-.67.38,2.08,2.08,0,0,1-.78.15,1.85,1.85,0,0,1-1.49-.63A2.52,2.52,0,0,1,377.33,92.57Z"/><path d="M385.29,91.49v3.26h-.55l0-.56a2,2,0,0,1-1.56.67,1.73,1.73,0,0,1-.76-.17,1.33,1.33,0,0,1-.56-.46,1.18,1.18,0,0,1-.21-.7v-.29a1.16,1.16,0,0,1,.52-1,2.31,2.31,0,0,1,1.39-.37h1.1v-.4a1,1,0,0,0-.26-.78,1.1,1.1,0,0,0-.8-.25,2.73,2.73,0,0,0-.72.09,4.33,4.33,0,0,0-.71.28l-.22-.44a3.23,3.23,0,0,1,1.7-.47,1.74,1.74,0,0,1,1.26.42A1.58,1.58,0,0,1,385.29,91.49Zm-.67,2.18V92.35h-1.05a1.66,1.66,0,0,0-1,.24.81.81,0,0,0-.34.7v.2a.75.75,0,0,0,.27.61,1,1,0,0,0,.71.23,1.77,1.77,0,0,0,.77-.16A1.6,1.6,0,0,0,384.62,93.67Z"/><path d="M389.16,94.75a2.75,2.75,0,0,1-.73.11,1.36,1.36,0,0,1-.91-.28,1.05,1.05,0,0,1-.31-.83V90.53h-.76V90h.77l.06-1.12h.59V90H389v.53h-1.15v3.19a.58.58,0,0,0,.17.45.76.76,0,0,0,.51.16,2.13,2.13,0,0,0,.53-.08Z"/><path d="M392.59,94.75a2.75,2.75,0,0,1-.73.11,1.36,1.36,0,0,1-.91-.28,1.05,1.05,0,0,1-.31-.83V90.53h-.76V90h.77l.06-1.12h.59V90h1.14v.53H391.3v3.19a.58.58,0,0,0,.17.45.76.76,0,0,0,.51.16,2.13,2.13,0,0,0,.53-.08Z"/><path d="M394,92.58v0a1.81,1.81,0,0,0,.41,1.27,1.41,1.41,0,0,0,1.13.46,1.83,1.83,0,0,0,.68-.12,2.91,2.91,0,0,0,.62-.33l.26.44a3.07,3.07,0,0,1-.72.38,2.37,2.37,0,0,1-.88.16,2.13,2.13,0,0,1-1.14-.3,1.87,1.87,0,0,1-.75-.8,2.57,2.57,0,0,1-.26-1.16v-.47A2.6,2.6,0,0,1,393.6,91a2,2,0,0,1,.7-.81,2,2,0,0,1,1.07-.29,1.76,1.76,0,0,1,1.42.6,2.46,2.46,0,0,1,.51,1.66,2.56,2.56,0,0,1,0,.42Zm0-.49h2.7V92a1.74,1.74,0,0,0-.35-1.17,1.18,1.18,0,0,0-1-.43,1.23,1.23,0,0,0-1,.44A2,2,0,0,0,394,92.09Z"/><path d="M401.1,90l-.12.64a.89.89,0,0,0-.32,0,1.36,1.36,0,0,0-1.34,1.15v3h-.67V90h.51l.11.86a1.49,1.49,0,0,1,.55-.71,1.36,1.36,0,0,1,.76-.23A1.88,1.88,0,0,1,401.1,90Z"/><path d="M403,94.75h-.67V90.53h-.75V90H403Zm-.8-6.1a.42.42,0,0,1,.13-.31.44.44,0,0,1,.6,0,.42.42,0,0,1,.13.31.43.43,0,0,1-.86,0Z"/><path d="M408.41,91.48v3.27h-.67V91.54a1.12,1.12,0,0,0-.26-.83,1,1,0,0,0-.74-.27,1.55,1.55,0,0,0-1.35.83v3.48h-.67V90h.57l0,.64a1.83,1.83,0,0,1,1.55-.74,1.53,1.53,0,0,1,1.1.41A1.58,1.58,0,0,1,408.41,91.48Z"/><path d="M413.59,90v4.89a1.72,1.72,0,0,1-.51,1.31,2,2,0,0,1-1.39.48,3,3,0,0,1-1.64-.44l.23-.43a2.63,2.63,0,0,0,.65.25,2.52,2.52,0,0,0,.71.08,1.35,1.35,0,0,0,1-.32,1.3,1.3,0,0,0,.33-1v-.78a1.77,1.77,0,0,1-1.42.69,1.67,1.67,0,0,1-1.29-.55,2.34,2.34,0,0,1-.51-1.66v-.42a2.67,2.67,0,0,1,.26-1.23,1.8,1.8,0,0,1,.69-.75,1.84,1.84,0,0,1,.93-.24,1.72,1.72,0,0,1,1.37.62L413,90Zm-.66,3.49V91.1a1.64,1.64,0,0,0-.52-.5,1.46,1.46,0,0,0-.71-.16,1.21,1.21,0,0,0-.94.39,1.84,1.84,0,0,0-.36,1.27v.43a2,2,0,0,0,.33,1.29,1.1,1.1,0,0,0,.88.4,1.44,1.44,0,0,0,.74-.2A1.89,1.89,0,0,0,412.93,93.47Z"/><path d="M416.76,89.91l.87,1.12-.44.33-.8-1.17-.78,1.17-.45-.32.87-1.13-1.36-.37.17-.52,1.33.48-.06-1.41h.57l-.05,1.41L418,89l.18.52Z"/></g></svg>