<svg xmlns="http://www.w3.org/2000/svg" viewBox="0 0 488.77 168.58"><defs><style>.cls-1{fill:#b7e3f1;}.cls-1,.cls-2,.cls-3,.cls-4,.cls-5,.cls-6,.cls-7{stroke:#a8a8a8;stroke-width:0.33px;}.cls-1,.cls-10,.cls-11,.cls-12,.cls-13,.cls-14,.cls-15,.cls-2,.cls-3,.cls-4,.cls-5,.cls-6,.cls-7,.cls-8,.cls-9{stroke-miterlimit:10;}.cls-2{fill:#e0bdff;}.cls-3{fill:#fafafa;}.cls-4{fill:#fdff7f;}.cls-5{fill:#c1cbd2;}.cls-6{fill:#ffbdbd;}.cls-7{fill:#f1d4b7;}.cls-10,.cls-11,.cls-12,.cls-13,.cls-14,.cls-15,.cls-8,.cls-9{fill:none;}.cls-8{stroke:#1d92b5;}.cls-9{stroke:#5a6673;}.cls-10,.cls-11{stroke:#545454;stroke-width:1.3px;}.cls-11{stroke-dasharray:1.31 1.61;}.cls-12{stroke:#9c9c11;}.cls-13{stroke:#813bbf;}.cls-14{stroke:#a66320;}.cls-15{stroke:#c72e2e;}.cls-16{fill:#960000;}.cls-17{fill:#6e3700;}.cls-18{fill:#696900;}.cls-19{fill:#969611;}.cls-20{fill:#3c434d;}.cls-21{fill:#005578;}.cls-22{fill:#333;}.cls-23{fill:#49008a;}</style></defs><title>diagram_model</title><g id="Edge_weights" data-name="Edge weights"><polygon class="cls-1" points="209.52 43.7 212.77 44.79 214.63 43.68 220.47 43.59 226.4 45.18 237.88 42.83 252.24 44.04 257.42 43.9 260.09 42.98 265.64 44.22 276.38 43.47 280.67 44.22 287.19 43.9 291.49 45.29 298.22 42.78 307.11 45.2 311.26 43.66 317.4 44.12 320.66 42.81 325.69 43.9 330.66 44.31 336.13 42.85 341.17 43.59 345.17 42.38 349 43.67 355.37 43.28 358.55 45.24 361.81 43.94 365.73 45.18 366.55 44.37 377.5 43.19 383.36 44.19 390.83 43.27 394.98 44.12 399.35 43.5 404.31 43.63 406.38 42.06 410.98 44.08 422.01 45.29 423.86 43.68 429.71 43.59 435.63 45.18 447.11 42.83 461.47 44.04 466.66 43.9 469.32 42.98 474.88 44.22 485.61 43.47 488.5 43.7 488.5 2.17 482.12 1.75 478.94 3.7 475.67 2.41 471.75 3.65 470.94 2.84 459.98 1.66 454.13 2.65 446.65 1.73 442.5 2.58 438.14 1.97 433.18 2.1 431.1 0.52 426.5 2.54 415.48 3.76 413.63 2.15 407.78 2.06 401.85 3.65 390.38 1.3 376.01 2.51 370.83 2.37 368.16 1.45 362.61 2.69 351.87 1.93 347.58 2.69 341.06 2.37 336.77 3.76 330.03 1.25 321.14 3.67 317 2.13 310.85 2.58 307.59 1.28 302.56 2.37 297.6 2.78 292.12 1.32 287.08 2.06 283.08 0.85 279.25 2.14 272.89 1.75 269.7 3.7 266.44 2.41 262.52 3.65 261.7 2.84 250.75 1.66 244.9 2.65 237.42 1.73 233.27 2.58 228.9 1.97 223.94 2.1 221.87 0.52 217.27 2.54 206.24 3.76 204.39 2.15 198.54 2.06 192.62 3.65 181.14 1.3 166.78 2.51 161.59 2.37 158.93 1.45 153.38 2.69 142.64 1.93 138.34 2.69 131.83 2.37 127.53 3.76 120.79 1.25 111.91 3.67 107.76 2.13 101.62 2.58 98.36 1.28 93.32 2.37 88.36 2.78 82.88 1.32 77.85 2.06 73.85 0.85 70.03 2.17 70.03 43.7 139.77 43.7 146.13 43.26 149.32 45.21 152.58 43.92 156.5 45.16 157.31 44.35 168.27 43.17 174.12 44.17 181.6 43.24 185.75 44.09 190.12 43.48 195.08 43.61 197.15 42.03 201.75 44.05 209.52 43.7"/><polygon class="cls-1" points="209.52 85.24 209.52 43.7 212.77 44.79 214.63 43.68 220.47 43.59 226.4 45.18 237.88 42.83 252.24 44.04 257.42 43.9 260.09 42.98 265.64 44.22 276.38 43.47 280.67 44.22 287.19 43.9 291.49 45.29 298.22 42.78 307.11 45.2 311.26 43.66 317.4 44.12 320.66 42.81 325.69 43.9 330.66 44.31 336.13 42.85 341.17 43.59 345.17 42.38 349 43.67 355.37 43.28 358.55 45.24 361.81 43.94 365.73 45.18 366.55 44.37 377.5 43.19 383.36 44.19 390.83 43.27 394.98 44.12 399.35 43.5 404.31 43.63 406.38 42.06 410.98 44.08 422.01 45.29 423.86 43.68 429.71 43.59 435.63 45.18 447.11 42.83 461.47 44.04 466.66 43.9 469.32 42.98 474.88 44.22 485.61 43.47 488.5 43.7 488.5 85.23 485.22 85.78 483.37 84.17 477.52 84.08 471.6 85.67 460.12 83.32 445.75 84.53 440.57 84.39 437.91 83.46 432.35 84.71 421.62 83.95 417.32 84.71 410.81 84.39 406.51 85.78 399.77 83.27 390.89 85.69 386.74 84.15 380.59 84.6 377.34 83.3 372.3 84.39 367.34 84.8 361.86 83.34 356.82 84.08 352.83 82.87 349 84.16 342.63 83.77 339.45 85.72 336.18 84.43 332.26 85.67 331.45 84.86 320.49 83.68 314.64 84.67 307.16 83.75 303.02 84.6 298.65 83.99 293.69 84.11 291.61 82.54 287.01 84.56 279.26 85.24 275.99 86.41 274.14 84.8 268.29 84.71 262.36 86.3 250.89 83.95 236.52 85.16 231.34 85.02 228.67 84.1 223.12 85.34 212.38 84.58 209.52 85.24"/><polygon class="cls-2" points="418.75 126.77 425.11 125.24 428.29 127.19 431.56 125.9 435.48 127.14 436.29 126.33 447.25 125.15 453.1 126.15 460.58 125.23 464.73 126.08 469.09 125.46 474.06 125.59 476.13 124.02 480.73 126.54 488.5 126.06 488.5 85.23 485.22 85.78 483.37 84.17 477.52 84.08 471.6 85.67 460.12 83.32 445.75 84.53 440.57 84.39 437.91 83.46 432.35 84.71 421.62 83.95 417.32 84.71 410.81 84.39 406.51 85.78 399.77 83.27 390.89 85.69 386.74 84.15 380.59 84.6 377.34 83.3 372.3 84.39 367.34 84.8 361.86 83.34 356.82 84.08 352.83 82.87 349 84.16 342.63 83.77 339.45 85.72 336.18 84.43 332.26 85.67 331.45 84.86 320.49 83.68 314.64 84.67 307.16 83.75 303.02 84.6 298.65 83.99 293.69 84.11 291.61 82.54 287.01 84.56 279.26 85.24 279.26 126.77 282.52 127.94 284.37 126.33 290.22 126.24 296.14 127.83 307.62 125.48 321.99 126.69 327.17 126.55 329.83 125.63 335.39 126.88 346.12 126.12 349.01 126.77 356.94 126.16 361.23 127.56 367.97 125.04 376.85 127.47 381 125.93 387.15 126.38 390.4 125.08 395.44 126.16 400.4 126.58 405.88 125.12 410.92 125.86 414.91 124.65 418.75 126.77"/><polygon class="cls-3" points="70.03 2.17 70.03 43.7 70.03 168.3 0.28 168.3 0.28 2.17 70.03 2.17"/><polygon class="cls-4" points="139.77 43.7 139.77 168.3 70.03 168.3 70.03 43.7 139.77 43.7"/><polygon class="cls-5" points="209.52 43.7 209.52 85.24 209.52 168.3 139.77 168.3 139.77 43.7 146.13 43.26 149.32 45.21 152.58 43.92 156.5 45.16 157.31 44.35 168.27 43.17 174.12 44.17 181.6 43.24 185.75 44.09 190.12 43.48 195.08 43.61 197.15 42.03 201.75 44.05 209.52 43.7"/><polygon class="cls-1" points="279.26 85.24 279.26 126.77 279.26 168.3 209.52 168.3 209.52 85.24 212.38 84.58 223.12 85.34 228.67 84.1 231.34 85.02 236.52 85.16 250.89 83.95 262.36 86.3 268.29 84.71 274.14 84.8 275.99 86.41 279.26 85.24"/><polygon class="cls-6" points="349.01 126.77 349.01 168.3 279.26 168.3 279.26 126.77 282.52 127.94 284.37 126.33 290.22 126.24 296.14 127.83 307.62 125.48 321.99 126.69 327.17 126.55 329.83 125.63 335.39 126.88 346.12 126.12 349.01 126.77"/><polygon class="cls-6" points="418.75 126.77 418.75 168.3 349.01 168.3 349.01 126.77 356.94 126.16 361.23 127.56 367.97 125.04 376.85 127.47 381 125.93 387.15 126.38 390.4 125.08 395.44 126.16 400.4 126.58 405.88 125.12 410.92 125.86 414.91 124.65 418.75 126.77"/><polygon class="cls-7" points="488.5 126.06 488.5 168.3 418.75 168.3 418.75 126.77 425.11 125.24 428.29 127.19 431.56 125.9 435.48 127.14 436.29 126.33 447.25 125.15 453.1 126.15 460.58 125.23 464.73 126.08 469.09 125.46 474.06 125.59 476.13 124.02 480.73 126.54 488.5 126.06"/><g id="b2xVGT.tif"><polyline class="cls-8" points="488.5 2.17 482.12 1.75 478.94 3.7 475.67 2.41 471.75 3.65 470.94 2.83 459.98 1.66 454.13 2.65 446.65 1.73 442.5 2.58 438.14 1.97 433.18 2.1 431.1 0.52 426.5 2.54 415.48 3.76 413.63 2.15 407.78 2.06 401.85 3.65 390.38 1.3 376.01 2.51 370.83 2.37 368.16 1.44 362.61 2.69 351.87 1.93 347.58 2.69 341.06 2.37 336.77 3.76 330.03 1.25 321.14 3.67 317 2.13 310.85 2.58 307.59 1.28 302.56 2.37 297.6 2.78 292.12 1.32 287.08 2.06 283.08 0.85 279.25 2.14 272.89 1.75 269.7 3.7 266.44 2.41 262.52 3.65 261.7 2.83 250.75 1.66 244.9 2.65 237.42 1.73 233.27 2.58 228.9 1.97 223.94 2.1 221.87 0.52 217.27 2.54 206.24 3.76 204.39 2.15 198.54 2.06 192.62 3.65 181.14 1.3 166.78 2.51 161.59 2.37 158.93 1.44 153.38 2.69 142.64 1.93 138.34 2.69 131.83 2.37 127.53 3.76 120.79 1.25 111.91 3.67 107.76 2.13 101.62 2.58 98.36 1.28 93.32 2.37 88.36 2.78 82.88 1.32 77.85 2.06 73.85 0.85 70.03 2.17"/></g><polyline class="cls-8" points="209.52 43.7 212.77 44.78 214.63 43.68 220.47 43.59 226.4 45.18 237.88 42.83 252.24 44.04 257.42 43.9 260.09 42.98 265.64 44.22 276.38 43.46 280.67 44.22 287.19 43.9 291.49 45.29 298.22 42.78 307.11 45.2 311.26 43.66 317.4 44.12 320.66 42.81 325.69 43.9 330.66 44.31 336.13 42.85 341.17 43.59 345.17 42.38 349 43.67 355.37 43.28 358.55 45.23 361.81 43.94 365.73 45.18 366.55 44.37 377.5 43.19 383.36 44.19 390.83 43.27 394.98 44.12 399.35 43.5 404.31 43.63 406.38 42.05 410.98 44.07 422.01 45.29 423.86 43.68 429.71 43.59 435.63 45.18 447.11 42.83 461.47 44.04 466.66 43.9 469.32 42.98 474.88 44.22 485.61 43.46 488.5 43.7"/><polyline class="cls-9" points="139.77 43.7 146.13 43.26 149.32 45.21 152.58 43.92 156.5 45.16 157.31 44.35 168.27 43.17 174.12 44.16 181.6 43.24 185.75 44.09 190.12 43.48 195.08 43.6 197.15 42.03 201.75 44.05 209.52 43.7"/><line class="cls-10" x1="0.12" y1="2.17" x2="0.77" y2="2.17"/><line class="cls-11" x1="2.38" y1="2.17" x2="68.57" y2="2.17"/><line class="cls-10" x1="69.38" y1="2.17" x2="70.03" y2="2.17"/><line class="cls-12" x1="70.03" y1="43.7" x2="139.77" y2="43.7"/><polyline class="cls-8" points="279.26 85.23 275.99 86.41 274.14 84.8 268.29 84.71 262.36 86.3 250.89 83.95 236.52 85.16 231.34 85.02 228.67 84.1 223.12 85.34 212.38 84.58 209.52 85.23"/><polyline class="cls-13" points="488.5 85.23 485.22 85.78 483.37 84.17 477.52 84.08 471.6 85.67 460.12 83.32 445.75 84.53 440.57 84.38 437.91 83.46 432.35 84.71 421.62 83.95 417.32 84.71 410.81 84.38 406.51 85.78 399.77 83.26 390.89 85.69 386.74 84.15 380.59 84.6 377.34 83.3 372.3 84.38 367.34 84.8 361.86 83.34 356.82 84.08 352.83 82.87 349 84.16 342.63 83.77 339.45 85.72 336.18 84.42 332.26 85.67 331.45 84.85 320.49 83.68 314.64 84.67 307.16 83.75 303.02 84.6 298.65 83.99 293.69 84.11 291.61 82.54 287.01 84.56 279.26 85.23"/><polyline class="cls-14" points="418.75 126.77 425.11 125.24 428.29 127.19 431.56 125.9 435.48 127.14 436.29 126.33 447.25 125.15 453.1 126.15 460.58 125.22 464.73 126.08 469.09 125.46 474.06 125.59 476.13 124.02 480.73 126.54 488.5 126.06"/><polyline class="cls-15" points="349.01 126.77 356.94 126.16 361.23 127.56 367.97 125.04 376.85 127.46 381 125.93 387.15 126.38 390.4 125.08 395.44 126.16 400.4 126.58 405.88 125.12 410.92 125.86 414.91 124.65 418.75 126.77"/><polyline class="cls-15" points="279.26 126.77 282.52 127.94 284.37 126.33 290.22 126.24 296.14 127.83 307.62 125.48 321.99 126.69 327.17 126.55 329.83 125.63 335.39 126.88 346.12 126.12 349.01 126.77"/><path class="cls-16" d="M304.69,135.43v1.1a2.67,2.67,0,0,1-.72,2,2.81,2.81,0,0,1-2.05.71h-1.56v-6.3h1.79a2.5,2.5,0,0,1,1.89.68A2.54,2.54,0,0,1,304.69,135.43Zm-.67,0a2,2,0,0,0-.49-1.43,1.82,1.82,0,0,0-1.42-.52H301v5.2h.89a2.12,2.12,0,0,0,1.57-.54,2.16,2.16,0,0,0,.53-1.57Z"/><path class="cls-16" d="M307,139.21h-.67V135h-.74v-.52H307Zm-.79-6.1a.41.41,0,0,1,.42-.42.45.45,0,0,1,.31.12.41.41,0,0,1,.12.3.41.41,0,0,1-.43.43.41.41,0,0,1-.3-.12A.45.45,0,0,1,306.18,133.11Z"/><path class="cls-16" d="M309.56,133.77v.7h1.3V135h-1.3v4.22h-.66V135h-.66v-.52h.66v-.65a1.35,1.35,0,0,1,.37-1,1.45,1.45,0,0,1,1.06-.36,2.6,2.6,0,0,1,.77.11l-.09.51a2.23,2.23,0,0,0-.61-.08.86.86,0,0,0-.63.19A.8.8,0,0,0,309.56,133.77Z"/><path class="cls-16" d="M312.79,133.77v.7h1.3V135h-1.3v4.22h-.66V135h-.66v-.52h.66v-.65a1.35,1.35,0,0,1,.37-1,1.45,1.45,0,0,1,1.06-.36,2.55,2.55,0,0,1,.77.11l-.09.51a2.23,2.23,0,0,0-.61-.08.86.86,0,0,0-.63.19A.8.8,0,0,0,312.79,133.77Z"/><path class="cls-16" d="M318.79,134.47v4.74h-.57l-.05-.66a2,2,0,0,1-1.57.77,1.52,1.52,0,0,1-1.07-.39,1.36,1.36,0,0,1-.42-1v-3.42h.66v3.39a1,1,0,0,0,.25.69,1,1,0,0,0,.71.24,1.5,1.5,0,0,0,.78-.23,1.9,1.9,0,0,0,.61-.62v-3.47Z"/><path class="cls-16" d="M320,138.71l.34-.43a2.69,2.69,0,0,0,.65.38,2.16,2.16,0,0,0,.78.13,1.55,1.55,0,0,0,.85-.19A.65.65,0,0,0,323,138V138a.65.65,0,0,0-.2-.5,2.16,2.16,0,0,0-.72-.35l-.63-.23a2.51,2.51,0,0,1-.89-.48.94.94,0,0,1-.27-.7v-.15a1,1,0,0,1,.21-.61,1.48,1.48,0,0,1,.59-.43,2.24,2.24,0,0,1,.84-.15,2.77,2.77,0,0,1,.92.15,2.42,2.42,0,0,1,.77.43l-.34.39a2.85,2.85,0,0,0-.65-.33,2.17,2.17,0,0,0-.69-.1,1.34,1.34,0,0,0-.72.17.54.54,0,0,0-.27.47v.07a.56.56,0,0,0,.2.44,2.2,2.2,0,0,0,.71.35l.63.23a2.46,2.46,0,0,1,.88.48,1,1,0,0,1,.29.78V138a1.09,1.09,0,0,1-.5.94,2.15,2.15,0,0,1-1.26.34A2.83,2.83,0,0,1,320,138.71Z"/><path class="cls-16" d="M325.3,137v0a1.85,1.85,0,0,0,.4,1.28,1.45,1.45,0,0,0,1.13.45,2,2,0,0,0,.68-.11,3.77,3.77,0,0,0,.62-.33l.26.43a2.47,2.47,0,0,1-.72.39,2.57,2.57,0,0,1-.87.15,2.26,2.26,0,0,1-1.15-.29,2,2,0,0,1-.75-.81,2.57,2.57,0,0,1-.25-1.16v-.47a2.63,2.63,0,0,1,.24-1.13,2,2,0,0,1,.71-.8,1.88,1.88,0,0,1,1.06-.3,1.79,1.79,0,0,1,1.43.6,2.48,2.48,0,0,1,.51,1.66,2.34,2.34,0,0,1,0,.42Zm0-.48H328v-.07a1.83,1.83,0,0,0-.35-1.17,1.35,1.35,0,0,0-2,0A1.87,1.87,0,0,0,325.3,136.56Z"/><path class="cls-16" d="M297.44,143.47l-.11.63a1.34,1.34,0,0,0-.33,0c-.66,0-1.1.39-1.34,1.16v3H295v-4.74h.5l.11.85a1.46,1.46,0,0,1,.55-.7,1.31,1.31,0,0,1,.76-.23A1.82,1.82,0,0,1,297.44,143.47Z"/><path class="cls-16" d="M298.7,146v0a1.85,1.85,0,0,0,.4,1.28,1.45,1.45,0,0,0,1.13.45,2,2,0,0,0,.68-.11,3.77,3.77,0,0,0,.62-.33l.26.43a2.62,2.62,0,0,1-1.59.54,2.26,2.26,0,0,1-1.15-.29,2,2,0,0,1-.75-.81,2.57,2.57,0,0,1-.25-1.16v-.47a2.5,2.5,0,0,1,.25-1.13,1.93,1.93,0,0,1,.7-.8,1.88,1.88,0,0,1,1.06-.3,1.79,1.79,0,0,1,1.43.6,2.48,2.48,0,0,1,.51,1.66,2.34,2.34,0,0,1,0,.42Zm0-.48h2.7v-.07a1.83,1.83,0,0,0-.35-1.17,1.35,1.35,0,0,0-2,0A1.93,1.93,0,0,0,298.7,145.56Z"/><path class="cls-16" d="M308,148.21a1.44,1.44,0,0,1-.53.11.88.88,0,0,1-.64-.23.85.85,0,0,1-.24-.65v-5.37c-.62-.07-1-.1-1.21-.1a1.38,1.38,0,0,0-.88.24,1,1,0,0,0-.28.81v.45h1.29V144h-1.29v4.23h-.67V144h-.66v-.52h.66v-.41c0-1.08.59-1.62,1.76-1.62a12.26,12.26,0,0,1,1.32.11h.63v5.79a.47.47,0,0,0,.09.33.34.34,0,0,0,.28.1,1.36,1.36,0,0,0,.29,0Z"/><path class="cls-16" d="M309.5,146v0a1.85,1.85,0,0,0,.4,1.28,1.45,1.45,0,0,0,1.13.45,2,2,0,0,0,.68-.11,3.77,3.77,0,0,0,.62-.33l.26.43a2.47,2.47,0,0,1-.72.39,2.53,2.53,0,0,1-.87.15,2.26,2.26,0,0,1-1.15-.29,2,2,0,0,1-.75-.81,2.57,2.57,0,0,1-.25-1.16v-.47a2.63,2.63,0,0,1,.24-1.13,2,2,0,0,1,.71-.8,1.88,1.88,0,0,1,1.06-.3,1.79,1.79,0,0,1,1.43.6,2.48,2.48,0,0,1,.51,1.66,2.34,2.34,0,0,1,0,.42Zm0-.48h2.7v-.07a1.83,1.83,0,0,0-.35-1.17,1.35,1.35,0,0,0-2,0A1.93,1.93,0,0,0,309.5,145.56Z"/><path class="cls-16" d="M313.77,146v-.39a2.49,2.49,0,0,1,.53-1.65,1.84,1.84,0,0,1,1.5-.63,2.09,2.09,0,0,1,.81.15,2.19,2.19,0,0,1,.67.45l-.34.37a1.74,1.74,0,0,0-.51-.32,1.71,1.71,0,0,0-.62-.11,1.2,1.2,0,0,0-1,.46,2,2,0,0,0-.36,1.26V146a2,2,0,0,0,.35,1.28,1.18,1.18,0,0,0,1,.46,1.55,1.55,0,0,0,.59-.11,2.43,2.43,0,0,0,.54-.3l.31.43a3,3,0,0,1-.68.38,2.19,2.19,0,0,1-.77.14,1.85,1.85,0,0,1-1.49-.63A2.5,2.5,0,0,1,313.77,146Z"/><path class="cls-16" d="M320.73,148.21a2.75,2.75,0,0,1-.73.11,1.31,1.31,0,0,1-.91-.28,1,1,0,0,1-.32-.83V144H318v-.52h.77l.06-1.13h.59v1.13h1.14V144h-1.14v3.2a.61.61,0,0,0,.17.45.76.76,0,0,0,.51.15,2.15,2.15,0,0,0,.53-.07Z"/><path class="cls-16" d="M322.77,148.21h-.67V144h-.74v-.52h1.41Zm-.79-6.1a.41.41,0,0,1,.42-.42.45.45,0,0,1,.31.12.41.41,0,0,1,.12.3.41.41,0,0,1-.43.43.41.41,0,0,1-.3-.12A.45.45,0,0,1,322,142.11Z"/><path class="cls-16" d="M328.39,145.59v.47a2.72,2.72,0,0,1-.25,1.17,1.88,1.88,0,0,1-.73.8,2.18,2.18,0,0,1-1.15.29,2,2,0,0,1-1.55-.62,2.36,2.36,0,0,1-.55-1.64v-.47a2.66,2.66,0,0,1,.24-1.15,1.87,1.87,0,0,1,.71-.79,2.21,2.21,0,0,1,1.15-.29,2.18,2.18,0,0,1,1.15.29,1.92,1.92,0,0,1,.73.79A2.66,2.66,0,0,1,328.39,145.59Zm-3.57,0v.47a2,2,0,0,0,.37,1.28,1.28,1.28,0,0,0,1.07.46,1.33,1.33,0,0,0,1.08-.46,2,2,0,0,0,.38-1.28v-.47a1.86,1.86,0,0,0-.38-1.23,1.35,1.35,0,0,0-1.08-.45,1.31,1.31,0,0,0-1.07.45A1.9,1.9,0,0,0,324.82,145.58Z"/><path class="cls-16" d="M333.45,145v3.26h-.66V145a1.18,1.18,0,0,0-.26-.83,1,1,0,0,0-.74-.27,1.56,1.56,0,0,0-1.36.84v3.47h-.67v-4.74h.57l.05.63a1.87,1.87,0,0,1,1.55-.74,1.5,1.5,0,0,1,1.11.42A1.59,1.59,0,0,1,333.45,145Z"/><path class="cls-16" d="M374.44,135.43v1.1a2.67,2.67,0,0,1-.72,2,2.82,2.82,0,0,1-2.05.71H370.1v-6.3h1.79a2.54,2.54,0,0,1,1.9.68A2.58,2.58,0,0,1,374.44,135.43Zm-.68,0a2,2,0,0,0-.48-1.43,1.85,1.85,0,0,0-1.42-.52h-1.08v5.2h.89a2.08,2.08,0,0,0,1.56-.54,2.12,2.12,0,0,0,.53-1.57Z"/><path class="cls-16" d="M376.72,139.21h-.67V135h-.75v-.52h1.42Zm-.8-6.1a.38.38,0,0,1,.13-.3.43.43,0,0,1,.6,0,.38.38,0,0,1,.13.3.42.42,0,0,1-.13.31.43.43,0,0,1-.6,0A.42.42,0,0,1,375.92,133.11Z"/><path class="cls-16" d="M379.31,133.77v.7h1.29V135h-1.29v4.22h-.67V135H378v-.52h.65v-.65a1.35,1.35,0,0,1,.37-1,1.46,1.46,0,0,1,1.06-.36,2.67,2.67,0,0,1,.78.11l-.09.51a2.3,2.3,0,0,0-.62-.08.9.9,0,0,0-.63.19A.83.83,0,0,0,379.31,133.77Z"/><path class="cls-16" d="M382.54,133.77v.7h1.3V135h-1.3v4.22h-.67V135h-.65v-.52h.65v-.65a1.38,1.38,0,0,1,.37-1,1.46,1.46,0,0,1,1.06-.36,2.67,2.67,0,0,1,.78.11l-.09.51a2.28,2.28,0,0,0-.61-.08.91.91,0,0,0-.64.19A.83.83,0,0,0,382.54,133.77Z"/><path class="cls-16" d="M388.53,134.47v4.74H388l-.06-.66a2,2,0,0,1-1.56.77,1.54,1.54,0,0,1-1.08-.39,1.36,1.36,0,0,1-.42-1v-3.42h.67v3.39a.91.91,0,0,0,.25.69,1,1,0,0,0,.7.24,1.45,1.45,0,0,0,.78-.23,1.93,1.93,0,0,0,.62-.62v-3.47Z"/><path class="cls-16" d="M389.77,138.71l.35-.43a2.51,2.51,0,0,0,.65.38,2.13,2.13,0,0,0,.78.13,1.58,1.58,0,0,0,.85-.19.64.64,0,0,0,.3-.57V138a.69.69,0,0,0-.19-.5,2.14,2.14,0,0,0-.73-.35l-.63-.23a2.46,2.46,0,0,1-.88-.48.91.91,0,0,1-.28-.7v-.15a1,1,0,0,1,.21-.61,1.48,1.48,0,0,1,.59-.43,2.3,2.3,0,0,1,.85-.15,2.82,2.82,0,0,1,.92.15,2.38,2.38,0,0,1,.76.43l-.33.39a3.07,3.07,0,0,0-.65-.33,2.17,2.17,0,0,0-.69-.1,1.38,1.38,0,0,0-.73.17.55.55,0,0,0-.26.47v.07a.55.55,0,0,0,.19.44,2.27,2.27,0,0,0,.72.35l.63.23a2.55,2.55,0,0,1,.88.48,1,1,0,0,1,.29.78V138a1.09,1.09,0,0,1-.5.94,2.21,2.21,0,0,1-1.27.34A2.83,2.83,0,0,1,389.77,138.71Z"/><path class="cls-16" d="M395,137v0a1.85,1.85,0,0,0,.4,1.28,1.45,1.45,0,0,0,1.14.45,2,2,0,0,0,.67-.11,3.84,3.84,0,0,0,.63-.33l.26.43a2.76,2.76,0,0,1-.72.39,2.58,2.58,0,0,1-.88.15,2.19,2.19,0,0,1-1.14-.29,2,2,0,0,1-.75-.81,2.57,2.57,0,0,1-.26-1.16v-.47a2.5,2.5,0,0,1,.25-1.13,2,2,0,0,1,.7-.8,1.89,1.89,0,0,1,1.07-.3,1.77,1.77,0,0,1,1.42.6,2.48,2.48,0,0,1,.51,1.66c0,.17,0,.32,0,.42Zm0-.48h2.7v-.07a1.83,1.83,0,0,0-.35-1.17,1.33,1.33,0,0,0-2,0A1.93,1.93,0,0,0,395,136.56Z"/><path class="cls-16" d="M358.12,148.21a2.69,2.69,0,0,1-.73.11,1.32,1.32,0,0,1-.91-.28,1,1,0,0,1-.31-.83V144h-.76v-.52h.78l.05-1.13h.6v1.13H358V144h-1.14v3.2a.57.57,0,0,0,.17.45.73.73,0,0,0,.5.15,2.09,2.09,0,0,0,.53-.07Z"/><path class="cls-16" d="M361.8,143.47l-.11.63a1.34,1.34,0,0,0-.33,0c-.66,0-1.1.39-1.34,1.16v3h-.67v-4.74h.51l.11.85a1.46,1.46,0,0,1,.55-.7,1.31,1.31,0,0,1,.76-.23A1.88,1.88,0,0,1,361.8,143.47Z"/><path class="cls-16" d="M365.93,145v3.26h-.55l0-.56a2,2,0,0,1-1.56.67,1.76,1.76,0,0,1-.76-.16,1.42,1.42,0,0,1-.56-.47,1.17,1.17,0,0,1-.21-.69v-.3a1.16,1.16,0,0,1,.52-1,2.35,2.35,0,0,1,1.4-.38h1.1v-.39a1.06,1.06,0,0,0-.26-.78,1.11,1.11,0,0,0-.8-.26,2.39,2.39,0,0,0-.73.1,3.84,3.84,0,0,0-.71.28l-.21-.45a3.29,3.29,0,0,1,1.69-.47,1.71,1.71,0,0,1,1.26.42A1.61,1.61,0,0,1,365.93,145Zm-.66,2.18v-1.32h-1.06a1.61,1.61,0,0,0-.95.24.8.8,0,0,0-.34.7v.2a.79.79,0,0,0,.26.62,1.08,1.08,0,0,0,.71.23,1.85,1.85,0,0,0,.78-.17A1.68,1.68,0,0,0,365.27,147.13Z"/><path class="cls-16" d="M371.3,145v3.26h-.67V145a1.13,1.13,0,0,0-.26-.83,1,1,0,0,0-.74-.27,1.57,1.57,0,0,0-1.36.84v3.47h-.66v-4.74h.56l.06.63a1.85,1.85,0,0,1,1.55-.74,1.49,1.49,0,0,1,1.1.42A1.55,1.55,0,0,1,371.3,145Z"/><path class="cls-16" d="M372.45,147.71l.34-.43a2.69,2.69,0,0,0,.65.38,2.13,2.13,0,0,0,.78.13,1.55,1.55,0,0,0,.85-.19.65.65,0,0,0,.31-.57V147a.65.65,0,0,0-.2-.5,2.16,2.16,0,0,0-.72-.35l-.63-.23a2.43,2.43,0,0,1-.89-.48.94.94,0,0,1-.27-.7v-.15a1,1,0,0,1,.21-.61,1.42,1.42,0,0,1,.59-.43,2.24,2.24,0,0,1,.84-.15,2.77,2.77,0,0,1,.92.15,2.42,2.42,0,0,1,.77.43l-.34.39A2.85,2.85,0,0,0,375,144a2.17,2.17,0,0,0-.69-.1,1.34,1.34,0,0,0-.72.17.54.54,0,0,0-.27.47v.07a.56.56,0,0,0,.2.44,2.2,2.2,0,0,0,.71.35l.63.23a2.46,2.46,0,0,1,.88.48,1,1,0,0,1,.29.78V147a1.09,1.09,0,0,1-.5.94,2.15,2.15,0,0,1-1.26.34A2.83,2.83,0,0,1,372.45,147.71Z"/><path class="cls-16" d="M383.59,144.91v3.3h-.66V145a1.19,1.19,0,0,0-.25-.81.81.81,0,0,0-.64-.27,1.38,1.38,0,0,0-1.19.85v3.47h-.67v-3.29a1.11,1.11,0,0,0-.24-.77.83.83,0,0,0-.63-.26,1.39,1.39,0,0,0-1.2.85v3.47h-.67v-4.74H378l.06.62a1.59,1.59,0,0,1,1.37-.73,1.46,1.46,0,0,1,.77.21,1.26,1.26,0,0,1,.5.61,1.71,1.71,0,0,1,1.48-.82,1.38,1.38,0,0,1,.7.18,1.24,1.24,0,0,1,.51.53A1.74,1.74,0,0,1,383.59,144.91Z"/><path class="cls-16" d="M386.08,148.21h-.67V144h-.75v-.52h1.42Zm-.8-6.1a.38.38,0,0,1,.13-.3.44.44,0,0,1,.6,0,.38.38,0,0,1,.13.3.42.42,0,0,1-.13.31.44.44,0,0,1-.6,0A.42.42,0,0,1,385.28,142.11Z"/><path class="cls-16" d="M387.32,147.71l.34-.43a2.51,2.51,0,0,0,.65.38,2.13,2.13,0,0,0,.78.13,1.55,1.55,0,0,0,.85-.19.64.64,0,0,0,.3-.57V147a.65.65,0,0,0-.19-.5,2.14,2.14,0,0,0-.73-.35l-.63-.23a2.46,2.46,0,0,1-.88-.48,1,1,0,0,1-.28-.7v-.15a.92.92,0,0,1,.22-.61,1.45,1.45,0,0,1,.58-.43,2.34,2.34,0,0,1,.85-.15,2.82,2.82,0,0,1,.92.15,2.27,2.27,0,0,1,.76.43l-.33.39a2.85,2.85,0,0,0-.65-.33,2.17,2.17,0,0,0-.69-.1,1.38,1.38,0,0,0-.73.17.55.55,0,0,0-.26.47v.07a.56.56,0,0,0,.2.44,2.2,2.2,0,0,0,.71.35l.63.23a2.55,2.55,0,0,1,.88.48,1,1,0,0,1,.29.78V147a1.09,1.09,0,0,1-.5.94,2.19,2.19,0,0,1-1.27.34A2.82,2.82,0,0,1,387.32,147.71Z"/><path class="cls-16" d="M391.79,147.71l.34-.43a2.69,2.69,0,0,0,.65.38,2.2,2.2,0,0,0,.78.13,1.55,1.55,0,0,0,.85-.19.64.64,0,0,0,.3-.57V147a.65.65,0,0,0-.19-.5,2.16,2.16,0,0,0-.72-.35l-.63-.23a2.29,2.29,0,0,1-.88-.48.91.91,0,0,1-.28-.7v-.15a1,1,0,0,1,.21-.61,1.42,1.42,0,0,1,.59-.43,2.24,2.24,0,0,1,.84-.15,2.77,2.77,0,0,1,.92.15,2.42,2.42,0,0,1,.77.43l-.34.39a2.66,2.66,0,0,0-.65-.33,2.17,2.17,0,0,0-.69-.1,1.34,1.34,0,0,0-.72.17.54.54,0,0,0-.27.47v.07a.56.56,0,0,0,.2.44,2.2,2.2,0,0,0,.71.35l.63.23a2.46,2.46,0,0,1,.88.48,1,1,0,0,1,.29.78V147a1.09,1.09,0,0,1-.5.94,2.15,2.15,0,0,1-1.26.34A2.83,2.83,0,0,1,391.79,147.71Z"/><path class="cls-16" d="M397.51,148.21h-.67V144h-.75v-.52h1.42Zm-.8-6.1a.38.38,0,0,1,.13-.3.44.44,0,0,1,.6,0,.38.38,0,0,1,.13.3.42.42,0,0,1-.13.31.43.43,0,0,1-.6,0A.42.42,0,0,1,396.71,142.11Z"/><path class="cls-16" d="M403.12,145.59v.47a2.58,2.58,0,0,1-.25,1.17,1.8,1.8,0,0,1-.72.8,2.21,2.21,0,0,1-1.15.29,2,2,0,0,1-1.56-.62,2.36,2.36,0,0,1-.55-1.64v-.47a2.66,2.66,0,0,1,.24-1.15,1.89,1.89,0,0,1,.72-.79,2.18,2.18,0,0,1,1.15-.29,2.21,2.21,0,0,1,1.15.29,1.83,1.83,0,0,1,.72.79A2.52,2.52,0,0,1,403.12,145.59Zm-3.56,0v.47a2,2,0,0,0,.37,1.28,1.27,1.27,0,0,0,1.07.46,1.3,1.3,0,0,0,1.07-.46,1.92,1.92,0,0,0,.39-1.28v-.47a1.81,1.81,0,0,0-.39-1.23,1.32,1.32,0,0,0-1.07-.45,1.29,1.29,0,0,0-1.07.45A1.84,1.84,0,0,0,399.56,145.58Z"/><path class="cls-16" d="M408.19,145v3.26h-.67V145a1.18,1.18,0,0,0-.26-.83,1,1,0,0,0-.74-.27,1.56,1.56,0,0,0-1.36.84v3.47h-.66v-4.74h.57l.05.63a1.85,1.85,0,0,1,1.55-.74,1.49,1.49,0,0,1,1.1.42A1.55,1.55,0,0,1,408.19,145Z"/><path class="cls-16" d="M411.26,143.38l.87,1.12-.45.33-.79-1.17-.79,1.17-.44-.33.87-1.12-1.36-.38.17-.51,1.32.48-.05-1.42h.57l-.06,1.42,1.32-.49.19.52Z"/><path class="cls-17" d="M430.71,138.52l.36-.42a3.64,3.64,0,0,0,.52.35,1.9,1.9,0,0,0,.54.21,2.94,2.94,0,0,0,.77.08,2.1,2.1,0,0,0,.88-.16,1.22,1.22,0,0,0,.53-.43,1,1,0,0,0,.17-.52v-.15a.9.9,0,0,0-.26-.68,2.8,2.8,0,0,0-.91-.46l-.9-.3a2.6,2.6,0,0,1-1.12-.63,1.25,1.25,0,0,1-.34-.89v-.19a1.25,1.25,0,0,1,.24-.73,1.64,1.64,0,0,1,.71-.57,2.73,2.73,0,0,1,1.16-.23,2.84,2.84,0,0,1,2.07.82l-.36.4a3.1,3.1,0,0,0-.79-.51,2.56,2.56,0,0,0-.92-.16,1.87,1.87,0,0,0-.8.15,1.1,1.1,0,0,0-.48.37.81.81,0,0,0-.15.46v.18a.73.73,0,0,0,.27.56,2.5,2.5,0,0,0,.9.44l.81.26a3.17,3.17,0,0,1,1.15.62,1.32,1.32,0,0,1,.39,1v.23a1.43,1.43,0,0,1-.27.84,1.81,1.81,0,0,1-.78.62,3.39,3.39,0,0,1-3.39-.58Z"/><path class="cls-17" d="M440.19,134.47v4.74h-.56l-.06-.66a2,2,0,0,1-1.56.77,1.54,1.54,0,0,1-1.08-.39,1.36,1.36,0,0,1-.42-1v-3.42h.67v3.39a.91.91,0,0,0,.25.69,1,1,0,0,0,.7.24,1.45,1.45,0,0,0,.78-.23,1.93,1.93,0,0,0,.62-.62v-3.47Z"/><path class="cls-17" d="M445.83,136.59v.47a2.59,2.59,0,0,1-.26,1.15,1.89,1.89,0,0,1-.69.81,1.7,1.7,0,0,1-1,.3,1.76,1.76,0,0,1-1.33-.58l-.06.47H442v-6.66h.66V135a1.8,1.8,0,0,1,1.42-.62,1.58,1.58,0,0,1,.94.28,1.88,1.88,0,0,1,.63.78A3.05,3.05,0,0,1,445.83,136.59Zm-.67,0a2.08,2.08,0,0,0-.32-1.24,1,1,0,0,0-.9-.44,1.56,1.56,0,0,0-1.32.7v2.62a1.5,1.5,0,0,0,1.19.57,1.23,1.23,0,0,0,1-.46,1.94,1.94,0,0,0,.37-1.25Z"/><path class="cls-17" d="M446.72,138.71l.34-.43a2.51,2.51,0,0,0,.65.38,2.13,2.13,0,0,0,.78.13,1.55,1.55,0,0,0,.85-.19.64.64,0,0,0,.3-.57V138a.65.65,0,0,0-.19-.5,2.14,2.14,0,0,0-.73-.35l-.63-.23a2.46,2.46,0,0,1-.88-.48,1,1,0,0,1-.28-.7v-.15a1,1,0,0,1,.21-.61,1.56,1.56,0,0,1,.59-.43,2.34,2.34,0,0,1,.85-.15,2.82,2.82,0,0,1,.92.15,2.27,2.27,0,0,1,.76.43l-.33.39a3.07,3.07,0,0,0-.65-.33,2.17,2.17,0,0,0-.69-.1,1.32,1.32,0,0,0-.72.17.54.54,0,0,0-.27.47v.07a.56.56,0,0,0,.2.44,2.2,2.2,0,0,0,.71.35l.63.23a2.55,2.55,0,0,1,.88.48,1,1,0,0,1,.29.78V138a1.09,1.09,0,0,1-.5.94,2.19,2.19,0,0,1-1.27.34A2.82,2.82,0,0,1,446.72,138.71Z"/><path class="cls-17" d="M455.3,134.47v4.74h-.56l-.06-.66a2,2,0,0,1-1.56.77,1.5,1.5,0,0,1-1.07-.39,1.33,1.33,0,0,1-.43-1v-3.42h.67v3.39a.91.91,0,0,0,.25.69,1,1,0,0,0,.7.24,1.45,1.45,0,0,0,.78-.23,1.93,1.93,0,0,0,.62-.62v-3.47Z"/><path class="cls-17" d="M459.52,134.47l-.12.63a1.34,1.34,0,0,0-.33,0c-.66,0-1.1.39-1.34,1.16v3h-.66v-4.74h.5l.11.85a1.46,1.46,0,0,1,.55-.7,1.31,1.31,0,0,1,.76-.23A2,2,0,0,1,459.52,134.47Z"/><path class="cls-17" d="M461.39,133.77v.7h1.29V135h-1.29v4.22h-.67V135h-.66v-.52h.66v-.65a1.35,1.35,0,0,1,.37-1,1.46,1.46,0,0,1,1.06-.36,2.67,2.67,0,0,1,.78.11l-.09.51a2.3,2.3,0,0,0-.62-.08.88.88,0,0,0-.63.19A.79.79,0,0,0,461.39,133.77Z"/><path class="cls-17" d="M467,136v3.26h-.55l-.05-.56a2,2,0,0,1-1.56.67,1.76,1.76,0,0,1-.76-.16,1.32,1.32,0,0,1-.55-.47,1.18,1.18,0,0,1-.22-.69v-.3a1.18,1.18,0,0,1,.52-1,2.35,2.35,0,0,1,1.4-.38h1.1v-.39a1.06,1.06,0,0,0-.26-.78,1.11,1.11,0,0,0-.8-.26,2.39,2.39,0,0,0-.73.1,3.52,3.52,0,0,0-.7.28l-.22-.45a3.29,3.29,0,0,1,1.69-.47,1.71,1.71,0,0,1,1.26.42A1.62,1.62,0,0,1,467,136Zm-.67,2.18v-1.32h-1.05a1.62,1.62,0,0,0-1,.24.8.8,0,0,0-.34.7v.2a.77.77,0,0,0,.27.62,1,1,0,0,0,.7.23,1.85,1.85,0,0,0,.78-.17A1.68,1.68,0,0,0,466.32,138.13Z"/><path class="cls-17" d="M468.28,137v-.39a2.49,2.49,0,0,1,.53-1.65,1.84,1.84,0,0,1,1.5-.63,2.09,2.09,0,0,1,.81.15,2.19,2.19,0,0,1,.67.45l-.34.37a1.74,1.74,0,0,0-.51-.32,1.71,1.71,0,0,0-.62-.11,1.2,1.2,0,0,0-1,.46,2,2,0,0,0-.36,1.26V137a2,2,0,0,0,.35,1.28,1.18,1.18,0,0,0,1,.46,1.55,1.55,0,0,0,.59-.11,2.43,2.43,0,0,0,.54-.3l.31.43a3.14,3.14,0,0,1-.67.38,2.29,2.29,0,0,1-.78.14,1.85,1.85,0,0,1-1.49-.63A2.5,2.5,0,0,1,468.28,137Z"/><path class="cls-17" d="M473.22,137v0a1.86,1.86,0,0,0,.41,1.28,1.45,1.45,0,0,0,1.13.45,2.06,2.06,0,0,0,.68-.11,4.22,4.22,0,0,0,.62-.33l.26.43a2.76,2.76,0,0,1-.72.39,2.57,2.57,0,0,1-.87.15,2.23,2.23,0,0,1-1.15-.29,2,2,0,0,1-.75-.81,2.57,2.57,0,0,1-.26-1.16v-.47a2.64,2.64,0,0,1,.25-1.13,2.09,2.09,0,0,1,.7-.8,1.91,1.91,0,0,1,1.07-.3,1.76,1.76,0,0,1,1.42.6,2.48,2.48,0,0,1,.52,1.66,2.34,2.34,0,0,1,0,.42Zm0-.48h2.7v-.07a1.83,1.83,0,0,0-.34-1.17,1.23,1.23,0,0,0-1-.43,1.2,1.2,0,0,0-1,.45A1.93,1.93,0,0,0,473.22,136.56Z"/><path class="cls-17" d="M431.05,147.71l.35-.43a2.51,2.51,0,0,0,.65.38,2.13,2.13,0,0,0,.78.13,1.58,1.58,0,0,0,.85-.19.64.64,0,0,0,.3-.57V147a.69.69,0,0,0-.19-.5,2.24,2.24,0,0,0-.73-.35l-.63-.23a2.37,2.37,0,0,1-.88-.48.91.91,0,0,1-.28-.7v-.15a1,1,0,0,1,.21-.61,1.48,1.48,0,0,1,.59-.43,2.26,2.26,0,0,1,.85-.15,2.71,2.71,0,0,1,.91.15,2.32,2.32,0,0,1,.77.43l-.33.39a2.9,2.9,0,0,0-.66-.33,2.09,2.09,0,0,0-.69-.1,1.37,1.37,0,0,0-.72.17.53.53,0,0,0-.26.47v.07a.55.55,0,0,0,.19.44,2.2,2.2,0,0,0,.71.35l.63.23a2.61,2.61,0,0,1,.89.48,1,1,0,0,1,.28.78V147a1.07,1.07,0,0,1-.5.94,2.15,2.15,0,0,1-1.26.34A2.83,2.83,0,0,1,431.05,147.71Z"/><path class="cls-17" d="M435.67,146v-.39a2.49,2.49,0,0,1,.53-1.65,1.84,1.84,0,0,1,1.5-.63,2.12,2.12,0,0,1,.81.15,2.19,2.19,0,0,1,.67.45l-.34.37a1.61,1.61,0,0,0-1.13-.43,1.19,1.19,0,0,0-1,.46,2,2,0,0,0-.36,1.26V146a2,2,0,0,0,.35,1.28,1.18,1.18,0,0,0,1,.46,1.55,1.55,0,0,0,.59-.11,2.43,2.43,0,0,0,.54-.3l.3.43a2.72,2.72,0,0,1-.67.38,2.23,2.23,0,0,1-.77.14,1.84,1.84,0,0,1-1.49-.63A2.5,2.5,0,0,1,435.67,146Z"/><path class="cls-17" d="M443.63,145v3.26h-.55l-.05-.56a2,2,0,0,1-1.55.67,1.8,1.8,0,0,1-.77-.16,1.32,1.32,0,0,1-.55-.47A1.17,1.17,0,0,1,440,147v-.3a1.17,1.17,0,0,1,.51-1,2.35,2.35,0,0,1,1.4-.38H443v-.39a1.06,1.06,0,0,0-.26-.78,1.1,1.1,0,0,0-.8-.26,2.39,2.39,0,0,0-.73.1,3.77,3.77,0,0,0-.7.28l-.22-.45a3.29,3.29,0,0,1,1.69-.47,1.71,1.71,0,0,1,1.26.42A1.58,1.58,0,0,1,443.63,145Zm-.67,2.18v-1.32h-1a1.62,1.62,0,0,0-1,.24.8.8,0,0,0-.34.7v.2a.77.77,0,0,0,.27.62,1,1,0,0,0,.7.23,1.82,1.82,0,0,0,.78-.17A1.68,1.68,0,0,0,443,147.13Z"/><path class="cls-17" d="M447.5,148.21a2.81,2.81,0,0,1-.73.11,1.31,1.31,0,0,1-.91-.28,1,1,0,0,1-.32-.83V144h-.75v-.52h.77l.06-1.13h.59v1.13h1.14V144h-1.14v3.2a.61.61,0,0,0,.17.45.73.73,0,0,0,.5.15,2.16,2.16,0,0,0,.54-.07Z"/><path class="cls-17" d="M450.92,148.21a2.68,2.68,0,0,1-.72.11,1.31,1.31,0,0,1-.91-.28,1,1,0,0,1-.32-.83V144h-.75v-.52H449l.05-1.13h.6v1.13h1.14V144h-1.14v3.2a.61.61,0,0,0,.17.45.73.73,0,0,0,.5.15,2.09,2.09,0,0,0,.53-.07Z"/><path class="cls-17" d="M452.34,146v0a1.85,1.85,0,0,0,.4,1.28,1.45,1.45,0,0,0,1.14.45,2,2,0,0,0,.67-.11,3.41,3.41,0,0,0,.62-.33l.26.43a2.62,2.62,0,0,1-1.59.54,2.26,2.26,0,0,1-1.15-.29,2,2,0,0,1-.74-.81,2.57,2.57,0,0,1-.26-1.16v-.47a2.5,2.5,0,0,1,.25-1.13,2,2,0,0,1,.7-.8,1.89,1.89,0,0,1,1.07-.3,1.77,1.77,0,0,1,1.42.6,2.48,2.48,0,0,1,.51,1.66,2.34,2.34,0,0,1,0,.42Zm0-.48H455v-.07a1.83,1.83,0,0,0-.35-1.17,1.33,1.33,0,0,0-2,0A1.87,1.87,0,0,0,452.34,145.56Z"/><path class="cls-17" d="M459.44,143.47l-.12.63a1.25,1.25,0,0,0-.32,0,1.37,1.37,0,0,0-1.34,1.16v3H457v-4.74h.51l.1.85a1.52,1.52,0,0,1,.55-.7,1.34,1.34,0,0,1,.77-.23A1.93,1.93,0,0,1,459.44,143.47Z"/><path class="cls-17" d="M461.29,148.21h-.66V144h-.75v-.52h1.41Zm-.79-6.1a.41.41,0,0,1,.42-.42.43.43,0,0,1,.31.12.42.42,0,0,1,.13.3.46.46,0,0,1-.13.31.43.43,0,0,1-.31.12.41.41,0,0,1-.3-.12A.45.45,0,0,1,460.5,142.11Z"/><path class="cls-17" d="M466.75,145v3.26h-.67V145a1.18,1.18,0,0,0-.26-.83,1,1,0,0,0-.74-.27,1.56,1.56,0,0,0-1.36.84v3.47h-.66v-4.74h.56l.06.63a1.85,1.85,0,0,1,1.55-.74,1.49,1.49,0,0,1,1.1.42A1.55,1.55,0,0,1,466.75,145Z"/><path class="cls-17" d="M471.93,143.44v4.89a1.66,1.66,0,0,1-.52,1.31,2,2,0,0,1-1.39.48,3.06,3.06,0,0,1-1.64-.43l.24-.43a3.67,3.67,0,0,0,.64.25,3.11,3.11,0,0,0,.72.08,1.37,1.37,0,0,0,1-.32,1.27,1.27,0,0,0,.34-1v-.77a1.8,1.8,0,0,1-1.42.68,1.7,1.7,0,0,1-1.29-.54,2.36,2.36,0,0,1-.51-1.66v-.43a2.72,2.72,0,0,1,.26-1.23,1.84,1.84,0,0,1,.68-.75,1.9,1.9,0,0,1,.93-.24,1.76,1.76,0,0,1,1.38.62l.05-.54Zm-.67,3.49v-2.36a1.54,1.54,0,0,0-.52-.5,1.42,1.42,0,0,0-.7-.17,1.21,1.21,0,0,0-.94.39,1.86,1.86,0,0,0-.36,1.28V146a2,2,0,0,0,.32,1.29,1.11,1.11,0,0,0,.89.39,1.35,1.35,0,0,0,.74-.2A1.75,1.75,0,0,0,471.26,146.93Z"/><path class="cls-17" d="M475.1,143.38l.87,1.12-.45.33-.79-1.17-.78,1.17-.45-.33.87-1.12L473,143l.17-.51,1.33.48-.06-1.42H475L475,143l1.33-.49.18.52Z"/><path class="cls-18" d="M88,50.37V52.6h2.53v.56H88v2.41h2.73v.55H87.28v-6.3h3.41v.55Z"/><path class="cls-18" d="M98.26,52.82v3.3h-.67V52.88a1.19,1.19,0,0,0-.24-.81.81.81,0,0,0-.64-.27,1.43,1.43,0,0,0-1.2.85v3.47h-.66V52.83a1.11,1.11,0,0,0-.24-.77A.83.83,0,0,0,94,51.8a1.4,1.4,0,0,0-1.2.85v3.47h-.67V51.38h.57l0,.62a1.64,1.64,0,0,1,1.38-.73,1.46,1.46,0,0,1,.77.21,1.32,1.32,0,0,1,.5.61,1.72,1.72,0,0,1,1.48-.82,1.4,1.4,0,0,1,.7.18,1.3,1.3,0,0,1,.51.53A1.74,1.74,0,0,1,98.26,52.82Z"/><path class="cls-18" d="M100.74,56.12h-.66V51.9h-.75v-.52h1.41ZM100,50a.41.41,0,0,1,.12-.3.43.43,0,0,1,.31-.12.42.42,0,0,1,.3.12.42.42,0,0,1,.13.3.46.46,0,0,1-.13.31.42.42,0,0,1-.3.12.43.43,0,0,1-.31-.12A.45.45,0,0,1,100,50Z"/><path class="cls-18" d="M102,55.62l.34-.43a2.26,2.26,0,0,0,.65.38,2.13,2.13,0,0,0,.78.13,1.55,1.55,0,0,0,.85-.19.64.64,0,0,0,.3-.57v-.07a.65.65,0,0,0-.19-.5A2.34,2.34,0,0,0,104,54l-.63-.23a2.46,2.46,0,0,1-.88-.47,1,1,0,0,1-.28-.71v-.15a1,1,0,0,1,.21-.61,1.48,1.48,0,0,1,.59-.43,2.3,2.3,0,0,1,.85-.15,2.82,2.82,0,0,1,.92.15,2.38,2.38,0,0,1,.76.43l-.33.39a3.07,3.07,0,0,0-.65-.33,2.5,2.5,0,0,0-.69-.1,1.38,1.38,0,0,0-.73.17.55.55,0,0,0-.26.47v.07a.53.53,0,0,0,.2.44,2.07,2.07,0,0,0,.71.36l.63.22a2.55,2.55,0,0,1,.88.48,1,1,0,0,1,.29.78V55a1.09,1.09,0,0,1-.5.94,2.21,2.21,0,0,1-1.27.34A2.8,2.8,0,0,1,102,55.62Z"/><path class="cls-18" d="M106.46,55.62l.34-.43a2.26,2.26,0,0,0,.65.38,2.13,2.13,0,0,0,.78.13,1.55,1.55,0,0,0,.85-.19.64.64,0,0,0,.3-.57v-.07a.65.65,0,0,0-.19-.5,2.38,2.38,0,0,0-.72-.35l-.63-.23a2.43,2.43,0,0,1-.89-.47,1,1,0,0,1-.28-.71v-.15a1,1,0,0,1,.22-.61,1.42,1.42,0,0,1,.59-.43,2.24,2.24,0,0,1,.84-.15,2.77,2.77,0,0,1,.92.15,2.42,2.42,0,0,1,.77.43l-.34.39a2.85,2.85,0,0,0-.65-.33,2.5,2.5,0,0,0-.69-.1,1.34,1.34,0,0,0-.72.17.54.54,0,0,0-.27.47v.07a.56.56,0,0,0,.2.44,2.17,2.17,0,0,0,.71.36l.63.22a2.46,2.46,0,0,1,.88.48,1,1,0,0,1,.29.78V55a1.09,1.09,0,0,1-.5.94,2.15,2.15,0,0,1-1.26.34A2.83,2.83,0,0,1,106.46,55.62Z"/><path class="cls-18" d="M112.17,56.12h-.66V51.9h-.75v-.52h1.41Zm-.79-6.1a.41.41,0,0,1,.42-.42.43.43,0,0,1,.31.12.42.42,0,0,1,.13.3.46.46,0,0,1-.13.31.43.43,0,0,1-.31.12.41.41,0,0,1-.3-.12A.45.45,0,0,1,111.38,50Z"/><path class="cls-18" d="M117.79,53.5V54a2.58,2.58,0,0,1-.25,1.17,1.86,1.86,0,0,1-.72.8,2.21,2.21,0,0,1-1.15.29,2,2,0,0,1-1.56-.62,2.36,2.36,0,0,1-.55-1.64V53.5a2.66,2.66,0,0,1,.24-1.15,1.83,1.83,0,0,1,.72-.79,2.16,2.16,0,0,1,1.15-.29,2.21,2.21,0,0,1,1.15.29,1.89,1.89,0,0,1,.72.79A2.52,2.52,0,0,1,117.79,53.5Zm-3.57,0V54a2,2,0,0,0,.37,1.28,1.49,1.49,0,0,0,2.15,0,1.9,1.9,0,0,0,.38-1.28V53.5a1.82,1.82,0,0,0-.38-1.24,1.51,1.51,0,0,0-2.15,0A1.91,1.91,0,0,0,114.22,53.5Z"/><path class="cls-18" d="M122.86,52.86v3.26h-.67V52.91a1.18,1.18,0,0,0-.26-.83,1,1,0,0,0-.74-.27,1.56,1.56,0,0,0-1.36.84v3.47h-.66V51.38h.56l.06.63a1.85,1.85,0,0,1,1.55-.74,1.49,1.49,0,0,1,1.1.42A1.55,1.55,0,0,1,122.86,52.86Z"/><path class="cls-19" d="M86.33,67.18,89.94,60l.47.2-3.63,7.2Z"/><path class="cls-19" d="M93.88,62.2l-.55,3.92h-.51l.09-.91a2,2,0,0,1-.67.77,1.53,1.53,0,0,1-.84.24,1.36,1.36,0,0,1-.67-.17,1.23,1.23,0,0,1-.47-.49,1.49,1.49,0,0,1-.17-.75,7.79,7.79,0,0,1,.09-.91,2.69,2.69,0,0,1,.69-1.55,1.91,1.91,0,0,1,1.41-.54,3.12,3.12,0,0,1,1,.13A3,3,0,0,1,93.88,62.2Zm-.63.27a1.82,1.82,0,0,0-.92-.2,1.33,1.33,0,0,0-1,.41,2.37,2.37,0,0,0-.51,1.24,6.76,6.76,0,0,0-.09.85,1.05,1.05,0,0,0,.23.72.8.8,0,0,0,.61.26,1.16,1.16,0,0,0,.85-.39A3.06,3.06,0,0,0,93,64.24Z"/><path class="cls-19" d="M98.82,60.2,98,66.12H97.5l0-.82a1.68,1.68,0,0,1-1.46.92,1.2,1.2,0,0,1-1-.42,1.7,1.7,0,0,1-.36-1.13,7.35,7.35,0,0,1,.09-.87,2.62,2.62,0,0,1,.39-1.1,2,2,0,0,1,.68-.67,1.6,1.6,0,0,1,.82-.22,1.52,1.52,0,0,1,.69.15,1.61,1.61,0,0,1,.5.39l.3-2.15Zm-1.19,4.19.22-1.53a1.06,1.06,0,0,0-.42-.42,1.21,1.21,0,0,0-.62-.15,1.2,1.2,0,0,0-.89.39,2,2,0,0,0-.49,1.15,6.4,6.4,0,0,0-.08.84,1.26,1.26,0,0,0,.23.79.74.74,0,0,0,.61.29,1.19,1.19,0,0,0,.82-.36A2.63,2.63,0,0,0,97.63,64.39Z"/><path class="cls-19" d="M103.56,60.2l-.84,5.92h-.48l0-.82a1.7,1.7,0,0,1-1.47.92,1.19,1.19,0,0,1-1-.42,1.7,1.7,0,0,1-.36-1.13,6.72,6.72,0,0,1,.08-.87,2.92,2.92,0,0,1,.39-1.1,2,2,0,0,1,.69-.67,1.59,1.59,0,0,1,.81-.22,1.52,1.52,0,0,1,.69.15,1.5,1.5,0,0,1,.5.39L103,60.2Zm-1.19,4.19.21-1.53a1,1,0,0,0-.41-.42,1.28,1.28,0,0,0-.63-.15,1.19,1.19,0,0,0-.88.39,2,2,0,0,0-.49,1.15,5,5,0,0,0-.08.84,1.26,1.26,0,0,0,.22.79.75.75,0,0,0,.62.29,1.17,1.17,0,0,0,.81-.36A2.53,2.53,0,0,0,102.37,64.39Z"/><path class="cls-19" d="M105,66.12h-.59l.53-3.75h-.66l.06-.46h1.26Zm.08-5.39a.39.39,0,0,1,.11-.29.4.4,0,0,1,.29-.12.36.36,0,0,1,.26.1.36.36,0,0,1,.1.25.41.41,0,0,1-.13.29.38.38,0,0,1-.29.12.33.33,0,0,1-.25-.1A.35.35,0,0,1,105.09,60.73Z"/><path class="cls-19" d="M107.53,65.14a.68.68,0,0,0,0,.19c0,.28.17.42.5.42a1.91,1.91,0,0,0,.52-.07v.44a1.78,1.78,0,0,1-.65.1c-.65,0-1-.26-1-.77,0-.09,0-.18,0-.28l.4-2.8h-.67l.06-.46h.68l.19-1h.54l-.15,1h1l-.07.46h-1Z"/><path class="cls-19" d="M110.35,66.12h-.59l.53-3.75h-.67l.07-.46h1.25Zm.07-5.39a.4.4,0,0,1,.12-.29.37.37,0,0,1,.29-.12.38.38,0,0,1,.26.1.35.35,0,0,1,.09.25.41.41,0,0,1-.41.41.3.3,0,0,1-.25-.1A.32.32,0,0,1,110.42,60.73Z"/><path class="cls-19" d="M113.69,66.12h-.84L112,61.91h.58l.71,3.76,1.78-3.76h.61Z"/><path class="cls-19" d="M119.74,62.87a2.44,2.44,0,0,1,0,.37c-.06.42-.37.7-.93.85a8.39,8.39,0,0,1-2.13.23c0,.15,0,.24,0,.25a1,1,0,0,0,1.15,1.18,1.7,1.7,0,0,0,.61-.11,2.62,2.62,0,0,0,.58-.29l.21.39a2.19,2.19,0,0,1-.68.35,2.48,2.48,0,0,1-.8.13,1.61,1.61,0,0,1-1.24-.45,1.69,1.69,0,0,1-.42-1.2,7.2,7.2,0,0,1,.08-.76,2.61,2.61,0,0,1,.66-1.45,2.06,2.06,0,0,1,1.53-.55,1.79,1.79,0,0,1,.77.15,1.18,1.18,0,0,1,.5.39A.9.9,0,0,1,119.74,62.87Zm-.58,0a.49.49,0,0,0-.24-.44,1.19,1.19,0,0,0-.67-.16,1.39,1.39,0,0,0-1.07.41,2,2,0,0,0-.48,1.1.49.49,0,0,1,0,.11,7.6,7.6,0,0,0,1.72-.18c.44-.11.67-.31.72-.58A2.23,2.23,0,0,0,119.16,62.89Z"/><path class="cls-19" d="M119.55,67.18,123.16,60l.47.2L120,67.4Z"/><path class="cls-20" d="M156.92,55.43l.36-.42a3.64,3.64,0,0,0,.52.35,1.9,1.9,0,0,0,.54.21,2.91,2.91,0,0,0,.77.09,2.09,2.09,0,0,0,.88-.17,1.27,1.27,0,0,0,.53-.42,1,1,0,0,0,.17-.53V54.4a.9.9,0,0,0-.26-.69,2.8,2.8,0,0,0-.91-.46l-.9-.29a2.71,2.71,0,0,1-1.12-.64,1.25,1.25,0,0,1-.34-.89v-.19a1.25,1.25,0,0,1,.24-.73,1.64,1.64,0,0,1,.71-.57,2.73,2.73,0,0,1,1.16-.23,2.84,2.84,0,0,1,2.07.82l-.36.4a3.1,3.1,0,0,0-.79-.51,2.56,2.56,0,0,0-.92-.16,2,2,0,0,0-.81.15,1.13,1.13,0,0,0-.47.37.81.81,0,0,0-.15.46v.18a.72.72,0,0,0,.27.56,2.34,2.34,0,0,0,.9.44l.81.27a3,3,0,0,1,1.15.61,1.33,1.33,0,0,1,.39,1v.23a1.43,1.43,0,0,1-.27.84,1.81,1.81,0,0,1-.78.62,3.39,3.39,0,0,1-3.39-.58Z"/><path class="cls-20" d="M166.68,53.53V54a2.6,2.6,0,0,1-.25,1.16,1.89,1.89,0,0,1-.69.81,1.76,1.76,0,0,1-1,.3,1.8,1.8,0,0,1-1.26-.48v2.17h-.67V51.35h.57l.05.58a1.77,1.77,0,0,1,1.45-.66,1.62,1.62,0,0,1,1,.29,1.79,1.79,0,0,1,.63.79A2.92,2.92,0,0,1,166.68,53.53Zm-.66,0a2,2,0,0,0-.33-1.25,1.09,1.09,0,0,0-.93-.45A1.49,1.49,0,0,0,164,52a1.6,1.6,0,0,0-.55.52v2.7a1.59,1.59,0,0,0,1.17.49,1.21,1.21,0,0,0,1-.46A2,2,0,0,0,166,54Z"/><path class="cls-20" d="M168.36,54v0a1.86,1.86,0,0,0,.41,1.28,1.45,1.45,0,0,0,1.13.45,2,2,0,0,0,.68-.11,3.77,3.77,0,0,0,.62-.33l.26.43a2.47,2.47,0,0,1-.72.39,2.57,2.57,0,0,1-.87.15,2.26,2.26,0,0,1-1.15-.29,1.89,1.89,0,0,1-.75-.81,2.57,2.57,0,0,1-.25-1.16V53.5a2.63,2.63,0,0,1,.24-1.13,2,2,0,0,1,.71-.8,1.86,1.86,0,0,1,1.06-.3,1.76,1.76,0,0,1,1.42.6,2.43,2.43,0,0,1,.52,1.66,2.26,2.26,0,0,1,0,.42Zm0-.48h2.7v-.06a1.84,1.84,0,0,0-.34-1.18,1.35,1.35,0,0,0-2,0A2,2,0,0,0,168.36,53.47Z"/><path class="cls-20" d="M172.64,53.94v-.39a2.44,2.44,0,0,1,.53-1.65,1.84,1.84,0,0,1,1.49-.63,2.09,2.09,0,0,1,.81.15,2.23,2.23,0,0,1,.68.45l-.34.37a1.78,1.78,0,0,0-.52-.32,1.66,1.66,0,0,0-.61-.11,1.19,1.19,0,0,0-1,.46,2,2,0,0,0-.37,1.26V54a2,2,0,0,0,.36,1.28,1.17,1.17,0,0,0,1,.46,1.4,1.4,0,0,0,.6-.11,2.43,2.43,0,0,0,.54-.3l.3.43a2.43,2.43,0,0,1-.67.38,2.28,2.28,0,0,1-.77.14,1.84,1.84,0,0,1-1.49-.63A2.5,2.5,0,0,1,172.64,53.94Z"/><path class="cls-20" d="M181,51.38v4.74h-.57l0-.66a2,2,0,0,1-1.57.77,1.52,1.52,0,0,1-1.07-.39,1.36,1.36,0,0,1-.43-1V51.38h.67v3.39a.9.9,0,0,0,.25.69,1,1,0,0,0,.7.24,1.44,1.44,0,0,0,.78-.22,1.87,1.87,0,0,0,.62-.63V51.38Z"/><path class="cls-20" d="M183.29,55.25a.47.47,0,0,0,.09.33.34.34,0,0,0,.28.1,1.27,1.27,0,0,0,.28,0l.09.47a1.41,1.41,0,0,1-.54.11.8.8,0,0,1-.87-.88V49.46h.67Z"/><path class="cls-20" d="M188.54,52.87v3.25H188l0-.55a2,2,0,0,1-1.56.66,1.73,1.73,0,0,1-.76-.16,1.41,1.41,0,0,1-.56-.46,1.23,1.23,0,0,1-.21-.7v-.3a1.16,1.16,0,0,1,.52-1,2.33,2.33,0,0,1,1.4-.38h1.1v-.39a1.06,1.06,0,0,0-.26-.78,1.14,1.14,0,0,0-.81-.26,2.37,2.37,0,0,0-.72.1,3.59,3.59,0,0,0-.71.28l-.21-.45a3.26,3.26,0,0,1,1.69-.47,1.71,1.71,0,0,1,1.26.42A1.62,1.62,0,0,1,188.54,52.87ZM187.88,55V53.72h-1.06a1.66,1.66,0,0,0-1,.24.84.84,0,0,0-.33.71v.19a.79.79,0,0,0,.26.62,1.08,1.08,0,0,0,.71.23,1.77,1.77,0,0,0,.77-.17A1.54,1.54,0,0,0,187.88,55Z"/><path class="cls-20" d="M192.66,51.38l-.11.63a1.34,1.34,0,0,0-.33,0c-.66,0-1.1.39-1.34,1.16v3h-.66V51.38h.5l.11.86a1.44,1.44,0,0,1,.55-.71,1.38,1.38,0,0,1,.76-.23A1.82,1.82,0,0,1,192.66,51.38Z"/><path class="cls-20" d="M158,61.38l-.12.63a1.34,1.34,0,0,0-.33,0c-.66,0-1.1.39-1.34,1.16v3h-.66V61.38h.5l.11.86a1.44,1.44,0,0,1,.55-.71,1.38,1.38,0,0,1,.76-.23A2,2,0,0,1,158,61.38Z"/><path class="cls-20" d="M159.21,64v0a1.85,1.85,0,0,0,.4,1.28,1.45,1.45,0,0,0,1.14.45,2,2,0,0,0,.67-.11,3.41,3.41,0,0,0,.62-.33l.26.43a2.62,2.62,0,0,1-1.59.54,2.26,2.26,0,0,1-1.15-.29,1.93,1.93,0,0,1-.74-.81,2.45,2.45,0,0,1-.26-1.16V63.5a2.5,2.5,0,0,1,.25-1.13,2,2,0,0,1,.7-.8,1.89,1.89,0,0,1,1.07-.3,1.77,1.77,0,0,1,1.42.6,2.48,2.48,0,0,1,.51,1.66,2.26,2.26,0,0,1,0,.42Zm0-.48h2.7v-.06a1.84,1.84,0,0,0-.35-1.18,1.33,1.33,0,0,0-2,0A1.89,1.89,0,0,0,159.21,63.47Z"/><path class="cls-20" d="M168.47,66.12a1.44,1.44,0,0,1-.53.11.88.88,0,0,1-.64-.23.85.85,0,0,1-.24-.65V60c-.62-.07-1-.1-1.21-.1a1.33,1.33,0,0,0-.87.24,1,1,0,0,0-.29.81v.45H166v.52h-1.29v4.23H164V61.9h-.65v-.52H164V61c0-1.08.59-1.62,1.76-1.62a11.7,11.7,0,0,1,1.32.1h.63v5.79a.47.47,0,0,0,.09.33.34.34,0,0,0,.28.1,1.36,1.36,0,0,0,.29,0Z"/><path class="cls-20" d="M170,64v0a1.85,1.85,0,0,0,.4,1.28,1.45,1.45,0,0,0,1.14.45,2,2,0,0,0,.67-.11,3.41,3.41,0,0,0,.62-.33l.26.43a2.62,2.62,0,0,1-1.59.54,2.26,2.26,0,0,1-1.15-.29,1.93,1.93,0,0,1-.74-.81,2.45,2.45,0,0,1-.26-1.16V63.5a2.5,2.5,0,0,1,.25-1.13,2,2,0,0,1,.7-.8,1.89,1.89,0,0,1,1.07-.3,1.77,1.77,0,0,1,1.42.6,2.48,2.48,0,0,1,.51,1.66,2.26,2.26,0,0,1,0,.42Zm0-.48h2.7v-.06a1.84,1.84,0,0,0-.35-1.18,1.33,1.33,0,0,0-2,0A1.89,1.89,0,0,0,170,63.47Z"/><path class="cls-20" d="M174.28,63.94v-.39a2.49,2.49,0,0,1,.53-1.65,1.84,1.84,0,0,1,1.5-.63,2.09,2.09,0,0,1,.81.15,2.19,2.19,0,0,1,.67.45l-.34.37a1.74,1.74,0,0,0-.51-.32,1.71,1.71,0,0,0-.62-.11,1.2,1.2,0,0,0-1,.46,2,2,0,0,0-.36,1.26V64a2,2,0,0,0,.35,1.28,1.18,1.18,0,0,0,1,.46,1.46,1.46,0,0,0,.6-.11,2.62,2.62,0,0,0,.53-.3l.31.43a2.59,2.59,0,0,1-.67.38,2.29,2.29,0,0,1-.78.14,1.85,1.85,0,0,1-1.49-.63A2.5,2.5,0,0,1,174.28,63.94Z"/><path class="cls-20" d="M181.24,66.12a2.75,2.75,0,0,1-.73.11,1.31,1.31,0,0,1-.91-.28,1,1,0,0,1-.31-.83V61.9h-.76v-.52h.77l.06-1.12H180v1.12h1.14v.52H180v3.2a.58.58,0,0,0,.17.45.76.76,0,0,0,.51.15,2.09,2.09,0,0,0,.53-.07Z"/><path class="cls-20" d="M183.28,66.12h-.66V61.9h-.75v-.52h1.41Zm-.79-6.1a.41.41,0,0,1,.42-.42.45.45,0,0,1,.31.12.41.41,0,0,1,.12.3.41.41,0,0,1-.43.43.41.41,0,0,1-.3-.12A.45.45,0,0,1,182.49,60Z"/><path class="cls-20" d="M188.9,63.5V64a2.72,2.72,0,0,1-.25,1.17,1.93,1.93,0,0,1-.72.8,2.24,2.24,0,0,1-1.16.29,2,2,0,0,1-1.55-.62,2.36,2.36,0,0,1-.55-1.64V63.5a2.66,2.66,0,0,1,.24-1.15,1.83,1.83,0,0,1,.72-.79,2.14,2.14,0,0,1,1.14-.29,2.24,2.24,0,0,1,1.16.29,2,2,0,0,1,.72.79A2.66,2.66,0,0,1,188.9,63.5Zm-3.57,0V64a2,2,0,0,0,.37,1.28,1.3,1.3,0,0,0,1.07.46,1.32,1.32,0,0,0,1.08-.46,2,2,0,0,0,.38-1.28V63.5a1.87,1.87,0,0,0-.38-1.24,1.34,1.34,0,0,0-1.08-.45,1.32,1.32,0,0,0-1.07.45A1.91,1.91,0,0,0,185.33,63.5Z"/><path class="cls-20" d="M194,62.86v3.26h-.66V62.91a1.18,1.18,0,0,0-.26-.83,1,1,0,0,0-.74-.27,1.56,1.56,0,0,0-1.36.84v3.47h-.67V61.38h.57l.06.63a1.83,1.83,0,0,1,1.54-.74,1.5,1.5,0,0,1,1.11.42A1.55,1.55,0,0,1,194,62.86Z"/><path class="cls-20" d="M162.14,77.67l-.39.36a6.46,6.46,0,0,1-1-1,3.4,3.4,0,0,1-.53-1.06,4.72,4.72,0,0,1-.17-1.33v-1.8a4.65,4.65,0,0,1,.17-1.32,3.4,3.4,0,0,1,.53-1.06,6.46,6.46,0,0,1,1-1l.39.35a7.14,7.14,0,0,0-.88,1,2.83,2.83,0,0,0-.42.92,4.26,4.26,0,0,0-.13,1.14v1.8a4.29,4.29,0,0,0,.13,1.15,3,3,0,0,0,.42.92A7.14,7.14,0,0,0,162.14,77.67Z"/><path class="cls-20" d="M169.88,72.82v3.3h-.67V72.88a1.19,1.19,0,0,0-.24-.81.81.81,0,0,0-.64-.27,1.4,1.4,0,0,0-1.19.85v3.47h-.67V72.83a1.11,1.11,0,0,0-.24-.77.83.83,0,0,0-.63-.26,1.4,1.4,0,0,0-1.2.85v3.47h-.67V71.38h.57l0,.62a1.64,1.64,0,0,1,1.38-.73,1.46,1.46,0,0,1,.77.21,1.32,1.32,0,0,1,.5.61,1.72,1.72,0,0,1,1.48-.82,1.4,1.4,0,0,1,.7.18,1.24,1.24,0,0,1,.51.53A1.74,1.74,0,0,1,169.88,72.82Z"/><path class="cls-20" d="M171.82,74v0a1.86,1.86,0,0,0,.41,1.28,1.45,1.45,0,0,0,1.13.45,2,2,0,0,0,.68-.11,3.77,3.77,0,0,0,.62-.33l.26.43a2.47,2.47,0,0,1-.72.39,2.57,2.57,0,0,1-.87.15,2.26,2.26,0,0,1-1.15-.29,1.89,1.89,0,0,1-.75-.81,2.57,2.57,0,0,1-.25-1.16V73.5a2.63,2.63,0,0,1,.24-1.13,2,2,0,0,1,.71-.8,1.86,1.86,0,0,1,1.06-.3,1.76,1.76,0,0,1,1.42.6,2.43,2.43,0,0,1,.52,1.66,2.26,2.26,0,0,1,0,.42Zm0-.48h2.7v-.06a1.84,1.84,0,0,0-.34-1.18,1.35,1.35,0,0,0-2,0A2,2,0,0,0,171.82,73.47Z"/><path class="cls-20" d="M178.67,76.12a2.69,2.69,0,0,1-.73.11A1.29,1.29,0,0,1,177,76a1,1,0,0,1-.32-.83V71.9H176v-.52h.78l0-1.12h.6v1.12h1.14v.52h-1.14v3.2a.55.55,0,0,0,.17.45.73.73,0,0,0,.5.15,2.09,2.09,0,0,0,.53-.07Z"/><path class="cls-20" d="M183.15,72.87v3.25h-.55l0-.55a2,2,0,0,1-1.55.66,1.8,1.8,0,0,1-.77-.16,1.38,1.38,0,0,1-.55-.46,1.24,1.24,0,0,1-.22-.7v-.3a1.18,1.18,0,0,1,.52-1,2.35,2.35,0,0,1,1.4-.38h1.1v-.39a1.06,1.06,0,0,0-.26-.78,1.1,1.1,0,0,0-.8-.26,2.39,2.39,0,0,0-.73.1,3.52,3.52,0,0,0-.7.28l-.22-.45a3.29,3.29,0,0,1,1.69-.47,1.71,1.71,0,0,1,1.26.42A1.59,1.59,0,0,1,183.15,72.87ZM182.48,75V73.72h-1a1.62,1.62,0,0,0-1,.24.82.82,0,0,0-.34.71v.19a.77.77,0,0,0,.27.62,1,1,0,0,0,.7.23,1.85,1.85,0,0,0,.78-.17A1.58,1.58,0,0,0,182.48,75Z"/><path class="cls-20" d="M185.4,75.25a.47.47,0,0,0,.09.33.34.34,0,0,0,.28.1,1.27,1.27,0,0,0,.28,0l.09.47a1.41,1.41,0,0,1-.54.11.8.8,0,0,1-.87-.88V69.46h.67Z"/><path class="cls-20" d="M189.34,72.79v1.8a4.72,4.72,0,0,1-.17,1.33,3.4,3.4,0,0,1-.53,1.06,6.8,6.8,0,0,1-1,1l-.4-.36a6.54,6.54,0,0,0,.88-1,3.33,3.33,0,0,0,.43-.92,4.78,4.78,0,0,0,.12-1.15v-1.8a4.75,4.75,0,0,0-.12-1.14,3.08,3.08,0,0,0-.43-.92,6.55,6.55,0,0,0-.88-1l.4-.35a6.8,6.8,0,0,1,1,1,3.4,3.4,0,0,1,.53,1.06A4.65,4.65,0,0,1,189.34,72.79Z"/><path class="cls-21" d="M310.06,55.43l.36-.42a4.32,4.32,0,0,0,.53.35,1.9,1.9,0,0,0,.54.21,2.86,2.86,0,0,0,.77.09,2.09,2.09,0,0,0,.88-.17,1.27,1.27,0,0,0,.53-.42,1,1,0,0,0,.17-.53V54.4a.9.9,0,0,0-.26-.69,2.8,2.8,0,0,0-.91-.46l-.9-.29a2.71,2.71,0,0,1-1.12-.64,1.25,1.25,0,0,1-.34-.89v-.19a1.25,1.25,0,0,1,.24-.73,1.58,1.58,0,0,1,.71-.57,2.68,2.68,0,0,1,1.15-.23,2.81,2.81,0,0,1,2.07.82l-.36.4a2.89,2.89,0,0,0-.78-.51,2.56,2.56,0,0,0-.92-.16,2,2,0,0,0-.81.15,1.13,1.13,0,0,0-.47.37.76.76,0,0,0-.16.46v.18a.7.7,0,0,0,.28.56,2.36,2.36,0,0,0,.89.44l.82.27a3,3,0,0,1,1.15.61,1.33,1.33,0,0,1,.39,1v.23a1.43,1.43,0,0,1-.27.84,1.81,1.81,0,0,1-.78.62,3,3,0,0,1-1.2.22A3,3,0,0,1,310.06,55.43Z"/><path class="cls-21" d="M319.83,53.53V54a2.6,2.6,0,0,1-.25,1.16,1.89,1.89,0,0,1-.69.81,1.76,1.76,0,0,1-1,.3,1.8,1.8,0,0,1-1.26-.48v2.17H316V51.35h.57l.05.58a1.76,1.76,0,0,1,1.45-.66,1.57,1.57,0,0,1,.94.29,1.66,1.66,0,0,1,.63.79A2.76,2.76,0,0,1,319.83,53.53Zm-.67,0a2.12,2.12,0,0,0-.32-1.25,1.09,1.09,0,0,0-.93-.45,1.49,1.49,0,0,0-.73.18,1.6,1.6,0,0,0-.55.52v2.7a1.59,1.59,0,0,0,1.17.49,1.21,1.21,0,0,0,1-.46,2,2,0,0,0,.36-1.26Z"/><path class="cls-21" d="M321.51,54v0a1.86,1.86,0,0,0,.41,1.28,1.45,1.45,0,0,0,1.13.45,2.06,2.06,0,0,0,.68-.11,4.22,4.22,0,0,0,.62-.33l.26.43a2.61,2.61,0,0,1-.72.39,2.57,2.57,0,0,1-.87.15,2.26,2.26,0,0,1-1.15-.29,1.89,1.89,0,0,1-.75-.81,2.57,2.57,0,0,1-.26-1.16V53.5a2.64,2.64,0,0,1,.25-1.13,2.09,2.09,0,0,1,.7-.8,1.91,1.91,0,0,1,1.07-.3,1.76,1.76,0,0,1,1.42.6,2.48,2.48,0,0,1,.52,1.66,2.26,2.26,0,0,1,0,.42Zm0-.48h2.7v-.06a1.84,1.84,0,0,0-.34-1.18,1.23,1.23,0,0,0-1-.43,1.2,1.2,0,0,0-1,.45A2,2,0,0,0,321.51,53.47Z"/><path class="cls-21" d="M325.79,53.94v-.39a2.49,2.49,0,0,1,.52-1.65,1.86,1.86,0,0,1,1.5-.63,2.09,2.09,0,0,1,.81.15,2.23,2.23,0,0,1,.68.45l-.34.37a1.93,1.93,0,0,0-.52-.32,1.66,1.66,0,0,0-.61-.11,1.21,1.21,0,0,0-1,.46,2,2,0,0,0-.36,1.26V54a2.07,2.07,0,0,0,.35,1.28,1.19,1.19,0,0,0,1,.46,1.46,1.46,0,0,0,.6-.11,2.43,2.43,0,0,0,.54-.3l.3.43a2.59,2.59,0,0,1-.67.38,2.29,2.29,0,0,1-.78.14,1.83,1.83,0,0,1-1.48-.63A2.45,2.45,0,0,1,325.79,53.94Z"/><path class="cls-21" d="M334.09,51.38v4.74h-.56l-.06-.66a2,2,0,0,1-1.56.77,1.52,1.52,0,0,1-1.07-.39,1.33,1.33,0,0,1-.43-1V51.38h.67v3.39a.9.9,0,0,0,.25.69,1,1,0,0,0,.7.24,1.44,1.44,0,0,0,.78-.22,2,2,0,0,0,.62-.63V51.38Z"/><path class="cls-21" d="M336.43,55.25a.47.47,0,0,0,.09.33.37.37,0,0,0,.29.1,1.27,1.27,0,0,0,.28,0l.09.47a1.41,1.41,0,0,1-.54.11.8.8,0,0,1-.87-.88V49.46h.66Z"/><path class="cls-21" d="M341.69,52.87v3.25h-.55l0-.55a2,2,0,0,1-1.56.66,1.73,1.73,0,0,1-.76-.16,1.41,1.41,0,0,1-.56-.46,1.23,1.23,0,0,1-.21-.7v-.3a1.16,1.16,0,0,1,.52-1,2.33,2.33,0,0,1,1.4-.38H341v-.39a1,1,0,0,0-.26-.78,1.1,1.1,0,0,0-.8-.26,2.37,2.37,0,0,0-.72.1,3.59,3.59,0,0,0-.71.28l-.21-.45a3.26,3.26,0,0,1,1.69-.47,1.71,1.71,0,0,1,1.26.42A1.62,1.62,0,0,1,341.69,52.87ZM341,55V53.72h-1a1.66,1.66,0,0,0-1,.24.85.85,0,0,0-.34.71v.19a.77.77,0,0,0,.27.62,1.06,1.06,0,0,0,.71.23,1.77,1.77,0,0,0,.77-.17A1.44,1.44,0,0,0,341,55Z"/><path class="cls-21" d="M345.81,51.38l-.11.63a1.34,1.34,0,0,0-.33,0A1.37,1.37,0,0,0,344,53.13v3h-.67V51.38h.51l.11.86a1.44,1.44,0,0,1,.55-.71,1.36,1.36,0,0,1,.76-.23A1.88,1.88,0,0,1,345.81,51.38Z"/><path class="cls-21" d="M351.6,51.38l-.12.63a1.25,1.25,0,0,0-.32,0,1.37,1.37,0,0,0-1.34,1.16v3h-.67V51.38h.51l.1.86a1.56,1.56,0,0,1,.55-.71,1.42,1.42,0,0,1,.77-.23A1.93,1.93,0,0,1,351.6,51.38Z"/><path class="cls-21" d="M352.85,54v0a1.86,1.86,0,0,0,.41,1.28,1.43,1.43,0,0,0,1.13.45,2,2,0,0,0,.67-.11,3.84,3.84,0,0,0,.63-.33l.26.43a2.76,2.76,0,0,1-.72.39,2.58,2.58,0,0,1-.88.15,2.22,2.22,0,0,1-1.14-.29,1.89,1.89,0,0,1-.75-.81A2.57,2.57,0,0,1,352.2,54V53.5a2.64,2.64,0,0,1,.25-1.13,2.09,2.09,0,0,1,.7-.8,1.91,1.91,0,0,1,1.07-.3,1.77,1.77,0,0,1,1.42.6,2.48,2.48,0,0,1,.51,1.66,4.19,4.19,0,0,1,0,.42Zm0-.48h2.7v-.06a1.84,1.84,0,0,0-.35-1.18,1.33,1.33,0,0,0-2,0A2,2,0,0,0,352.85,53.47Z"/><path class="cls-21" d="M362.11,56.12a1.4,1.4,0,0,1-.53.11.8.8,0,0,1-.87-.88V50c-.63-.07-1-.1-1.22-.1a1.33,1.33,0,0,0-.87.24,1,1,0,0,0-.29.81v.45h1.3v.52h-1.3v4.23h-.66V51.9H357v-.52h.66V51c0-1.08.58-1.62,1.75-1.62a11.39,11.39,0,0,1,1.32.1h.63v5.79a.47.47,0,0,0,.09.33.36.36,0,0,0,.28.1,1.36,1.36,0,0,0,.29,0Z"/><path class="cls-21" d="M363.65,54v0a1.86,1.86,0,0,0,.41,1.28,1.43,1.43,0,0,0,1.13.45,2,2,0,0,0,.67-.11,3.84,3.84,0,0,0,.63-.33l.26.43a2.76,2.76,0,0,1-.72.39,2.58,2.58,0,0,1-.88.15,2.19,2.19,0,0,1-1.14-.29,1.89,1.89,0,0,1-.75-.81A2.57,2.57,0,0,1,363,54V53.5a2.64,2.64,0,0,1,.25-1.13,2.09,2.09,0,0,1,.7-.8,1.91,1.91,0,0,1,1.07-.3,1.77,1.77,0,0,1,1.42.6,2.48,2.48,0,0,1,.51,1.66,4.19,4.19,0,0,1,0,.42Zm0-.48h2.7v-.06a1.84,1.84,0,0,0-.35-1.18,1.33,1.33,0,0,0-2,0A2,2,0,0,0,363.65,53.47Z"/><path class="cls-21" d="M367.92,53.94v-.39a2.49,2.49,0,0,1,.53-1.65,1.84,1.84,0,0,1,1.5-.63,2.09,2.09,0,0,1,.81.15,2.23,2.23,0,0,1,.68.45l-.35.37a1.74,1.74,0,0,0-.51-.32,1.66,1.66,0,0,0-.61-.11,1.21,1.21,0,0,0-1,.46,2,2,0,0,0-.36,1.26V54a2.07,2.07,0,0,0,.35,1.28,1.19,1.19,0,0,0,1,.46,1.46,1.46,0,0,0,.6-.11,2.37,2.37,0,0,0,.53-.3l.31.43a2.59,2.59,0,0,1-.67.38,2.29,2.29,0,0,1-.78.14,1.82,1.82,0,0,1-1.48-.63A2.46,2.46,0,0,1,367.92,53.94Z"/><path class="cls-21" d="M374.88,56.12a2.69,2.69,0,0,1-.73.11,1.32,1.32,0,0,1-.91-.28,1,1,0,0,1-.31-.83V51.9h-.76v-.52H373l.05-1.12h.59v1.12h1.15v.52h-1.15v3.2a.55.55,0,0,0,.18.45.73.73,0,0,0,.5.15,2.09,2.09,0,0,0,.53-.07Z"/><path class="cls-21" d="M376.92,56.12h-.66V51.9h-.75v-.52h1.41Zm-.79-6.1a.41.41,0,0,1,.12-.3.45.45,0,0,1,.31-.12.41.41,0,0,1,.3.12.38.38,0,0,1,.13.3.42.42,0,0,1-.13.31.41.41,0,0,1-.3.12.41.41,0,0,1-.43-.43Z"/><path class="cls-21" d="M382.54,53.5V54a2.58,2.58,0,0,1-.25,1.17,1.8,1.8,0,0,1-.72.8,2.21,2.21,0,0,1-1.15.29,2,2,0,0,1-1.56-.62,2.36,2.36,0,0,1-.55-1.64V53.5a2.66,2.66,0,0,1,.24-1.15,1.89,1.89,0,0,1,.72-.79,2.18,2.18,0,0,1,1.15-.29,2.21,2.21,0,0,1,1.15.29,1.83,1.83,0,0,1,.72.79A2.52,2.52,0,0,1,382.54,53.5Zm-3.56,0V54a2,2,0,0,0,.37,1.28,1.27,1.27,0,0,0,1.07.46,1.3,1.3,0,0,0,1.07-.46,1.9,1.9,0,0,0,.39-1.28V53.5a1.82,1.82,0,0,0-.39-1.24,1.32,1.32,0,0,0-1.07-.45,1.29,1.29,0,0,0-1.07.45A1.85,1.85,0,0,0,379,53.5Z"/><path class="cls-21" d="M387.61,52.86v3.26h-.67V52.91a1.18,1.18,0,0,0-.26-.83,1,1,0,0,0-.74-.27,1.56,1.56,0,0,0-1.36.84v3.47h-.66V51.38h.57l.05.63a1.85,1.85,0,0,1,1.55-.74,1.49,1.49,0,0,1,1.1.42A1.55,1.55,0,0,1,387.61,52.86Z"/><path class="cls-21" d="M220.12,14l.36-.43c.2.15.37.27.52.36a1.86,1.86,0,0,0,.55.21,2.89,2.89,0,0,0,.77.08,2,2,0,0,0,.87-.16,1.3,1.3,0,0,0,.53-.43,1,1,0,0,0,.17-.52v-.15a.9.9,0,0,0-.26-.68,2.52,2.52,0,0,0-.91-.46l-.9-.3a2.49,2.49,0,0,1-1.11-.63,1.28,1.28,0,0,1-.35-.89v-.2A1.3,1.3,0,0,1,220.6,9a1.76,1.76,0,0,1,.72-.57,2.81,2.81,0,0,1,1.15-.22,2.84,2.84,0,0,1,2.07.82l-.36.4a2.52,2.52,0,0,0-.79-.51,2.31,2.31,0,0,0-.91-.16,1.89,1.89,0,0,0-.81.15,1.1,1.1,0,0,0-.48.37.81.81,0,0,0-.15.45v.19a.73.73,0,0,0,.27.56,2.68,2.68,0,0,0,.9.44l.82.26a3,3,0,0,1,1.14.61,1.36,1.36,0,0,1,.4,1v.23a1.45,1.45,0,0,1-.27.84,1.8,1.8,0,0,1-.78.61,3,3,0,0,1-1.2.23A3,3,0,0,1,220.12,14Z"/><path class="cls-21" d="M229.88,12.05v.43a2.74,2.74,0,0,1-.24,1.16,2.11,2.11,0,0,1-.69.81,1.79,1.79,0,0,1-1,.3,1.84,1.84,0,0,1-1.26-.48v2.17H226V9.87h.56l.06.58a1.75,1.75,0,0,1,1.45-.66,1.58,1.58,0,0,1,.94.28,1.88,1.88,0,0,1,.63.8A2.89,2.89,0,0,1,229.88,12.05Zm-.66,0a2.1,2.1,0,0,0-.33-1.26,1.1,1.1,0,0,0-.92-.44,1.53,1.53,0,0,0-.74.18,1.6,1.6,0,0,0-.55.52v2.69a1.6,1.6,0,0,0,1.17.5,1.22,1.22,0,0,0,1-.47,1.92,1.92,0,0,0,.37-1.25Z"/><path class="cls-21" d="M231.57,12.47v0a1.85,1.85,0,0,0,.4,1.28,1.45,1.45,0,0,0,1.14.45,1.78,1.78,0,0,0,.67-.12,2.82,2.82,0,0,0,.62-.32l.26.43a3.06,3.06,0,0,1-.72.39,2.49,2.49,0,0,1-.87.15,2.26,2.26,0,0,1-1.15-.29,2,2,0,0,1-.74-.81,2.57,2.57,0,0,1-.26-1.16V12a2.5,2.5,0,0,1,.25-1.13,1.91,1.91,0,0,1,1.77-1.1,1.77,1.77,0,0,1,1.42.6,2.48,2.48,0,0,1,.51,1.66,2.42,2.42,0,0,1,0,.42Zm0-.48h2.7v-.07a1.79,1.79,0,0,0-.35-1.17,1.18,1.18,0,0,0-1-.43,1.2,1.2,0,0,0-1,.45A1.87,1.87,0,0,0,231.57,12Z"/><path class="cls-21" d="M235.84,12.46v-.39a2.49,2.49,0,0,1,.53-1.65,1.84,1.84,0,0,1,1.5-.63,2.09,2.09,0,0,1,.81.15,2.35,2.35,0,0,1,.67.44l-.34.38a1.74,1.74,0,0,0-.51-.32,1.7,1.7,0,0,0-.61-.11,1.21,1.21,0,0,0-1,.46,2,2,0,0,0-.36,1.26v.42a2.09,2.09,0,0,0,.35,1.28,1.18,1.18,0,0,0,1,.46,1.64,1.64,0,0,0,.6-.11,2.27,2.27,0,0,0,.53-.31l.31.44a2.56,2.56,0,0,1-.67.37,2.08,2.08,0,0,1-.78.15,1.85,1.85,0,0,1-1.49-.63A2.5,2.5,0,0,1,235.84,12.46Z"/><path class="cls-21" d="M244.15,9.9v4.74h-.57l-.05-.67a1.94,1.94,0,0,1-1.57.78,1.52,1.52,0,0,1-1.07-.39,1.36,1.36,0,0,1-.42-1V9.9h.66v3.39a.9.9,0,0,0,.26.68.92.92,0,0,0,.7.25,1.45,1.45,0,0,0,.78-.23,1.81,1.81,0,0,0,.61-.62V9.9Z"/><path class="cls-21" d="M246.49,13.77a.5.5,0,0,0,.09.33.37.37,0,0,0,.29.1.9.9,0,0,0,.28,0l.09.48a1.49,1.49,0,0,1-.54.11.88.88,0,0,1-.64-.23.85.85,0,0,1-.24-.65V8h.67Z"/><path class="cls-21" d="M251.75,11.38v3.26h-.55l0-.56a2,2,0,0,1-1.56.67,1.91,1.91,0,0,1-.76-.16,1.4,1.4,0,0,1-.55-.47,1.12,1.12,0,0,1-.22-.69v-.3a1.19,1.19,0,0,1,.52-1,2.35,2.35,0,0,1,1.4-.37h1.1v-.4a1.05,1.05,0,0,0-.26-.77,1.07,1.07,0,0,0-.8-.26,2.75,2.75,0,0,0-.73.09,4.35,4.35,0,0,0-.7.29l-.22-.45a3.29,3.29,0,0,1,1.69-.47,1.71,1.71,0,0,1,1.26.42A1.59,1.59,0,0,1,251.75,11.38Zm-.67,2.18V12.24H250a1.62,1.62,0,0,0-1,.24.8.8,0,0,0-.34.7v.2A.78.78,0,0,0,249,14a1,1,0,0,0,.7.23,1.85,1.85,0,0,0,.78-.17A1.68,1.68,0,0,0,251.08,13.56Z"/><path class="cls-21" d="M255.87,9.9l-.12.63a1,1,0,0,0-.32,0,1.37,1.37,0,0,0-1.34,1.15v3h-.67V9.9h.5l.11.85a1.47,1.47,0,0,1,.55-.7,1.32,1.32,0,0,1,.77-.23A1.61,1.61,0,0,1,255.87,9.9Z"/><path class="cls-21" d="M261.65,9.9l-.11.63a1,1,0,0,0-.33,0,1.38,1.38,0,0,0-1.34,1.15v3h-.66V9.9h.5l.11.85a1.41,1.41,0,0,1,.55-.7,1.31,1.31,0,0,1,.76-.23A1.53,1.53,0,0,1,261.65,9.9Z"/><path class="cls-21" d="M262.91,12.47v0a1.85,1.85,0,0,0,.4,1.28,1.45,1.45,0,0,0,1.14.45,1.78,1.78,0,0,0,.67-.12,2.82,2.82,0,0,0,.62-.32l.26.43a3.06,3.06,0,0,1-.72.39,2.53,2.53,0,0,1-.87.15,2.26,2.26,0,0,1-1.15-.29,2,2,0,0,1-.75-.81,2.57,2.57,0,0,1-.25-1.16V12a2.5,2.5,0,0,1,.25-1.13,1.82,1.82,0,0,1,.7-.8,1.88,1.88,0,0,1,1.06-.3,1.79,1.79,0,0,1,1.43.6,2.48,2.48,0,0,1,.51,1.66,2.42,2.42,0,0,1,0,.42Zm0-.48h2.7v-.07a1.79,1.79,0,0,0-.35-1.17,1.33,1.33,0,0,0-2,0A1.87,1.87,0,0,0,262.91,12Z"/><path class="cls-21" d="M272.17,14.64a1.44,1.44,0,0,1-.53.11.88.88,0,0,1-.64-.23.85.85,0,0,1-.24-.65V8.49c-.62-.06-1-.1-1.21-.1a1.38,1.38,0,0,0-.88.24,1,1,0,0,0-.28.82V9.9h1.29v.52h-1.29v4.23h-.67V10.42h-.66V9.9h.66V9.49c0-1.08.59-1.62,1.76-1.62A12.26,12.26,0,0,1,270.8,8h.63v5.79a.5.5,0,0,0,.09.33.34.34,0,0,0,.28.1.92.92,0,0,0,.29,0Z"/><path class="cls-21" d="M273.71,12.47v0a1.85,1.85,0,0,0,.4,1.28,1.45,1.45,0,0,0,1.13.45,1.79,1.79,0,0,0,.68-.12,3.06,3.06,0,0,0,.62-.32l.26.43a3.06,3.06,0,0,1-.72.39,2.53,2.53,0,0,1-.87.15,2.26,2.26,0,0,1-1.15-.29,2,2,0,0,1-.75-.81,2.57,2.57,0,0,1-.25-1.16V12a2.63,2.63,0,0,1,.24-1.13,1.9,1.9,0,0,1,.71-.8,1.88,1.88,0,0,1,1.06-.3,1.79,1.79,0,0,1,1.43.6,2.48,2.48,0,0,1,.51,1.66,2.42,2.42,0,0,1,0,.42Zm0-.48h2.7v-.07a1.79,1.79,0,0,0-.35-1.17,1.19,1.19,0,0,0-1-.43,1.22,1.22,0,0,0-1,.45A1.93,1.93,0,0,0,273.71,12Z"/><path class="cls-21" d="M278,12.46v-.39a2.49,2.49,0,0,1,.53-1.65,1.84,1.84,0,0,1,1.5-.63,2.09,2.09,0,0,1,.81.15,2.35,2.35,0,0,1,.67.44l-.34.38a1.74,1.74,0,0,0-.51-.32,1.71,1.71,0,0,0-.62-.11,1.2,1.2,0,0,0-1,.46,2,2,0,0,0-.36,1.26v.42a2,2,0,0,0,.35,1.28,1.18,1.18,0,0,0,1,.46,1.55,1.55,0,0,0,.59-.11,2.14,2.14,0,0,0,.54-.31l.31.44a2.73,2.73,0,0,1-.67.37,2.08,2.08,0,0,1-.78.15,1.85,1.85,0,0,1-1.49-.63A2.5,2.5,0,0,1,278,12.46Z"/><path class="cls-21" d="M284.94,14.64a2.75,2.75,0,0,1-.73.11,1.31,1.31,0,0,1-.91-.28,1.06,1.06,0,0,1-.32-.83V10.42h-.75V9.9H283l.06-1.13h.59V9.9h1.14v.52h-1.14v3.19a.58.58,0,0,0,.17.45.71.71,0,0,0,.51.16,2.76,2.76,0,0,0,.53-.07Z"/><path class="cls-21" d="M287,14.64h-.67V10.42h-.74V9.9H287Zm-.79-6.1a.41.41,0,0,1,.42-.42.45.45,0,0,1,.31.12.44.44,0,0,1,0,.6.42.42,0,0,1-.31.13.38.38,0,0,1-.3-.13A.41.41,0,0,1,286.19,8.54Z"/><path class="cls-21" d="M292.6,12v.47a2.72,2.72,0,0,1-.25,1.17,1.93,1.93,0,0,1-.72.8,2.24,2.24,0,0,1-1.16.29,2,2,0,0,1-1.55-.62,2.38,2.38,0,0,1-.55-1.64V12a2.66,2.66,0,0,1,.24-1.15,1.81,1.81,0,0,1,.71-.79,2.21,2.21,0,0,1,1.15-.29,2.24,2.24,0,0,1,1.16.29,1.9,1.9,0,0,1,.72.79A2.66,2.66,0,0,1,292.6,12ZM289,12v.47a2,2,0,0,0,.37,1.28,1.31,1.31,0,0,0,1.07.46,1.36,1.36,0,0,0,1.08-.46,2,2,0,0,0,.38-1.28V12a1.86,1.86,0,0,0-.38-1.23,1.35,1.35,0,0,0-1.08-.45,1.33,1.33,0,0,0-1.07.44A1.93,1.93,0,0,0,289,12Z"/><path class="cls-21" d="M297.66,11.37v3.27H297V11.43a1.18,1.18,0,0,0-.26-.83,1,1,0,0,0-.74-.27,1.56,1.56,0,0,0-1.36.84v3.47H294V9.9h.57l0,.63a1.87,1.87,0,0,1,1.55-.74,1.53,1.53,0,0,1,1.11.41A1.62,1.62,0,0,1,297.66,11.37Z"/><path class="cls-21" d="M303.55,16.19l-.4.36a6.8,6.8,0,0,1-1-1.05,3.51,3.51,0,0,1-.53-1.06,4.78,4.78,0,0,1-.17-1.33v-1.8a4.78,4.78,0,0,1,.17-1.33,3.46,3.46,0,0,1,.53-1.05,6.82,6.82,0,0,1,1-1.06l.4.36a7.74,7.74,0,0,0-.88,1,3.25,3.25,0,0,0-.43.93,4.75,4.75,0,0,0-.12,1.14v1.8a4.69,4.69,0,0,0,.12,1.14,3.25,3.25,0,0,0,.43.93A7.74,7.74,0,0,0,303.55,16.19Z"/><path class="cls-21" d="M304.76,12.46v-.39a2.49,2.49,0,0,1,.53-1.65,1.84,1.84,0,0,1,1.5-.63,2.09,2.09,0,0,1,.81.15,2.35,2.35,0,0,1,.67.44l-.34.38a1.74,1.74,0,0,0-.51-.32,1.66,1.66,0,0,0-.61-.11,1.21,1.21,0,0,0-1,.46,2,2,0,0,0-.36,1.26v.42a2.09,2.09,0,0,0,.35,1.28,1.18,1.18,0,0,0,1,.46,1.64,1.64,0,0,0,.6-.11,2.27,2.27,0,0,0,.53-.31l.31.44a2.56,2.56,0,0,1-.67.37,2.08,2.08,0,0,1-.78.15,1.82,1.82,0,0,1-1.48-.63A2.46,2.46,0,0,1,304.76,12.46Z"/><path class="cls-21" d="M313.29,12v.47a2.72,2.72,0,0,1-.25,1.17,1.88,1.88,0,0,1-.73.8,2.18,2.18,0,0,1-1.15.29,2,2,0,0,1-1.55-.62,2.38,2.38,0,0,1-.55-1.64V12a2.66,2.66,0,0,1,.24-1.15,1.78,1.78,0,0,1,.72-.79,2.14,2.14,0,0,1,1.14-.29,2.18,2.18,0,0,1,1.15.29,1.86,1.86,0,0,1,.73.79A2.66,2.66,0,0,1,313.29,12Zm-3.57,0v.47a2,2,0,0,0,.37,1.28,1.33,1.33,0,0,0,1.07.46,1.35,1.35,0,0,0,1.08-.46,2,2,0,0,0,.38-1.28V12a1.86,1.86,0,0,0-.38-1.23,1.52,1.52,0,0,0-2.15,0A1.93,1.93,0,0,0,309.72,12Z"/><path class="cls-21" d="M317.9,11.38v3.26h-.54l-.05-.56a2,2,0,0,1-1.56.67,1.91,1.91,0,0,1-.76-.16,1.5,1.5,0,0,1-.56-.47,1.17,1.17,0,0,1-.21-.69v-.3a1.16,1.16,0,0,1,.52-1,2.35,2.35,0,0,1,1.4-.37h1.1v-.4a1.05,1.05,0,0,0-.26-.77,1.07,1.07,0,0,0-.8-.26,2.75,2.75,0,0,0-.73.09,4.84,4.84,0,0,0-.71.29l-.21-.45a3.29,3.29,0,0,1,1.69-.47,1.71,1.71,0,0,1,1.26.42A1.58,1.58,0,0,1,317.9,11.38Zm-.66,2.18V12.24h-1.05a1.62,1.62,0,0,0-1,.24.8.8,0,0,0-.34.7v.2a.81.81,0,0,0,.26.62,1.08,1.08,0,0,0,.71.23,1.77,1.77,0,0,0,.77-.17A1.63,1.63,0,0,0,317.24,13.56Z"/><path class="cls-21" d="M321.77,14.64a2.68,2.68,0,0,1-.72.11,1.31,1.31,0,0,1-.91-.28,1.06,1.06,0,0,1-.32-.83V10.42h-.76V9.9h.78l.05-1.13h.6V9.9h1.14v.52h-1.14v3.19a.55.55,0,0,0,.17.45.68.68,0,0,0,.5.16,2.67,2.67,0,0,0,.53-.07Z"/><path class="cls-21" d="M323.82,14.64h-.67V10.42h-.75V9.9h1.42Zm-.8-6.1a.38.38,0,0,1,.13-.3.43.43,0,0,1,.6,0,.42.42,0,1,1-.73.3Z"/><path class="cls-21" d="M329.27,11.37v3.27h-.66V11.43a1.14,1.14,0,0,0-.27-.83,1,1,0,0,0-.73-.27,1.55,1.55,0,0,0-1.36.84v3.47h-.67V9.9h.57l.05.63a1.87,1.87,0,0,1,1.55-.74,1.51,1.51,0,0,1,1.1.41A1.58,1.58,0,0,1,329.27,11.37Z"/><path class="cls-21" d="M334.46,9.87v4.89a1.71,1.71,0,0,1-.52,1.31,2,2,0,0,1-1.39.48,3.13,3.13,0,0,1-1.64-.43l.23-.44a3.15,3.15,0,0,0,.65.26,3,3,0,0,0,.71.08,1.35,1.35,0,0,0,1-.33,1.27,1.27,0,0,0,.34-1V14a1.82,1.82,0,0,1-1.43.68,1.7,1.7,0,0,1-1.29-.54,2.37,2.37,0,0,1-.51-1.66V12a2.72,2.72,0,0,1,.26-1.23,1.8,1.8,0,0,1,.69-.75,1.84,1.84,0,0,1,.93-.24,1.75,1.75,0,0,1,1.37.62l.06-.54Zm-.67,3.49V11a1.54,1.54,0,0,0-.52-.5,1.36,1.36,0,0,0-.71-.17,1.21,1.21,0,0,0-.94.39,1.85,1.85,0,0,0-.36,1.27v.44a2,2,0,0,0,.33,1.28,1.07,1.07,0,0,0,.88.4,1.44,1.44,0,0,0,.74-.2A1.78,1.78,0,0,0,333.79,13.36Z"/><path class="cls-21" d="M338.15,11.31v1.8a4.8,4.8,0,0,1-.16,1.33,3.51,3.51,0,0,1-.53,1.06,6.91,6.91,0,0,1-1,1.05l-.39-.36a7.56,7.56,0,0,0,.87-1,3,3,0,0,0,.43-.93,4.21,4.21,0,0,0,.13-1.14v-1.8a4.26,4.26,0,0,0-.13-1.14,3,3,0,0,0-.43-.93,7.56,7.56,0,0,0-.87-1l.39-.36a6.93,6.93,0,0,1,1,1.06A3.46,3.46,0,0,1,338,10,4.8,4.8,0,0,1,338.15,11.31Z"/><path class="cls-22" d="M12,8.9H10.07v5.74H9.39V8.9H7.52V8.34H12Z"/><path class="cls-22" d="M15.26,9.9l-.11.63a1,1,0,0,0-.33,0,1.36,1.36,0,0,0-1.34,1.15v3h-.67V9.9h.51l.11.85a1.41,1.41,0,0,1,.55-.7,1.29,1.29,0,0,1,.76-.23A1.57,1.57,0,0,1,15.26,9.9Z"/><path class="cls-22" d="M19.39,11.38v3.26h-.55l0-.56a2,2,0,0,1-1.56.67,1.91,1.91,0,0,1-.76-.16,1.43,1.43,0,0,1-.56-.47,1.18,1.18,0,0,1-.21-.7v-.29a1.16,1.16,0,0,1,.52-1,2.35,2.35,0,0,1,1.4-.37h1.1v-.4a1.05,1.05,0,0,0-.26-.77,1.07,1.07,0,0,0-.8-.26,2.75,2.75,0,0,0-.73.09,4.84,4.84,0,0,0-.71.29L16,10.26a3.2,3.2,0,0,1,1.69-.47,1.71,1.71,0,0,1,1.26.42A1.58,1.58,0,0,1,19.39,11.38Zm-.66,2.18V12.24H17.67a1.61,1.61,0,0,0-1,.24.8.8,0,0,0-.34.7v.2a.81.81,0,0,0,.26.62,1.08,1.08,0,0,0,.71.23,1.77,1.77,0,0,0,.77-.17A1.63,1.63,0,0,0,18.73,13.56Z"/><path class="cls-22" d="M24.76,11.37v3.27h-.67V11.43a1.16,1.16,0,0,0-.26-.83,1,1,0,0,0-.74-.27,1.56,1.56,0,0,0-1.36.84v3.47h-.66V9.9h.56l.06.63a1.83,1.83,0,0,1,1.55-.74,1.53,1.53,0,0,1,1.1.41A1.58,1.58,0,0,1,24.76,11.37Z"/><path class="cls-22" d="M25.91,14.14l.34-.44a2.44,2.44,0,0,0,.65.39,2.36,2.36,0,0,0,.78.13,1.55,1.55,0,0,0,.85-.2.62.62,0,0,0,.3-.56v-.07a.63.63,0,0,0-.19-.5,2.14,2.14,0,0,0-.72-.36l-.63-.22a2.43,2.43,0,0,1-.89-.48.94.94,0,0,1-.27-.7V11a1,1,0,0,1,.21-.62,1.32,1.32,0,0,1,.59-.42,2.24,2.24,0,0,1,.84-.15,2.77,2.77,0,0,1,.92.15,2.61,2.61,0,0,1,.77.42l-.34.4a2.22,2.22,0,0,0-.65-.33,2.17,2.17,0,0,0-.69-.1,1.34,1.34,0,0,0-.72.17.53.53,0,0,0-.27.47V11a.56.56,0,0,0,.2.44,2.42,2.42,0,0,0,.71.35l.63.23a2.31,2.31,0,0,1,.88.48,1,1,0,0,1,.29.78v.15a1.09,1.09,0,0,1-.5.94,2.23,2.23,0,0,1-1.26.34A2.88,2.88,0,0,1,25.91,14.14Z"/><path class="cls-22" d="M34.77,12.05v.43a2.74,2.74,0,0,1-.24,1.16,2,2,0,0,1-.7.81,1.73,1.73,0,0,1-1,.3,1.8,1.8,0,0,1-1.26-.48v2.17H30.9V9.87h.57l.05.58A1.77,1.77,0,0,1,33,9.79a1.61,1.61,0,0,1,1,.28,1.88,1.88,0,0,1,.63.8A2.89,2.89,0,0,1,34.77,12.05Zm-.66,0a2.1,2.1,0,0,0-.33-1.26,1.1,1.1,0,0,0-.92-.44,1.48,1.48,0,0,0-1.29.7v2.69a1.6,1.6,0,0,0,1.17.5,1.22,1.22,0,0,0,1-.47,2,2,0,0,0,.37-1.25Z"/><path class="cls-22" d="M39.43,11.38v3.26h-.55l-.05-.56a2,2,0,0,1-1.55.67,1.88,1.88,0,0,1-.76-.16,1.36,1.36,0,0,1-.56-.47,1.18,1.18,0,0,1-.21-.7v-.29a1.18,1.18,0,0,1,.51-1,2.37,2.37,0,0,1,1.4-.37h1.1v-.4a.92.92,0,0,0-1.06-1,2.75,2.75,0,0,0-.73.09,4.76,4.76,0,0,0-.7.29l-.22-.45a3.2,3.2,0,0,1,1.69-.47,1.71,1.71,0,0,1,1.26.42A1.55,1.55,0,0,1,39.43,11.38Zm-.67,2.18V12.24h-1a1.62,1.62,0,0,0-1,.24.8.8,0,0,0-.34.7v.2a.78.78,0,0,0,.27.62,1,1,0,0,0,.7.23,1.82,1.82,0,0,0,.78-.17A1.68,1.68,0,0,0,38.76,13.56Z"/><path class="cls-22" d="M43.55,9.9l-.12.63a.92.92,0,0,0-.32,0,1.36,1.36,0,0,0-1.34,1.15v3H41.1V9.9h.51l.1.85a1.47,1.47,0,0,1,.55-.7A1.34,1.34,0,0,1,43,9.82,1.57,1.57,0,0,1,43.55,9.9Z"/><path class="cls-22" d="M44.8,12.47v0a1.81,1.81,0,0,0,.41,1.28,1.42,1.42,0,0,0,1.13.45A1.74,1.74,0,0,0,47,14.1a2.82,2.82,0,0,0,.62-.32l.27.43a3.07,3.07,0,0,1-.72.38,2.37,2.37,0,0,1-.88.16,2.19,2.19,0,0,1-1.14-.29,2,2,0,0,1-.75-.81,2.57,2.57,0,0,1-.26-1.16V12a2.5,2.5,0,0,1,.25-1.13,1.91,1.91,0,0,1,1.77-1.1,1.77,1.77,0,0,1,1.42.6,2.48,2.48,0,0,1,.51,1.66c0,.17,0,.31,0,.42Zm0-.48h2.7v-.07a1.79,1.79,0,0,0-.35-1.17,1.18,1.18,0,0,0-1-.43,1.2,1.2,0,0,0-1,.45A1.93,1.93,0,0,0,44.8,12Z"/><path class="cls-22" d="M53.14,11.37v3.27h-.66V11.43a1.16,1.16,0,0,0-.26-.83,1,1,0,0,0-.74-.27,1.56,1.56,0,0,0-1.36.84v3.47h-.67V9.9H50l0,.63a1.84,1.84,0,0,1,1.55-.74,1.49,1.49,0,0,1,1.1.41A1.58,1.58,0,0,1,53.14,11.37Z"/><path class="cls-22" d="M54.44,12.46v-.39A2.44,2.44,0,0,1,55,10.42a1.84,1.84,0,0,1,1.49-.63,2.09,2.09,0,0,1,.81.15,2.2,2.2,0,0,1,.68.44l-.34.38a1.78,1.78,0,0,0-.52-.32,1.48,1.48,0,0,0-.61-.11,1.22,1.22,0,0,0-1,.46,2,2,0,0,0-.36,1.26v.42a2,2,0,0,0,.36,1.28,1.2,1.2,0,0,0,1,.46,1.57,1.57,0,0,0,.6-.11,2.14,2.14,0,0,0,.54-.31l.3.44a2.41,2.41,0,0,1-.67.37,2.07,2.07,0,0,1-.77.15A1.84,1.84,0,0,1,55,14.12,2.5,2.5,0,0,1,54.44,12.46Z"/><path class="cls-22" d="M59,16.45l.1-.46a1.73,1.73,0,0,0,.45,0,.74.74,0,0,0,.52-.17,1.48,1.48,0,0,0,.35-.65l.19-.58h-.31L58.62,9.9h.7l1.41,4.24L62,9.9h.66L61,15.27a2,2,0,0,1-.59,1,1.37,1.37,0,0,1-.87.27,1.39,1.39,0,0,1-.3,0A1,1,0,0,1,59,16.45Z"/><path class="cls-21" d="M226.66,97l.36-.43c.2.15.37.27.52.36a2,2,0,0,0,.55.21,3.37,3.37,0,0,0,.77.08,2,2,0,0,0,.87-.16,1.3,1.3,0,0,0,.53-.43.87.87,0,0,0,.17-.52V96a.9.9,0,0,0-.26-.68,2.52,2.52,0,0,0-.91-.46l-.9-.3a2.55,2.55,0,0,1-1.11-.63,1.28,1.28,0,0,1-.35-.89v-.2a1.3,1.3,0,0,1,.24-.73,1.76,1.76,0,0,1,.72-.57,3.05,3.05,0,0,1,3.22.6l-.36.4a2.52,2.52,0,0,0-.79-.51,2.31,2.31,0,0,0-.91-.16,1.92,1.92,0,0,0-.81.15,1.1,1.1,0,0,0-.48.37.81.81,0,0,0-.15.45V93a.73.73,0,0,0,.27.56,2.68,2.68,0,0,0,.9.44l.82.26a3,3,0,0,1,1.14.61,1.36,1.36,0,0,1,.4,1v.22a1.46,1.46,0,0,1-.27.85,1.8,1.8,0,0,1-.78.61,3,3,0,0,1-1.2.23A3,3,0,0,1,226.66,97Z"/><path class="cls-21" d="M236.43,95.09v.43a2.74,2.74,0,0,1-.25,1.16,2.11,2.11,0,0,1-.69.81,1.79,1.79,0,0,1-1,.3,1.84,1.84,0,0,1-1.26-.48v2.17h-.66V92.91h.56l.06.58a1.75,1.75,0,0,1,1.45-.66,1.58,1.58,0,0,1,.94.28,1.88,1.88,0,0,1,.63.8A2.89,2.89,0,0,1,236.43,95.09Zm-.67,0a2.1,2.1,0,0,0-.33-1.26,1.1,1.1,0,0,0-.92-.44,1.46,1.46,0,0,0-.73.18,1.54,1.54,0,0,0-.56.52v2.69a1.6,1.6,0,0,0,1.17.5,1.22,1.22,0,0,0,1-.47,1.92,1.92,0,0,0,.37-1.25Z"/><path class="cls-21" d="M238.11,95.51v0a1.85,1.85,0,0,0,.4,1.28,1.45,1.45,0,0,0,1.14.45,1.74,1.74,0,0,0,.67-.12,2.82,2.82,0,0,0,.62-.32l.27.43a3,3,0,0,1-.73.38,2.28,2.28,0,0,1-.87.16,2.26,2.26,0,0,1-1.15-.29,2,2,0,0,1-.74-.81,2.57,2.57,0,0,1-.26-1.16v-.47a2.5,2.5,0,0,1,.25-1.13,1.91,1.91,0,0,1,1.77-1.1,1.77,1.77,0,0,1,1.42.6,2.48,2.48,0,0,1,.51,1.66,2.42,2.42,0,0,1,0,.42Zm0-.48h2.7V95a1.79,1.79,0,0,0-.35-1.17,1.18,1.18,0,0,0-1-.43,1.2,1.2,0,0,0-1,.45A1.93,1.93,0,0,0,238.11,95Z"/><path class="cls-21" d="M242.38,95.5v-.39a2.49,2.49,0,0,1,.53-1.65,1.84,1.84,0,0,1,1.5-.63,2.09,2.09,0,0,1,.81.15,2.16,2.16,0,0,1,.67.44l-.34.38a1.74,1.74,0,0,0-.51-.32,1.51,1.51,0,0,0-.61-.11,1.21,1.21,0,0,0-1,.46,2,2,0,0,0-.36,1.26v.42a2.09,2.09,0,0,0,.35,1.28,1.21,1.21,0,0,0,1,.46,1.64,1.64,0,0,0,.6-.11,2.27,2.27,0,0,0,.53-.31l.31.44a2.56,2.56,0,0,1-.67.37,2.08,2.08,0,0,1-.78.15,1.85,1.85,0,0,1-1.49-.63A2.5,2.5,0,0,1,242.38,95.5Z"/><path class="cls-21" d="M250.69,92.94v4.74h-.57l-.05-.67a1.94,1.94,0,0,1-1.57.78,1.52,1.52,0,0,1-1.07-.39,1.36,1.36,0,0,1-.42-1V92.94h.67v3.39a.89.89,0,0,0,.25.68.94.94,0,0,0,.7.25,1.45,1.45,0,0,0,.78-.23,1.9,1.9,0,0,0,.61-.62V92.94Z"/><path class="cls-21" d="M253,96.81a.5.5,0,0,0,.09.33.37.37,0,0,0,.29.1.9.9,0,0,0,.28,0l.09.48a1.49,1.49,0,0,1-.54.11.88.88,0,0,1-.64-.23.85.85,0,0,1-.24-.65V91H253Z"/><path class="cls-21" d="M258.29,94.42v3.26h-.55l-.05-.56a2,2,0,0,1-1.56.67,1.87,1.87,0,0,1-.75-.16,1.36,1.36,0,0,1-.56-.47,1.18,1.18,0,0,1-.21-.7v-.29a1.18,1.18,0,0,1,.51-1,2.35,2.35,0,0,1,1.4-.37h1.1v-.4a.92.92,0,0,0-1.06-1,2.75,2.75,0,0,0-.73.09,4.76,4.76,0,0,0-.7.29l-.22-.45a3.29,3.29,0,0,1,1.69-.47,1.71,1.71,0,0,1,1.26.42A1.59,1.59,0,0,1,258.29,94.42Zm-.67,2.18V95.28h-1.05a1.62,1.62,0,0,0-1,.24.8.8,0,0,0-.34.7v.2a.78.78,0,0,0,.27.62,1,1,0,0,0,.7.23,1.82,1.82,0,0,0,.78-.17A1.68,1.68,0,0,0,257.62,96.6Z"/><path class="cls-21" d="M262.41,92.94l-.12.63a.92.92,0,0,0-.32,0,1.36,1.36,0,0,0-1.34,1.15v3H260V92.94h.5l.11.85a1.47,1.47,0,0,1,.55-.7,1.34,1.34,0,0,1,.77-.23A1.61,1.61,0,0,1,262.41,92.94Z"/><path class="cls-21" d="M218.63,108.48a2.69,2.69,0,0,1-.73.11,1.39,1.39,0,0,1-.91-.28,1.09,1.09,0,0,1-.31-.83v-3.22h-.76v-.52h.78l.05-1.13h.6v1.13h1.14v.52h-1.14v3.19a.55.55,0,0,0,.17.45.68.68,0,0,0,.5.16,2.13,2.13,0,0,0,.53-.08Z"/><path class="cls-21" d="M222.31,103.74l-.11.63a1,1,0,0,0-.33,0c-.66,0-1.1.38-1.34,1.15v3h-.66v-4.74h.5l.11.85a1.49,1.49,0,0,1,.55-.71,1.37,1.37,0,0,1,.76-.22A1.57,1.57,0,0,1,222.31,103.74Z"/><path class="cls-21" d="M226.45,105.22v3.26h-.55l-.05-.56a2,2,0,0,1-1.56.67,1.91,1.91,0,0,1-.76-.16A1.5,1.5,0,0,1,223,108a1.18,1.18,0,0,1-.21-.7V107a1.19,1.19,0,0,1,.52-1,2.35,2.35,0,0,1,1.4-.37h1.1v-.4a1.1,1.1,0,0,0-.26-.78,1.11,1.11,0,0,0-.8-.25,2.75,2.75,0,0,0-.73.09,4.35,4.35,0,0,0-.7.29l-.22-.45a3.2,3.2,0,0,1,1.69-.47,1.71,1.71,0,0,1,1.26.42A1.59,1.59,0,0,1,226.45,105.22Zm-.67,2.18v-1.32h-1.05a1.62,1.62,0,0,0-1,.24.8.8,0,0,0-.34.7v.2a.78.78,0,0,0,.27.62,1,1,0,0,0,.7.23,1.85,1.85,0,0,0,.78-.17A1.68,1.68,0,0,0,225.78,107.4Z"/><path class="cls-21" d="M231.81,105.21v3.27h-.67v-3.21a1.12,1.12,0,0,0-.26-.83,1,1,0,0,0-.74-.27,1.54,1.54,0,0,0-1.35.84v3.47h-.67v-4.74h.57l.05.63a1.83,1.83,0,0,1,1.55-.74,1.53,1.53,0,0,1,1.1.41A1.58,1.58,0,0,1,231.81,105.21Z"/><path class="cls-21" d="M233,108l.34-.44a2.12,2.12,0,0,0,1.43.52,1.55,1.55,0,0,0,.85-.2.61.61,0,0,0,.31-.56v-.07a.64.64,0,0,0-.2-.5,2.14,2.14,0,0,0-.72-.36l-.63-.22a2.37,2.37,0,0,1-.88-.48.91.91,0,0,1-.28-.7v-.15a1,1,0,0,1,.21-.62,1.38,1.38,0,0,1,.59-.42,2.24,2.24,0,0,1,.84-.15,2.77,2.77,0,0,1,.92.15,2.49,2.49,0,0,1,.77.42l-.34.4a2.1,2.1,0,0,0-.65-.33,2.17,2.17,0,0,0-.69-.1,1.37,1.37,0,0,0-.72.17.53.53,0,0,0-.27.47v.07a.56.56,0,0,0,.2.44,2.42,2.42,0,0,0,.71.35l.63.23a2.19,2.19,0,0,1,.88.48,1,1,0,0,1,.29.78v.15a1.09,1.09,0,0,1-.5.94,2.23,2.23,0,0,1-1.26.34A2.88,2.88,0,0,1,233,108Z"/><path class="cls-21" d="M244.1,105.18v3.3h-.66v-3.24a1.15,1.15,0,0,0-.25-.82.84.84,0,0,0-.64-.26,1.38,1.38,0,0,0-1.19.85v3.47h-.67v-3.29a1.09,1.09,0,0,0-.24-.77.83.83,0,0,0-.63-.26,1.39,1.39,0,0,0-1.2.85v3.47H238v-4.74h.56l.06.62a1.59,1.59,0,0,1,1.37-.73,1.44,1.44,0,0,1,.77.21,1.22,1.22,0,0,1,.5.61,1.71,1.71,0,0,1,1.48-.82,1.38,1.38,0,0,1,.7.18,1.24,1.24,0,0,1,.51.53A1.68,1.68,0,0,1,244.1,105.18Z"/><path class="cls-21" d="M246.59,108.48h-.67v-4.22h-.75v-.52h1.42Zm-.79-6.1a.41.41,0,0,1,.12-.3.41.41,0,0,1,.6,0,.42.42,0,1,1-.6.6A.41.41,0,0,1,245.8,102.38Z"/><path class="cls-21" d="M247.83,108l.34-.44a2.29,2.29,0,0,0,.65.39,2.36,2.36,0,0,0,.78.13,1.55,1.55,0,0,0,.85-.2.62.62,0,0,0,.3-.56v-.07a.63.63,0,0,0-.19-.5,2.14,2.14,0,0,0-.72-.36l-.63-.22a2.43,2.43,0,0,1-.89-.48.94.94,0,0,1-.27-.7v-.15a1,1,0,0,1,.21-.62,1.32,1.32,0,0,1,.59-.42,2.24,2.24,0,0,1,.84-.15,2.77,2.77,0,0,1,.92.15,2.61,2.61,0,0,1,.77.42l-.34.4a2.22,2.22,0,0,0-.65-.33,2.17,2.17,0,0,0-.69-.1,1.32,1.32,0,0,0-.72.17.53.53,0,0,0-.27.47v.07a.56.56,0,0,0,.2.44,2.42,2.42,0,0,0,.71.35l.63.23a2.19,2.19,0,0,1,.88.48,1,1,0,0,1,.29.78v.15a1.09,1.09,0,0,1-.5.94,2.23,2.23,0,0,1-1.26.34A2.88,2.88,0,0,1,247.83,108Z"/><path class="cls-21" d="M252.3,108l.34-.44a2.12,2.12,0,0,0,1.43.52,1.55,1.55,0,0,0,.85-.2.61.61,0,0,0,.31-.56v-.07a.64.64,0,0,0-.2-.5,2.14,2.14,0,0,0-.72-.36l-.63-.22a2.37,2.37,0,0,1-.88-.48.91.91,0,0,1-.28-.7v-.15a1,1,0,0,1,.21-.62,1.38,1.38,0,0,1,.59-.42,2.24,2.24,0,0,1,.84-.15,2.77,2.77,0,0,1,.92.15,2.49,2.49,0,0,1,.77.42l-.34.4a2.1,2.1,0,0,0-.65-.33,2.17,2.17,0,0,0-.69-.1,1.37,1.37,0,0,0-.72.17.53.53,0,0,0-.27.47v.07a.56.56,0,0,0,.2.44,2.42,2.42,0,0,0,.71.35l.63.23a2.19,2.19,0,0,1,.88.48,1,1,0,0,1,.29.78v.15a1.07,1.07,0,0,1-.5.94,2.23,2.23,0,0,1-1.26.34A2.88,2.88,0,0,1,252.3,108Z"/><path class="cls-21" d="M258,108.48h-.67v-4.22h-.75v-.52H258Zm-.8-6.1a.38.38,0,0,1,.13-.3.41.41,0,0,1,.6,0,.42.42,0,1,1-.73.3Z"/><path class="cls-21" d="M263.63,105.86v.47a2.58,2.58,0,0,1-.25,1.17,1.8,1.8,0,0,1-.72.8,2.21,2.21,0,0,1-1.15.29A2,2,0,0,1,260,108a2.42,2.42,0,0,1-.55-1.64v-.47a2.63,2.63,0,0,1,.24-1.15,1.9,1.9,0,0,1,.72-.79,2.43,2.43,0,0,1,2.3,0,1.78,1.78,0,0,1,.72.79A2.5,2.5,0,0,1,263.63,105.86Zm-3.56,0v.47a2,2,0,0,0,.37,1.28,1.3,1.3,0,0,0,1.07.46,1.33,1.33,0,0,0,1.07-.46,1.92,1.92,0,0,0,.39-1.28v-.47a1.81,1.81,0,0,0-.39-1.23,1.51,1.51,0,0,0-2.14,0A1.87,1.87,0,0,0,260.07,105.85Z"/><path class="cls-21" d="M268.7,105.21v3.27H268v-3.21a1.12,1.12,0,0,0-.26-.83,1,1,0,0,0-.74-.27,1.57,1.57,0,0,0-1.36.84v3.47H265v-4.74h.57l.05.63a1.83,1.83,0,0,1,1.55-.74,1.53,1.53,0,0,1,1.1.41A1.58,1.58,0,0,1,268.7,105.21Z"/><path class="cls-21" d="M271.77,103.65l.87,1.11-.45.34-.79-1.17-.78,1.17-.45-.33.87-1.12-1.36-.38.17-.51,1.32.47-.05-1.41h.57l-.06,1.41,1.33-.48.18.52Z"/><path class="cls-23" d="M313.71,97l.36-.43c.2.15.37.27.52.36a2,2,0,0,0,.55.21,2.89,2.89,0,0,0,.77.08,2.1,2.1,0,0,0,.88-.16,1.34,1.34,0,0,0,.52-.43.87.87,0,0,0,.17-.52V96a.86.86,0,0,0-.26-.68,2.44,2.44,0,0,0-.91-.46l-.9-.3a2.62,2.62,0,0,1-1.11-.63A1.27,1.27,0,0,1,314,93v-.2a1.36,1.36,0,0,1,.23-.73,1.76,1.76,0,0,1,.72-.57,3.05,3.05,0,0,1,3.22.6l-.36.4A2.52,2.52,0,0,0,317,92a2.31,2.31,0,0,0-.91-.16,2,2,0,0,0-.81.15,1.1,1.1,0,0,0-.48.37.81.81,0,0,0-.15.45V93a.73.73,0,0,0,.27.56,2.68,2.68,0,0,0,.9.44l.82.26a3,3,0,0,1,1.14.61,1.33,1.33,0,0,1,.4,1v.23a1.45,1.45,0,0,1-.27.84,1.8,1.8,0,0,1-.78.61,3,3,0,0,1-1.2.23A3,3,0,0,1,313.71,97Z"/><path class="cls-23" d="M323.48,95.09v.43a2.74,2.74,0,0,1-.25,1.16,2.11,2.11,0,0,1-.69.81,1.76,1.76,0,0,1-1,.3,1.84,1.84,0,0,1-1.26-.48v2.17h-.66V92.91h.56l.06.58a1.75,1.75,0,0,1,1.45-.66,1.58,1.58,0,0,1,.94.28,1.88,1.88,0,0,1,.63.8A2.89,2.89,0,0,1,323.48,95.09Zm-.67,0a2.1,2.1,0,0,0-.33-1.26,1.08,1.08,0,0,0-.92-.44,1.49,1.49,0,0,0-.73.18,1.54,1.54,0,0,0-.56.52v2.69a1.6,1.6,0,0,0,1.17.5,1.21,1.21,0,0,0,1-.47,1.9,1.9,0,0,0,.37-1.25Z"/><path class="cls-23" d="M325.16,95.51v0a1.9,1.9,0,0,0,.4,1.28,1.47,1.47,0,0,0,1.14.45,1.74,1.74,0,0,0,.67-.12,3.12,3.12,0,0,0,.63-.32l.26.43a3.51,3.51,0,0,1-.72.39,2.58,2.58,0,0,1-.88.15,2.19,2.19,0,0,1-1.14-.29,2,2,0,0,1-.75-.81,2.57,2.57,0,0,1-.26-1.16v-.47a2.5,2.5,0,0,1,.25-1.13,1.91,1.91,0,0,1,1.77-1.1,1.77,1.77,0,0,1,1.42.6,2.48,2.48,0,0,1,.51,1.66c0,.17,0,.31,0,.42Zm0-.48h2.7V95a1.79,1.79,0,0,0-.35-1.17,1.18,1.18,0,0,0-1-.43,1.2,1.2,0,0,0-1,.45A1.93,1.93,0,0,0,325.16,95Z"/><path class="cls-23" d="M329.43,95.5v-.39a2.49,2.49,0,0,1,.53-1.65,1.84,1.84,0,0,1,1.5-.63,2.09,2.09,0,0,1,.81.15,2.54,2.54,0,0,1,.68.44l-.35.38a1.74,1.74,0,0,0-.51-.32,1.66,1.66,0,0,0-.61-.11,1.21,1.21,0,0,0-1,.46,2,2,0,0,0-.36,1.26v.42a2.09,2.09,0,0,0,.35,1.28,1.19,1.19,0,0,0,1,.46,1.64,1.64,0,0,0,.6-.11,2.09,2.09,0,0,0,.53-.31l.31.44a2.56,2.56,0,0,1-.67.37,2.08,2.08,0,0,1-.78.15,1.82,1.82,0,0,1-1.48-.63A2.46,2.46,0,0,1,329.43,95.5Z"/><path class="cls-23" d="M337.74,92.94v4.74h-.57l-.05-.67a1.94,1.94,0,0,1-1.57.78,1.53,1.53,0,0,1-1.07-.39,1.36,1.36,0,0,1-.42-1V92.94h.67v3.39A.89.89,0,0,0,335,97a.94.94,0,0,0,.7.25,1.45,1.45,0,0,0,.78-.23,1.93,1.93,0,0,0,.62-.62V92.94Z"/><path class="cls-23" d="M340.08,96.81a.5.5,0,0,0,.09.33.37.37,0,0,0,.29.1.86.86,0,0,0,.28,0l.09.48a1.49,1.49,0,0,1-.54.11.9.9,0,0,1-.64-.23.85.85,0,0,1-.23-.65V91h.66Z"/><path class="cls-23" d="M345.34,94.42v3.26h-.55l-.05-.56a2,2,0,0,1-1.55.67,1.88,1.88,0,0,1-.76-.16,1.43,1.43,0,0,1-.56-.47,1.17,1.17,0,0,1-.21-.69v-.3a1.18,1.18,0,0,1,.51-1,2.37,2.37,0,0,1,1.4-.37h1.1v-.4a.92.92,0,0,0-1.06-1,2.81,2.81,0,0,0-.73.09,4.76,4.76,0,0,0-.7.29L342,93.3a3.29,3.29,0,0,1,1.69-.47,1.71,1.71,0,0,1,1.26.42A1.55,1.55,0,0,1,345.34,94.42Zm-.67,2.18V95.28h-1.05a1.64,1.64,0,0,0-1,.24.83.83,0,0,0-.34.7v.2a.78.78,0,0,0,.27.62,1,1,0,0,0,.71.23,1.81,1.81,0,0,0,.77-.17A1.68,1.68,0,0,0,344.67,96.6Z"/><path class="cls-23" d="M349.46,92.94l-.12.63a.92.92,0,0,0-.32,0,1.37,1.37,0,0,0-1.34,1.15v3H347V92.94h.51l.1.85a1.53,1.53,0,0,1,.55-.7,1.34,1.34,0,0,1,.77-.23A1.57,1.57,0,0,1,349.46,92.94Z"/><path class="cls-23" d="M355.25,92.94l-.12.63a1,1,0,0,0-.32,0,1.39,1.39,0,0,0-1.35,1.15v3h-.66V92.94h.5l.11.85a1.47,1.47,0,0,1,.55-.7,1.31,1.31,0,0,1,.76-.23A1.63,1.63,0,0,1,355.25,92.94Z"/><path class="cls-23" d="M356.5,95.51v0a1.85,1.85,0,0,0,.4,1.28,1.45,1.45,0,0,0,1.14.45,1.78,1.78,0,0,0,.67-.12,2.82,2.82,0,0,0,.62-.32l.26.43a3.06,3.06,0,0,1-.72.39,2.49,2.49,0,0,1-.87.15,2.26,2.26,0,0,1-1.15-.29,2,2,0,0,1-.74-.81,2.57,2.57,0,0,1-.26-1.16v-.47a2.5,2.5,0,0,1,.25-1.13,1.91,1.91,0,0,1,1.77-1.1,1.77,1.77,0,0,1,1.42.6,2.48,2.48,0,0,1,.51,1.66,2.42,2.42,0,0,1,0,.42Zm0-.48h2.7V95a1.79,1.79,0,0,0-.35-1.17,1.18,1.18,0,0,0-1-.43,1.2,1.2,0,0,0-1,.45A1.87,1.87,0,0,0,356.5,95Z"/><path class="cls-23" d="M363.35,97.68a2.81,2.81,0,0,1-.73.11,1.31,1.31,0,0,1-.91-.28,1.06,1.06,0,0,1-.32-.83V93.46h-.75v-.52h.77l.06-1.13h.59v1.13h1.14v.52h-1.14v3.19a.58.58,0,0,0,.17.45.68.68,0,0,0,.5.16,2.76,2.76,0,0,0,.54-.07Z"/><path class="cls-23" d="M367,92.94l-.12.63a1,1,0,0,0-.32,0,1.37,1.37,0,0,0-1.34,1.15v3h-.67V92.94h.5l.11.85a1.47,1.47,0,0,1,.55-.7,1.32,1.32,0,0,1,.77-.23A1.61,1.61,0,0,1,367,92.94Z"/><path class="cls-23" d="M371.86,95.06v.47a2.58,2.58,0,0,1-.25,1.17,1.8,1.8,0,0,1-.72.8,2.21,2.21,0,0,1-1.15.29,2,2,0,0,1-1.56-.62,2.38,2.38,0,0,1-.55-1.64v-.47a2.66,2.66,0,0,1,.24-1.15,1.84,1.84,0,0,1,.72-.79,2.18,2.18,0,0,1,1.15-.29,2.21,2.21,0,0,1,1.15.29,1.78,1.78,0,0,1,.72.79A2.52,2.52,0,0,1,371.86,95.06Zm-3.56,0v.47a2,2,0,0,0,.37,1.28,1.3,1.3,0,0,0,1.07.46,1.33,1.33,0,0,0,1.07-.46,1.92,1.92,0,0,0,.38-1.28v-.47a1.81,1.81,0,0,0-.38-1.23,1.51,1.51,0,0,0-2.14,0A1.87,1.87,0,0,0,368.3,95.05Z"/><path class="cls-23" d="M375.56,94.87H373v-.55h2.58Z"/><path class="cls-23" d="M379.51,92.94l-.12.63a.89.89,0,0,0-.32,0,1.37,1.37,0,0,0-1.34,1.15v3h-.67V92.94h.51l.1.85a1.53,1.53,0,0,1,.55-.7,1.34,1.34,0,0,1,.77-.23A1.57,1.57,0,0,1,379.51,92.94Z"/><path class="cls-23" d="M380.76,95.51v0a1.86,1.86,0,0,0,.41,1.28,1.43,1.43,0,0,0,1.13.45,1.83,1.83,0,0,0,.68-.12,3.35,3.35,0,0,0,.62-.32l.26.43a3.51,3.51,0,0,1-.72.39,2.58,2.58,0,0,1-.88.15,2.22,2.22,0,0,1-1.14-.29,2,2,0,0,1-.75-.81,2.57,2.57,0,0,1-.26-1.16v-.47a2.64,2.64,0,0,1,.25-1.13,2,2,0,0,1,.7-.8,1.91,1.91,0,0,1,1.07-.3,1.76,1.76,0,0,1,1.42.6,2.48,2.48,0,0,1,.51,1.66,2.56,2.56,0,0,1,0,.42Zm0-.48h2.7V95a1.79,1.79,0,0,0-.34-1.17,1.35,1.35,0,0,0-2,0A1.93,1.93,0,0,0,380.76,95Z"/><path class="cls-23" d="M390,97.68a1.4,1.4,0,0,1-.53.11.8.8,0,0,1-.87-.88V91.53c-.63-.06-1-.1-1.22-.1a1.33,1.33,0,0,0-.87.24,1,1,0,0,0-.29.82v.45h1.3v.52h-1.3v4.23h-.66V93.46h-.66v-.52h.66v-.41c0-1.08.58-1.62,1.75-1.62a11.88,11.88,0,0,1,1.32.11h.63v5.79a.45.45,0,0,0,.1.33.32.32,0,0,0,.27.1.88.88,0,0,0,.29,0Z"/><path class="cls-23" d="M391.56,95.51v0a1.86,1.86,0,0,0,.41,1.28,1.43,1.43,0,0,0,1.13.45,1.83,1.83,0,0,0,.68-.12,3.35,3.35,0,0,0,.62-.32l.26.43a3.51,3.51,0,0,1-.72.39,2.58,2.58,0,0,1-.88.15,2.22,2.22,0,0,1-1.14-.29,2,2,0,0,1-.75-.81,2.57,2.57,0,0,1-.26-1.16v-.47a2.64,2.64,0,0,1,.25-1.13,2,2,0,0,1,.7-.8,1.91,1.91,0,0,1,1.07-.3,1.76,1.76,0,0,1,1.42.6,2.48,2.48,0,0,1,.51,1.66,2.56,2.56,0,0,1,0,.42Zm0-.48h2.7V95a1.74,1.74,0,0,0-.35-1.17,1.17,1.17,0,0,0-1-.43,1.2,1.2,0,0,0-1,.45A1.93,1.93,0,0,0,391.56,95Z"/><path class="cls-23" d="M395.84,95.5v-.39a2.49,2.49,0,0,1,.52-1.65,1.84,1.84,0,0,1,1.5-.63,2.09,2.09,0,0,1,.81.15,2.4,2.4,0,0,1,.68.44l-.35.38a1.74,1.74,0,0,0-.51-.32,1.66,1.66,0,0,0-.61-.11,1.21,1.21,0,0,0-1,.46,2,2,0,0,0-.36,1.26v.42a2.09,2.09,0,0,0,.35,1.28,1.19,1.19,0,0,0,1,.46,1.64,1.64,0,0,0,.6-.11,2.32,2.32,0,0,0,.54-.31l.3.44a2.56,2.56,0,0,1-.67.37,2.08,2.08,0,0,1-.78.15,1.83,1.83,0,0,1-1.48-.63A2.45,2.45,0,0,1,395.84,95.5Z"/><path class="cls-23" d="M402.79,97.68a2.69,2.69,0,0,1-.73.11,1.34,1.34,0,0,1-.91-.28,1.09,1.09,0,0,1-.31-.83V93.46h-.76v-.52h.78l.05-1.13h.6v1.13h1.14v.52h-1.14v3.19a.55.55,0,0,0,.17.45.68.68,0,0,0,.5.16,2.67,2.67,0,0,0,.53-.07Z"/><path class="cls-23" d="M404.84,97.68h-.67V93.46h-.75v-.52h1.42Zm-.8-6.1a.38.38,0,0,1,.13-.3.43.43,0,0,1,.6,0,.42.42,0,1,1-.73.3Z"/><path class="cls-23" d="M410.45,95.06v.47a2.72,2.72,0,0,1-.24,1.17,1.88,1.88,0,0,1-.73.8,2.21,2.21,0,0,1-1.15.29,2,2,0,0,1-1.56-.62,2.38,2.38,0,0,1-.55-1.64v-.47a2.66,2.66,0,0,1,.24-1.15,1.9,1.9,0,0,1,.72-.79,2.43,2.43,0,0,1,2.3,0,1.86,1.86,0,0,1,.73.79A2.66,2.66,0,0,1,410.45,95.06Zm-3.56,0v.47a2,2,0,0,0,.37,1.28,1.3,1.3,0,0,0,1.07.46,1.33,1.33,0,0,0,1.07-.46,1.92,1.92,0,0,0,.39-1.28v-.47a1.81,1.81,0,0,0-.39-1.23,1.51,1.51,0,0,0-2.14,0A1.87,1.87,0,0,0,406.89,95.05Z"/><path class="cls-23" d="M415.52,94.41v3.27h-.67V94.47a1.13,1.13,0,0,0-.26-.83,1,1,0,0,0-.74-.27,1.57,1.57,0,0,0-1.36.84v3.47h-.66V92.94h.57l.05.63a1.85,1.85,0,0,1,1.55-.74,1.53,1.53,0,0,1,1.1.41A1.58,1.58,0,0,1,415.52,94.41Z"/><path class="cls-23" d="M421.4,99.23l-.39.36a6.35,6.35,0,0,1-1-1,3.54,3.54,0,0,1-.54-1.06,4.8,4.8,0,0,1-.16-1.33v-1.8a4.8,4.8,0,0,1,.16-1.33,3.49,3.49,0,0,1,.54-1,6.37,6.37,0,0,1,1-1.06l.39.36a7.56,7.56,0,0,0-.87,1,3,3,0,0,0-.43.93,4.71,4.71,0,0,0-.13,1.14v1.8a4.65,4.65,0,0,0,.13,1.14,3,3,0,0,0,.43.93A7.56,7.56,0,0,0,421.4,99.23Z"/><path class="cls-23" d="M422.48,97.18l.34-.44a2.29,2.29,0,0,0,.65.39,2.36,2.36,0,0,0,.78.13,1.55,1.55,0,0,0,.85-.2.62.62,0,0,0,.3-.56v-.07a.63.63,0,0,0-.19-.5,2.11,2.11,0,0,0-.73-.36l-.63-.22a2.46,2.46,0,0,1-.88-.48,1,1,0,0,1-.28-.7V94a1,1,0,0,1,.21-.61,1.46,1.46,0,0,1,.59-.43,2.3,2.3,0,0,1,.85-.15,2.82,2.82,0,0,1,.92.15,2.27,2.27,0,0,1,.76.43l-.33.39a2.66,2.66,0,0,0-.65-.33,2.17,2.17,0,0,0-.69-.1,1.38,1.38,0,0,0-.73.17.54.54,0,0,0-.26.47v.07a.53.53,0,0,0,.2.44,2.09,2.09,0,0,0,.71.35l.63.23a2.55,2.55,0,0,1,.88.48,1,1,0,0,1,.29.78v.15a1.09,1.09,0,0,1-.5.94,2.29,2.29,0,0,1-1.27.34A2.85,2.85,0,0,1,422.48,97.18Z"/><path class="cls-23" d="M431.16,94.41v3.27h-.67V94.47a1.13,1.13,0,0,0-.26-.83,1,1,0,0,0-.73-.27,1.53,1.53,0,0,0-1.36.85v3.46h-.67V91h.67v2.52a1.76,1.76,0,0,1,1.5-.71,1.51,1.51,0,0,1,1.1.41A1.58,1.58,0,0,1,431.16,94.41Z"/><path class="cls-23" d="M433.1,95.51v0a1.86,1.86,0,0,0,.41,1.28,1.45,1.45,0,0,0,1.13.45,1.83,1.83,0,0,0,.68-.12,3.06,3.06,0,0,0,.62-.32l.26.43a3.06,3.06,0,0,1-.72.39,2.57,2.57,0,0,1-.87.15,2.26,2.26,0,0,1-1.15-.29,2,2,0,0,1-.75-.81,2.57,2.57,0,0,1-.25-1.16v-.47a2.63,2.63,0,0,1,.24-1.13,1.9,1.9,0,0,1,.71-.8,1.86,1.86,0,0,1,1.06-.3,1.76,1.76,0,0,1,1.42.6,2.92,2.92,0,0,1,.49,2.08Zm0-.48h2.7V95a1.79,1.79,0,0,0-.34-1.17,1.19,1.19,0,0,0-1-.43,1.22,1.22,0,0,0-1,.45A1.93,1.93,0,0,0,433.1,95Z"/><path class="cls-23" d="M438,95.51v0a1.85,1.85,0,0,0,.4,1.28,1.45,1.45,0,0,0,1.14.45,1.78,1.78,0,0,0,.67-.12,2.82,2.82,0,0,0,.62-.32l.26.43a3.06,3.06,0,0,1-.72.39,2.49,2.49,0,0,1-.87.15,2.26,2.26,0,0,1-1.15-.29,2,2,0,0,1-.74-.81,2.45,2.45,0,0,1-.26-1.16v-.47a2.5,2.5,0,0,1,.25-1.13,1.91,1.91,0,0,1,1.77-1.1,1.77,1.77,0,0,1,1.42.6,2.48,2.48,0,0,1,.51,1.66,2.42,2.42,0,0,1,0,.42Zm0-.48h2.7V95a1.79,1.79,0,0,0-.35-1.17,1.18,1.18,0,0,0-1-.43,1.2,1.2,0,0,0-1,.45A1.87,1.87,0,0,0,438,95Z"/><path class="cls-23" d="M446.37,94.41v3.27h-.66V94.47a1.14,1.14,0,0,0-.27-.83,1,1,0,0,0-.73-.27,1.55,1.55,0,0,0-1.36.84v3.47h-.67V92.94h.57l.05.63a1.87,1.87,0,0,1,1.55-.74,1.53,1.53,0,0,1,1.1.41A1.58,1.58,0,0,1,446.37,94.41Z"/><path class="cls-23" d="M450,94.35v1.8a4.78,4.78,0,0,1-.17,1.33,3.3,3.3,0,0,1-.53,1.06,6.35,6.35,0,0,1-1,1l-.4-.36a7,7,0,0,0,.88-1,3.25,3.25,0,0,0,.43-.93,4.69,4.69,0,0,0,.12-1.14v-1.8a4.75,4.75,0,0,0-.12-1.14,3.25,3.25,0,0,0-.43-.93,7,7,0,0,0-.88-1l.4-.36a6.37,6.37,0,0,1,1,1.06,3.25,3.25,0,0,1,.53,1A4.78,4.78,0,0,1,450,94.35Z"/><path class="cls-23" d="M453,92.85l.87,1.11-.45.34-.79-1.17-.78,1.17-.45-.33.87-1.12-1.36-.38L451,92l1.33.47L452.3,91h.57l-.06,1.41,1.33-.48.18.52Z"/></g></svg>